M48
; DRILL file KiCad 10.0.6 date 2026-09-23T19:15:33
; FORMAT={-:-/ absolute / metric / decimal}
; #@! TF.CreationDate,2026-09-23T19:15:33-04:00
; #@! TF.GenerationSoftware,Kicad,Pcbnew,10.0.6
; #@! TF.FileFunction,Plated,1,4,PTH
FMAT,2
METRIC
; #@! TA.AperFunction,Plated,PTH,ViaDrill
T1C0.300
; #@! TA.AperFunction,Plated,PTH,ViaDrill
T2C0.400
; #@! TA.AperFunction,Plated,PTH,ComponentDrill
T3C1.000
; #@! TA.AperFunction,Plated,PTH,ComponentDrill
T4C1.300
; #@! TA.AperFunction,Plated,PTH,ComponentDrill
T5C1.900
%
G90
G05
T1
X2.255Y-33.755
X2.255Y-38.255
X2.255Y-42.755
X2.255Y-47.255
X2.255Y-51.755
X6.745Y-33.755
X6.745Y-38.255
X6.745Y-42.755
X6.745Y-47.255
X6.745Y-51.755
X8.725Y-41.125
X10.425Y-43.025
X11.245Y-33.755
X11.245Y-38.255
X11.245Y-47.255
X11.245Y-56.255
X15.745Y-33.755
X15.745Y-38.255
X15.745Y-56.255
X16.425Y-42.425
X16.425Y-46.125
X20.255Y-33.755
X20.255Y-38.255
X20.255Y-51.755
X20.255Y-56.255
X24.755Y-38.255
X24.755Y-51.755
X24.755Y-56.255
X25.975Y-45.85
X26.825Y-44.925
X29.225Y-41.125
X29.255Y-47.255
X29.255Y-51.755
X29.255Y-56.255
X30.925Y-43.025
X33.755Y-47.255
X33.755Y-56.255
X33.825Y-15.375
X33.825Y-32.875
X33.925Y-5.25
X34.225Y-11.925
X34.225Y-13.025
X34.225Y-29.425
X34.225Y-30.525
X34.625Y-15.375
X34.625Y-32.875
X34.825Y-5.25
X35.275Y-22.5
X35.825Y-11.925
X35.825Y-13.025
X35.825Y-29.425
X35.825Y-30.525
X36.125Y-22.5
X36.925Y-42.425
X36.925Y-46.125
X38.255Y-2.255
X38.255Y-6.745
X38.255Y-20.255
X38.255Y-24.755
X38.255Y-51.755
X38.825Y-17.125
X38.825Y-34.625
X40.025Y-16.325
X40.025Y-33.825
X41.525Y-10.595
X41.525Y-28.1
X42.755Y-2.255
X42.755Y-6.745
X42.755Y-11.245
X42.755Y-20.255
X42.755Y-24.755
X42.755Y-29.255
X42.755Y-38.255
X44.225Y-50.555
X46.475Y-45.85
X47.255Y-2.255
X47.255Y-6.745
X47.255Y-20.255
X47.255Y-24.755
X47.255Y-29.255
X47.255Y-38.255
X50.325Y-21.775
X51.225Y-47.925
X51.225Y-54.825
X51.755Y-2.255
X51.755Y-6.745
X51.755Y-15.745
X51.755Y-24.755
X51.755Y-29.255
X51.755Y-33.755
X51.755Y-38.255
X51.755Y-42.755
X53.675Y-49.625
X54.325Y-38.625
X55.555Y-33.925
X55.775Y-52.025
X56.255Y-2.255
X56.255Y-6.745
X56.255Y-24.755
X56.255Y-29.255
X56.75Y-16.13
X56.775Y-52.625
X57.455Y-9.625
X57.524Y-43.525
X57.524Y-46.525
X57.525Y-42.525
X57.525Y-47.525
X58.65Y-22.925
X58.65Y-32.625
X59.024Y-45.025
X60.524Y-43.525
X60.524Y-46.525
X60.755Y-2.255
X60.755Y-6.745
X60.755Y-29.255
X60.755Y-33.755
X61.775Y-35.775
X63.925Y-50.455
X65.025Y-53.175
X65.245Y-2.255
X65.245Y-6.745
X65.245Y-24.755
X65.245Y-29.255
X65.245Y-33.755
X65.245Y-56.255
X65.825Y-44.025
X65.83Y-40.375
X66.425Y-36.325
X68.17Y-40.825
X68.825Y-54.425
X68.83Y-36.175
X69.745Y-2.255
X69.745Y-6.745
X69.745Y-42.755
X69.745Y-56.255
X70.125Y-51.425
X70.825Y-49.625
X71.125Y-45.275
X74.245Y-2.255
X74.245Y-6.745
X74.245Y-38.255
X74.245Y-42.755
X74.245Y-47.255
X74.245Y-51.755
X74.245Y-56.255
X78.745Y-38.255
X78.745Y-42.755
X78.745Y-47.255
X78.745Y-51.755
T2
X10.625Y-50.025
X10.625Y-51.225
X14.225Y-19.425
X14.225Y-20.625
X15.425Y-19.425
X15.425Y-20.625
X16.075Y-50.025
X16.075Y-51.225
X16.625Y-19.425
X16.625Y-20.625
X17.825Y-19.425
X17.825Y-20.625
X19.025Y-19.425
X20.225Y-19.425
X21.425Y-19.425
X22.025Y-49.625
X22.425Y-1.925
X22.425Y-3.125
X22.425Y-4.325
X22.425Y-5.525
X22.425Y-6.725
X22.625Y-19.425
X23.125Y-49.625
X23.625Y-1.925
X23.625Y-3.125
X23.625Y-4.325
X23.625Y-5.525
X23.625Y-6.725
X24.925Y-17.925
X24.925Y-35.425
X26.125Y-17.925
X26.125Y-35.425
X27.325Y-17.925
X27.325Y-35.425
X29.925Y-4.325
X31.025Y-20.625
X31.125Y-50.025
X31.125Y-51.225
X32.225Y-20.625
X33.425Y-20.625
X34.625Y-20.625
X36.575Y-50.025
X36.575Y-51.225
X42.525Y-49.625
X43.625Y-49.625
X46.625Y-9.125
X46.625Y-10.325
X46.625Y-11.525
X47.825Y-9.125
X47.825Y-10.325
X47.825Y-11.525
X49.025Y-9.125
X49.025Y-10.325
X49.025Y-11.525
X63.025Y-23.825
X64.025Y-23.825
X68.025Y-31.025
X69.325Y-31.025
X70.625Y-31.025
X76.425Y-31.025
X77.725Y-31.025
X79.025Y-31.025
T3
X40.025Y-56.275
X42.565Y-56.275
X45.105Y-56.275
X47.645Y-56.275
X50.185Y-56.275
X54.025Y-56.275
X56.565Y-56.275
X59.105Y-56.275
X61.645Y-56.275
X78.275Y-8.775
X78.275Y-19.775
T4
X5.225Y-22.025
X5.225Y-27.105
T5
X68.275Y-11.775
X68.275Y-16.775
M30
