%TF.GenerationSoftware,KiCad,Pcbnew,10.0.6*%
%TF.CreationDate,2026-09-23T19:15:33-04:00*%
%TF.ProjectId,p1_tx,70315f74-782e-46b6-9963-61645f706362,rev?*%
%TF.SameCoordinates,Original*%
%TF.FileFunction,Copper,L2,Inr*%
%TF.FilePolarity,Positive*%
%FSLAX46Y46*%
G04 Gerber Fmt 4.6, Leading zero omitted, Abs format (unit mm)*
G04 Created by KiCad (PCBNEW 10.0.6) date 2026-09-23 19:15:33*
%MOMM*%
%LPD*%
G01*
G04 APERTURE LIST*
G04 Aperture macros list*
%AMRoundRect*
0 Rectangle with rounded corners*
0 $1 Rounding radius*
0 $2 $3 $4 $5 $6 $7 $8 $9 X,Y pos of 4 corners*
0 Add a 4 corners polygon primitive as box body*
4,1,4,$2,$3,$4,$5,$6,$7,$8,$9,$2,$3,0*
0 Add four circle primitives for the rounded corners*
1,1,$1+$1,$2,$3*
1,1,$1+$1,$4,$5*
1,1,$1+$1,$6,$7*
1,1,$1+$1,$8,$9*
0 Add four rect primitives between the rounded corners*
20,1,$1+$1,$2,$3,$4,$5,0*
20,1,$1+$1,$4,$5,$6,$7,0*
20,1,$1+$1,$6,$7,$8,$9,0*
20,1,$1+$1,$8,$9,$2,$3,0*%
G04 Aperture macros list end*
%TA.AperFunction,ComponentPad*%
%ADD10C,1.400000*%
%TD*%
%TA.AperFunction,ComponentPad*%
%ADD11RoundRect,0.770000X-0.980000X0.980000X-0.980000X-0.980000X0.980000X-0.980000X0.980000X0.980000X0*%
%TD*%
%TA.AperFunction,ComponentPad*%
%ADD12C,3.500000*%
%TD*%
%TA.AperFunction,ComponentPad*%
%ADD13RoundRect,0.250000X-1.050000X1.050000X-1.050000X-1.050000X1.050000X-1.050000X1.050000X1.050000X0*%
%TD*%
%TA.AperFunction,ComponentPad*%
%ADD14C,2.600000*%
%TD*%
%TA.AperFunction,ComponentPad*%
%ADD15R,1.700000X1.700000*%
%TD*%
%TA.AperFunction,ComponentPad*%
%ADD16C,1.700000*%
%TD*%
%TA.AperFunction,ViaPad*%
%ADD17C,0.800000*%
%TD*%
%TA.AperFunction,ViaPad*%
%ADD18C,0.600000*%
%TD*%
%TA.AperFunction,ViaPad*%
%ADD19C,0.500000*%
%TD*%
G04 APERTURE END LIST*
D10*
%TO.N,*%
%TO.C,J101*%
X78275000Y-8775000D03*
X78275000Y-19775000D03*
D11*
%TO.N,GND*%
X68275000Y-16775000D03*
D12*
%TO.N,Net-(J101-Pin_2)*%
X68275000Y-11775000D03*
%TD*%
D13*
%TO.N,/TX_LCC/LCC_N2*%
%TO.C,J301*%
X5225000Y-22025000D03*
D14*
%TO.N,/SWB*%
X5225000Y-27105000D03*
%TD*%
D15*
%TO.N,+3V3*%
%TO.C,J501*%
X50185000Y-56275000D03*
D16*
%TO.N,/TX_MCU/SWCLK*%
X47645000Y-56275000D03*
%TO.N,GND*%
X45105000Y-56275000D03*
%TO.N,/TX_MCU/SWDIO*%
X42565000Y-56275000D03*
%TO.N,/TX_MCU/NRST*%
X40025000Y-56275000D03*
%TD*%
D15*
%TO.N,+3V3*%
%TO.C,J502*%
X54025000Y-56275000D03*
D16*
%TO.N,/TX_MCU/UART_TX*%
X56565000Y-56275000D03*
%TO.N,/TX_MCU/UART_RX*%
X59105000Y-56275000D03*
%TO.N,GND*%
X61645000Y-56275000D03*
%TD*%
D17*
%TO.N,VBUS*%
X47825000Y-10324999D03*
X22425000Y-4325000D03*
X46625000Y-10324999D03*
X16074999Y-51225000D03*
X22425000Y-5525000D03*
X22425000Y-1925000D03*
X17824999Y-20624999D03*
X22425000Y-6725000D03*
X69325000Y-31025000D03*
X34625000Y-20625000D03*
X15424999Y-19425000D03*
X33425000Y-20625000D03*
X23624999Y-1925000D03*
X16074999Y-50025000D03*
X20224999Y-19425000D03*
X36575000Y-51225000D03*
X21424999Y-19425000D03*
X17824999Y-19425000D03*
X47825000Y-11524999D03*
X49025000Y-11524999D03*
X14225000Y-20624999D03*
X23624999Y-5525000D03*
X22425000Y-3124999D03*
X31025000Y-20625000D03*
X36575000Y-50025000D03*
D18*
X68830000Y-36175000D03*
D17*
X46625000Y-11524999D03*
X29925000Y-4325000D03*
X32225000Y-20625000D03*
X23624999Y-6725000D03*
X14225000Y-19425000D03*
X16624999Y-20624999D03*
X49025000Y-10324999D03*
D18*
X36925000Y-42425000D03*
D17*
X47825000Y-9125000D03*
X70625000Y-31025000D03*
X49025000Y-9125000D03*
X68025000Y-31025000D03*
X23624999Y-3124999D03*
X46625000Y-9125000D03*
X16624999Y-19425000D03*
D18*
X16424999Y-42425000D03*
D17*
X22624999Y-19425000D03*
X19024999Y-19425000D03*
X23624999Y-4325000D03*
X15424999Y-20624999D03*
D18*
%TO.N,GND*%
X51755000Y-33755000D03*
X36125000Y-22500000D03*
X42755000Y-20255000D03*
X51755000Y-2255000D03*
X51755000Y-42755000D03*
X38255000Y-20255000D03*
X6745000Y-33755000D03*
X38255000Y-24755000D03*
X56255000Y-24755000D03*
X51755000Y-29255000D03*
X69745000Y-56255000D03*
X36925000Y-46125000D03*
X78745000Y-51755000D03*
D17*
X22025000Y-49625000D03*
D18*
X57525000Y-42525000D03*
X66425000Y-36325000D03*
D17*
X77725000Y-31025000D03*
D18*
X74245000Y-2255000D03*
X60755000Y-33755000D03*
D17*
X10625000Y-51225000D03*
D18*
X47255000Y-6745000D03*
X71125000Y-45275000D03*
X15745000Y-33755000D03*
X33755000Y-47255000D03*
X2255000Y-42755000D03*
X74245000Y-6745000D03*
X51755000Y-6745000D03*
X47255000Y-2255000D03*
X60755000Y-29255000D03*
D17*
X64025000Y-23825000D03*
D18*
X65245000Y-2255000D03*
D17*
X31125000Y-51225000D03*
D18*
X74245000Y-56255000D03*
X20255000Y-38255000D03*
X2255000Y-38255000D03*
X60755000Y-6745000D03*
X60524500Y-46525000D03*
X34225000Y-30525000D03*
X47255000Y-20255000D03*
X74245000Y-51755000D03*
D17*
X10625000Y-50025000D03*
D18*
X20255000Y-56255000D03*
X69745000Y-42755000D03*
X65245000Y-6745000D03*
X56255000Y-29255000D03*
X69745000Y-2255000D03*
X2255000Y-33755000D03*
X11245000Y-56255000D03*
X30925000Y-43025000D03*
X57525000Y-47525000D03*
D17*
X23125000Y-49625000D03*
D18*
X74245000Y-42755000D03*
X69745000Y-6745000D03*
X59024500Y-45025000D03*
X35825000Y-30525000D03*
X34825000Y-5250000D03*
X50325000Y-21775000D03*
X6745000Y-51755000D03*
X2255000Y-47255000D03*
D17*
X79025000Y-31025000D03*
D18*
X51755000Y-24755000D03*
X24755000Y-38255000D03*
X35825000Y-11925000D03*
X42755000Y-2255000D03*
X70125000Y-51425000D03*
X60524500Y-43525000D03*
X2255000Y-51755000D03*
X6745000Y-47255000D03*
X57524500Y-43525000D03*
X16424999Y-46125000D03*
X11245000Y-38255000D03*
X44225000Y-50555000D03*
X78745000Y-38255000D03*
X51225000Y-54825000D03*
X47255000Y-24755000D03*
X56255000Y-6745000D03*
X65245000Y-33755000D03*
X51225000Y-47925000D03*
X15745000Y-56255000D03*
X65245000Y-56255000D03*
X68170000Y-40825000D03*
X34225000Y-29425000D03*
X38255000Y-2255000D03*
X51755000Y-15745000D03*
D17*
X24925000Y-35425000D03*
X42525000Y-49625000D03*
D18*
X24755000Y-56255000D03*
X55555000Y-33925000D03*
D17*
X63025000Y-23825000D03*
D18*
X15745000Y-38255000D03*
X34225000Y-13025000D03*
X78745000Y-47255000D03*
X78745000Y-42755000D03*
X47255000Y-29255000D03*
D17*
X26124999Y-35425000D03*
D18*
X33755000Y-56255000D03*
X38255000Y-51755000D03*
X65025000Y-53175000D03*
X42755000Y-6745000D03*
X29255000Y-56255000D03*
D17*
X43625000Y-49625000D03*
D18*
X51755000Y-38255000D03*
X20255000Y-51755000D03*
X38255000Y-6745000D03*
X35275000Y-22500000D03*
X42755000Y-11245000D03*
X11245000Y-33755000D03*
X42755000Y-38255000D03*
X11245000Y-47255000D03*
X65245000Y-24755000D03*
D17*
X27324999Y-17925000D03*
D18*
X65245000Y-29255000D03*
X34225000Y-11925000D03*
D17*
X24925000Y-17925000D03*
D18*
X10425000Y-43025000D03*
X35825000Y-29425000D03*
X29255000Y-51755000D03*
X65830000Y-40375000D03*
X56255000Y-2255000D03*
X42755000Y-24755000D03*
X6745000Y-42755000D03*
X35825000Y-13025000D03*
X20255000Y-33755000D03*
X6745000Y-38255000D03*
D17*
X31125000Y-50025000D03*
D18*
X74245000Y-47255000D03*
X61775000Y-35775000D03*
X24755000Y-51755000D03*
X74245000Y-38255000D03*
D17*
X27324999Y-35425000D03*
D18*
X47255000Y-38255000D03*
D17*
X26124999Y-17925000D03*
D18*
X57524500Y-46525000D03*
X70825000Y-49625000D03*
X29255000Y-47255000D03*
X33925000Y-5250000D03*
X42755000Y-29255000D03*
D17*
X76425000Y-31025000D03*
D18*
X60755000Y-2255000D03*
%TO.N,+3V3*%
X58650000Y-32625000D03*
X68825000Y-54425000D03*
X54325000Y-38625000D03*
X63925000Y-50455000D03*
X58650000Y-22925000D03*
X53675000Y-49625000D03*
D19*
%TO.N,+5V*%
X46475000Y-45850000D03*
X29225000Y-41125000D03*
D18*
%TO.N,+12V*%
X26825000Y-44925000D03*
X41525000Y-28100000D03*
X41525000Y-10595000D03*
D19*
X25975000Y-45850000D03*
X8725000Y-41125000D03*
%TO.N,/TX_MCU/NRST*%
X65825000Y-44025000D03*
%TO.N,/TX_Input/ISNS_TX_P*%
X57455000Y-9625000D03*
X56750000Y-16130000D03*
%TO.N,PWM_AH*%
X33825000Y-15375000D03*
D18*
X40025000Y-16325000D03*
%TO.N,PWM_AL*%
X38825000Y-17125000D03*
D19*
X34625000Y-15375000D03*
%TO.N,/TX_MCU/SWCLK*%
X56775000Y-52625000D03*
%TO.N,/TX_MCU/SWDIO*%
X55775000Y-52025000D03*
D18*
%TO.N,PWM_BH*%
X40025000Y-33825000D03*
D19*
X33825000Y-32875000D03*
D18*
%TO.N,PWM_BL*%
X38825000Y-34625000D03*
D19*
X34625000Y-32875000D03*
%TD*%
%TA.AperFunction,Conductor*%
%TO.N,GND*%
G36*
X80029418Y-525816D02*
G01*
X80229561Y-540130D01*
X80247063Y-542647D01*
X80438795Y-584355D01*
X80455760Y-589336D01*
X80639611Y-657909D01*
X80655694Y-665253D01*
X80772495Y-729032D01*
X80827908Y-759290D01*
X80842791Y-768855D01*
X80999864Y-886438D01*
X81013235Y-898024D01*
X81151975Y-1036764D01*
X81163561Y-1050135D01*
X81281144Y-1207208D01*
X81290709Y-1222091D01*
X81384743Y-1394300D01*
X81392093Y-1410394D01*
X81460661Y-1594234D01*
X81465645Y-1611209D01*
X81507351Y-1802931D01*
X81509869Y-1820442D01*
X81524184Y-2020580D01*
X81524500Y-2029427D01*
X81524500Y-58020572D01*
X81524184Y-58029419D01*
X81509869Y-58229557D01*
X81507351Y-58247068D01*
X81465645Y-58438790D01*
X81460661Y-58455765D01*
X81392093Y-58639605D01*
X81384743Y-58655699D01*
X81290709Y-58827908D01*
X81281144Y-58842791D01*
X81163561Y-58999864D01*
X81151975Y-59013235D01*
X81013235Y-59151975D01*
X80999864Y-59163561D01*
X80842791Y-59281144D01*
X80827908Y-59290709D01*
X80655699Y-59384743D01*
X80639605Y-59392093D01*
X80455765Y-59460661D01*
X80438790Y-59465645D01*
X80247068Y-59507351D01*
X80229557Y-59509869D01*
X80048779Y-59522799D01*
X80029417Y-59524184D01*
X80020572Y-59524500D01*
X2029428Y-59524500D01*
X2020582Y-59524184D01*
X1998622Y-59522613D01*
X1820442Y-59509869D01*
X1802931Y-59507351D01*
X1611209Y-59465645D01*
X1594234Y-59460661D01*
X1410394Y-59392093D01*
X1394300Y-59384743D01*
X1222091Y-59290709D01*
X1207208Y-59281144D01*
X1050135Y-59163561D01*
X1036764Y-59151975D01*
X898024Y-59013235D01*
X886438Y-58999864D01*
X768855Y-58842791D01*
X759290Y-58827908D01*
X665256Y-58655699D01*
X657909Y-58639611D01*
X589336Y-58455760D01*
X584354Y-58438790D01*
X570586Y-58375500D01*
X542647Y-58247063D01*
X540130Y-58229556D01*
X525816Y-58029418D01*
X525500Y-58020572D01*
X525500Y-56403711D01*
X1674500Y-56403711D01*
X1674500Y-56646288D01*
X1706161Y-56886785D01*
X1768947Y-57121104D01*
X1859927Y-57340748D01*
X1861776Y-57345212D01*
X1983064Y-57555289D01*
X1983066Y-57555292D01*
X1983067Y-57555293D01*
X2130733Y-57747736D01*
X2130739Y-57747743D01*
X2302256Y-57919260D01*
X2302263Y-57919266D01*
X2415321Y-58006018D01*
X2494711Y-58066936D01*
X2704788Y-58188224D01*
X2928900Y-58281054D01*
X3163211Y-58343838D01*
X3343586Y-58367584D01*
X3403711Y-58375500D01*
X3403712Y-58375500D01*
X3646289Y-58375500D01*
X3694388Y-58369167D01*
X3886789Y-58343838D01*
X4121100Y-58281054D01*
X4345212Y-58188224D01*
X4555289Y-58066936D01*
X4747738Y-57919265D01*
X4919265Y-57747738D01*
X5066936Y-57555289D01*
X5188224Y-57345212D01*
X5281054Y-57121100D01*
X5343838Y-56886789D01*
X5375500Y-56646288D01*
X5375500Y-56403712D01*
X5372736Y-56382720D01*
X5348124Y-56195767D01*
X5346634Y-56184448D01*
X38874500Y-56184448D01*
X38874500Y-56365551D01*
X38902829Y-56544410D01*
X38958787Y-56716636D01*
X38958788Y-56716639D01*
X39014664Y-56826300D01*
X39040869Y-56877730D01*
X39041006Y-56877997D01*
X39147441Y-57024494D01*
X39147445Y-57024499D01*
X39275500Y-57152554D01*
X39275505Y-57152558D01*
X39403287Y-57245396D01*
X39422006Y-57258996D01*
X39498094Y-57297765D01*
X39583360Y-57341211D01*
X39583363Y-57341212D01*
X39669476Y-57369191D01*
X39755591Y-57397171D01*
X39838429Y-57410291D01*
X39934449Y-57425500D01*
X39934454Y-57425500D01*
X40115551Y-57425500D01*
X40202259Y-57411765D01*
X40294409Y-57397171D01*
X40466639Y-57341211D01*
X40627994Y-57258996D01*
X40774501Y-57152553D01*
X40902553Y-57024501D01*
X41008996Y-56877994D01*
X41091211Y-56716639D01*
X41147171Y-56544409D01*
X41161422Y-56454425D01*
X41172527Y-56384321D01*
X41202456Y-56321186D01*
X41261768Y-56284255D01*
X41331630Y-56285253D01*
X41389863Y-56323863D01*
X41417473Y-56384321D01*
X41442829Y-56544410D01*
X41498787Y-56716636D01*
X41498788Y-56716639D01*
X41554664Y-56826300D01*
X41580869Y-56877730D01*
X41581006Y-56877997D01*
X41687441Y-57024494D01*
X41687445Y-57024499D01*
X41815500Y-57152554D01*
X41815505Y-57152558D01*
X41943287Y-57245396D01*
X41962006Y-57258996D01*
X42038094Y-57297765D01*
X42123360Y-57341211D01*
X42123363Y-57341212D01*
X42209476Y-57369191D01*
X42295591Y-57397171D01*
X42378429Y-57410291D01*
X42474449Y-57425500D01*
X42474454Y-57425500D01*
X42655551Y-57425500D01*
X42742259Y-57411765D01*
X42834409Y-57397171D01*
X43006639Y-57341211D01*
X43167994Y-57258996D01*
X43314501Y-57152553D01*
X43442553Y-57024501D01*
X43548996Y-56877994D01*
X43631211Y-56716639D01*
X43687171Y-56544409D01*
X43712780Y-56382720D01*
X43742709Y-56319585D01*
X43802021Y-56282654D01*
X43871883Y-56283652D01*
X43930116Y-56322262D01*
X43957726Y-56382720D01*
X43983317Y-56544293D01*
X44039251Y-56716444D01*
X44039252Y-56716447D01*
X44121431Y-56877730D01*
X44132913Y-56893532D01*
X44132913Y-56893533D01*
X44622037Y-56404409D01*
X44639075Y-56467993D01*
X44704901Y-56582007D01*
X44797993Y-56675099D01*
X44912007Y-56740925D01*
X44975590Y-56757962D01*
X44486466Y-57247085D01*
X44486466Y-57247086D01*
X44502267Y-57258566D01*
X44502275Y-57258571D01*
X44663552Y-57340747D01*
X44663555Y-57340748D01*
X44835706Y-57396682D01*
X45014494Y-57425000D01*
X45195506Y-57425000D01*
X45374293Y-57396682D01*
X45546444Y-57340748D01*
X45546452Y-57340745D01*
X45707730Y-57258568D01*
X45723532Y-57247085D01*
X45723533Y-57247085D01*
X45234410Y-56757962D01*
X45297993Y-56740925D01*
X45412007Y-56675099D01*
X45505099Y-56582007D01*
X45570925Y-56467993D01*
X45587962Y-56404410D01*
X46077085Y-56893533D01*
X46077085Y-56893532D01*
X46088568Y-56877730D01*
X46170745Y-56716452D01*
X46170748Y-56716444D01*
X46226683Y-56544292D01*
X46252273Y-56382721D01*
X46282202Y-56319586D01*
X46341513Y-56282654D01*
X46411376Y-56283652D01*
X46469609Y-56322261D01*
X46497219Y-56382720D01*
X46522828Y-56544410D01*
X46578787Y-56716636D01*
X46578788Y-56716639D01*
X46634664Y-56826300D01*
X46660869Y-56877730D01*
X46661006Y-56877997D01*
X46767441Y-57024494D01*
X46767445Y-57024499D01*
X46895500Y-57152554D01*
X46895505Y-57152558D01*
X47023287Y-57245396D01*
X47042006Y-57258996D01*
X47118094Y-57297765D01*
X47203360Y-57341211D01*
X47203363Y-57341212D01*
X47289476Y-57369191D01*
X47375591Y-57397171D01*
X47458429Y-57410291D01*
X47554449Y-57425500D01*
X47554454Y-57425500D01*
X47735551Y-57425500D01*
X47822259Y-57411765D01*
X47914409Y-57397171D01*
X48086639Y-57341211D01*
X48247994Y-57258996D01*
X48394501Y-57152553D01*
X48522553Y-57024501D01*
X48628996Y-56877994D01*
X48711211Y-56716639D01*
X48767171Y-56544409D01*
X48788027Y-56412729D01*
X48817956Y-56349595D01*
X48877267Y-56312663D01*
X48947130Y-56313661D01*
X49005363Y-56352271D01*
X49033477Y-56416234D01*
X49034500Y-56432127D01*
X49034500Y-57169856D01*
X49034502Y-57169882D01*
X49037413Y-57194987D01*
X49037415Y-57194991D01*
X49082793Y-57297764D01*
X49082794Y-57297765D01*
X49162235Y-57377206D01*
X49265009Y-57422585D01*
X49290135Y-57425500D01*
X51079864Y-57425499D01*
X51079879Y-57425497D01*
X51079882Y-57425497D01*
X51104987Y-57422586D01*
X51104988Y-57422585D01*
X51104991Y-57422585D01*
X51207765Y-57377206D01*
X51287206Y-57297765D01*
X51332585Y-57194991D01*
X51335500Y-57169865D01*
X51335499Y-55380136D01*
X51335499Y-55380135D01*
X51335499Y-55380131D01*
X52874500Y-55380131D01*
X52874500Y-57169856D01*
X52874502Y-57169882D01*
X52877413Y-57194987D01*
X52877415Y-57194991D01*
X52922793Y-57297764D01*
X52922794Y-57297765D01*
X53002235Y-57377206D01*
X53105009Y-57422585D01*
X53130135Y-57425500D01*
X54919864Y-57425499D01*
X54919879Y-57425497D01*
X54919882Y-57425497D01*
X54944987Y-57422586D01*
X54944988Y-57422585D01*
X54944991Y-57422585D01*
X55047765Y-57377206D01*
X55127206Y-57297765D01*
X55172585Y-57194991D01*
X55175500Y-57169865D01*
X55175499Y-56432125D01*
X55195183Y-56365089D01*
X55247987Y-56319334D01*
X55317146Y-56309390D01*
X55380702Y-56338415D01*
X55418476Y-56397193D01*
X55421972Y-56412729D01*
X55442829Y-56544410D01*
X55498787Y-56716636D01*
X55498788Y-56716639D01*
X55554664Y-56826300D01*
X55580869Y-56877730D01*
X55581006Y-56877997D01*
X55687441Y-57024494D01*
X55687445Y-57024499D01*
X55815500Y-57152554D01*
X55815505Y-57152558D01*
X55943287Y-57245396D01*
X55962006Y-57258996D01*
X56038094Y-57297765D01*
X56123360Y-57341211D01*
X56123363Y-57341212D01*
X56209476Y-57369191D01*
X56295591Y-57397171D01*
X56378429Y-57410291D01*
X56474449Y-57425500D01*
X56474454Y-57425500D01*
X56655551Y-57425500D01*
X56742259Y-57411765D01*
X56834409Y-57397171D01*
X57006639Y-57341211D01*
X57167994Y-57258996D01*
X57314501Y-57152553D01*
X57442553Y-57024501D01*
X57548996Y-56877994D01*
X57631211Y-56716639D01*
X57687171Y-56544409D01*
X57701422Y-56454425D01*
X57712527Y-56384321D01*
X57742456Y-56321186D01*
X57801768Y-56284255D01*
X57871630Y-56285253D01*
X57929863Y-56323863D01*
X57957473Y-56384321D01*
X57982829Y-56544410D01*
X58038787Y-56716636D01*
X58038788Y-56716639D01*
X58094664Y-56826300D01*
X58120869Y-56877730D01*
X58121006Y-56877997D01*
X58227441Y-57024494D01*
X58227445Y-57024499D01*
X58355500Y-57152554D01*
X58355505Y-57152558D01*
X58483287Y-57245396D01*
X58502006Y-57258996D01*
X58578094Y-57297765D01*
X58663360Y-57341211D01*
X58663363Y-57341212D01*
X58749476Y-57369191D01*
X58835591Y-57397171D01*
X58918429Y-57410291D01*
X59014449Y-57425500D01*
X59014454Y-57425500D01*
X59195551Y-57425500D01*
X59282259Y-57411765D01*
X59374409Y-57397171D01*
X59546639Y-57341211D01*
X59707994Y-57258996D01*
X59854501Y-57152553D01*
X59982553Y-57024501D01*
X60088996Y-56877994D01*
X60171211Y-56716639D01*
X60227171Y-56544409D01*
X60252780Y-56382720D01*
X60282709Y-56319585D01*
X60342021Y-56282654D01*
X60411883Y-56283652D01*
X60470116Y-56322262D01*
X60497726Y-56382720D01*
X60523317Y-56544293D01*
X60579251Y-56716444D01*
X60579252Y-56716447D01*
X60661431Y-56877730D01*
X60672913Y-56893532D01*
X60672913Y-56893533D01*
X61162037Y-56404409D01*
X61179075Y-56467993D01*
X61244901Y-56582007D01*
X61337993Y-56675099D01*
X61452007Y-56740925D01*
X61515590Y-56757962D01*
X61026466Y-57247085D01*
X61026466Y-57247086D01*
X61042267Y-57258566D01*
X61042275Y-57258571D01*
X61203552Y-57340747D01*
X61203555Y-57340748D01*
X61375706Y-57396682D01*
X61554494Y-57425000D01*
X61735506Y-57425000D01*
X61914293Y-57396682D01*
X62086444Y-57340748D01*
X62086452Y-57340745D01*
X62247730Y-57258568D01*
X62263532Y-57247085D01*
X62263533Y-57247085D01*
X61774410Y-56757962D01*
X61837993Y-56740925D01*
X61952007Y-56675099D01*
X62045099Y-56582007D01*
X62110925Y-56467993D01*
X62127962Y-56404410D01*
X62617085Y-56893533D01*
X62617085Y-56893532D01*
X62628568Y-56877730D01*
X62710745Y-56716452D01*
X62710748Y-56716444D01*
X62766682Y-56544293D01*
X62788949Y-56403711D01*
X76674500Y-56403711D01*
X76674500Y-56646288D01*
X76706161Y-56886785D01*
X76768947Y-57121104D01*
X76859927Y-57340748D01*
X76861776Y-57345212D01*
X76983064Y-57555289D01*
X76983066Y-57555292D01*
X76983067Y-57555293D01*
X77130733Y-57747736D01*
X77130739Y-57747743D01*
X77302256Y-57919260D01*
X77302263Y-57919266D01*
X77415321Y-58006018D01*
X77494711Y-58066936D01*
X77704788Y-58188224D01*
X77928900Y-58281054D01*
X78163211Y-58343838D01*
X78343586Y-58367584D01*
X78403711Y-58375500D01*
X78403712Y-58375500D01*
X78646289Y-58375500D01*
X78694388Y-58369167D01*
X78886789Y-58343838D01*
X79121100Y-58281054D01*
X79345212Y-58188224D01*
X79555289Y-58066936D01*
X79747738Y-57919265D01*
X79919265Y-57747738D01*
X80066936Y-57555289D01*
X80188224Y-57345212D01*
X80281054Y-57121100D01*
X80343838Y-56886789D01*
X80375500Y-56646288D01*
X80375500Y-56403712D01*
X80368375Y-56349595D01*
X80354027Y-56240609D01*
X80343838Y-56163211D01*
X80281054Y-55928900D01*
X80277966Y-55921446D01*
X80241561Y-55833555D01*
X80188224Y-55704788D01*
X80066936Y-55494711D01*
X79979005Y-55380117D01*
X79919266Y-55302263D01*
X79919260Y-55302256D01*
X79747743Y-55130739D01*
X79747736Y-55130733D01*
X79555293Y-54983067D01*
X79555292Y-54983066D01*
X79555289Y-54983064D01*
X79345212Y-54861776D01*
X79345205Y-54861773D01*
X79121104Y-54768947D01*
X78886785Y-54706161D01*
X78646289Y-54674500D01*
X78646288Y-54674500D01*
X78403712Y-54674500D01*
X78403711Y-54674500D01*
X78163214Y-54706161D01*
X77928895Y-54768947D01*
X77704794Y-54861773D01*
X77704785Y-54861777D01*
X77494706Y-54983067D01*
X77302263Y-55130733D01*
X77302256Y-55130739D01*
X77130739Y-55302256D01*
X77130733Y-55302263D01*
X76983067Y-55494706D01*
X76861777Y-55704785D01*
X76861773Y-55704794D01*
X76768947Y-55928895D01*
X76706161Y-56163214D01*
X76674500Y-56403711D01*
X62788949Y-56403711D01*
X62792664Y-56380255D01*
X62795000Y-56365506D01*
X62795000Y-56184493D01*
X62766682Y-56005706D01*
X62710748Y-55833555D01*
X62710747Y-55833552D01*
X62628571Y-55672275D01*
X62628566Y-55672267D01*
X62617085Y-55656466D01*
X62127962Y-56145589D01*
X62110925Y-56082007D01*
X62045099Y-55967993D01*
X61952007Y-55874901D01*
X61837993Y-55809075D01*
X61774409Y-55792037D01*
X62263533Y-55302913D01*
X62247730Y-55291431D01*
X62086447Y-55209252D01*
X62086444Y-55209251D01*
X61914293Y-55153317D01*
X61735506Y-55125000D01*
X61554494Y-55125000D01*
X61375706Y-55153317D01*
X61203555Y-55209251D01*
X61203547Y-55209254D01*
X61042269Y-55291432D01*
X61026466Y-55302912D01*
X61026466Y-55302913D01*
X61515591Y-55792037D01*
X61452007Y-55809075D01*
X61337993Y-55874901D01*
X61244901Y-55967993D01*
X61179075Y-56082007D01*
X61162037Y-56145590D01*
X60672912Y-55656466D01*
X60661432Y-55672269D01*
X60579254Y-55833547D01*
X60579251Y-55833555D01*
X60523317Y-56005706D01*
X60497726Y-56167279D01*
X60467797Y-56230414D01*
X60408485Y-56267345D01*
X60338622Y-56266347D01*
X60280390Y-56227737D01*
X60252780Y-56167279D01*
X60227189Y-56005706D01*
X60227171Y-56005591D01*
X60171273Y-55833552D01*
X60171212Y-55833363D01*
X60171211Y-55833360D01*
X60105699Y-55704788D01*
X60088996Y-55672006D01*
X60075396Y-55653287D01*
X59982558Y-55525505D01*
X59982554Y-55525500D01*
X59854499Y-55397445D01*
X59854494Y-55397441D01*
X59707997Y-55291006D01*
X59707996Y-55291005D01*
X59707994Y-55291004D01*
X59631906Y-55252235D01*
X59546639Y-55208788D01*
X59546636Y-55208787D01*
X59374410Y-55152829D01*
X59195551Y-55124500D01*
X59195546Y-55124500D01*
X59014454Y-55124500D01*
X59014449Y-55124500D01*
X58835589Y-55152829D01*
X58663363Y-55208787D01*
X58663360Y-55208788D01*
X58502002Y-55291006D01*
X58355505Y-55397441D01*
X58355500Y-55397445D01*
X58227445Y-55525500D01*
X58227441Y-55525505D01*
X58121006Y-55672002D01*
X58038788Y-55833360D01*
X58038787Y-55833363D01*
X57982829Y-56005589D01*
X57957473Y-56165678D01*
X57927544Y-56228813D01*
X57868232Y-56265744D01*
X57798369Y-56264746D01*
X57740137Y-56226136D01*
X57712527Y-56165678D01*
X57687189Y-56005706D01*
X57687171Y-56005591D01*
X57631273Y-55833552D01*
X57631212Y-55833363D01*
X57631211Y-55833360D01*
X57565699Y-55704788D01*
X57548996Y-55672006D01*
X57535396Y-55653287D01*
X57442558Y-55525505D01*
X57442554Y-55525500D01*
X57314499Y-55397445D01*
X57314494Y-55397441D01*
X57167997Y-55291006D01*
X57167996Y-55291005D01*
X57167994Y-55291004D01*
X57091906Y-55252235D01*
X57006639Y-55208788D01*
X57006636Y-55208787D01*
X56834410Y-55152829D01*
X56655551Y-55124500D01*
X56655546Y-55124500D01*
X56474454Y-55124500D01*
X56474449Y-55124500D01*
X56295589Y-55152829D01*
X56123363Y-55208787D01*
X56123360Y-55208788D01*
X55962002Y-55291006D01*
X55815505Y-55397441D01*
X55815500Y-55397445D01*
X55687445Y-55525500D01*
X55687441Y-55525505D01*
X55581006Y-55672002D01*
X55498788Y-55833360D01*
X55498787Y-55833363D01*
X55442829Y-56005589D01*
X55421972Y-56137271D01*
X55392042Y-56200405D01*
X55332731Y-56237336D01*
X55262868Y-56236338D01*
X55204636Y-56197728D01*
X55176522Y-56133764D01*
X55175499Y-56117872D01*
X55175499Y-55380143D01*
X55175499Y-55380136D01*
X55175497Y-55380117D01*
X55172586Y-55355012D01*
X55172585Y-55355010D01*
X55172585Y-55355009D01*
X55127206Y-55252235D01*
X55047765Y-55172794D01*
X55003654Y-55153317D01*
X54944992Y-55127415D01*
X54919865Y-55124500D01*
X53130143Y-55124500D01*
X53130117Y-55124502D01*
X53105012Y-55127413D01*
X53105008Y-55127415D01*
X53002235Y-55172793D01*
X52922794Y-55252234D01*
X52877415Y-55355006D01*
X52877415Y-55355008D01*
X52874500Y-55380131D01*
X51335499Y-55380131D01*
X51335499Y-55380130D01*
X51332586Y-55355012D01*
X51332585Y-55355010D01*
X51332585Y-55355009D01*
X51287206Y-55252235D01*
X51207765Y-55172794D01*
X51163654Y-55153317D01*
X51104992Y-55127415D01*
X51079865Y-55124500D01*
X49290143Y-55124500D01*
X49290117Y-55124502D01*
X49265012Y-55127413D01*
X49265008Y-55127415D01*
X49162235Y-55172793D01*
X49082794Y-55252234D01*
X49037415Y-55355006D01*
X49037415Y-55355008D01*
X49034500Y-55380131D01*
X49034500Y-56117871D01*
X49014815Y-56184910D01*
X48962011Y-56230665D01*
X48892853Y-56240609D01*
X48829297Y-56211584D01*
X48791523Y-56152806D01*
X48788027Y-56137269D01*
X48767189Y-56005706D01*
X48767171Y-56005591D01*
X48711273Y-55833552D01*
X48711212Y-55833363D01*
X48711211Y-55833360D01*
X48645699Y-55704788D01*
X48628996Y-55672006D01*
X48615396Y-55653287D01*
X48522558Y-55525505D01*
X48522554Y-55525500D01*
X48394499Y-55397445D01*
X48394494Y-55397441D01*
X48247997Y-55291006D01*
X48247996Y-55291005D01*
X48247994Y-55291004D01*
X48171906Y-55252235D01*
X48086639Y-55208788D01*
X48086636Y-55208787D01*
X47914410Y-55152829D01*
X47735551Y-55124500D01*
X47735546Y-55124500D01*
X47554454Y-55124500D01*
X47554449Y-55124500D01*
X47375589Y-55152829D01*
X47203363Y-55208787D01*
X47203360Y-55208788D01*
X47042002Y-55291006D01*
X46895505Y-55397441D01*
X46895500Y-55397445D01*
X46767445Y-55525500D01*
X46767441Y-55525505D01*
X46661006Y-55672002D01*
X46578788Y-55833360D01*
X46578787Y-55833363D01*
X46522829Y-56005589D01*
X46497219Y-56167280D01*
X46467289Y-56230414D01*
X46407978Y-56267345D01*
X46338115Y-56266347D01*
X46279883Y-56227737D01*
X46252273Y-56167279D01*
X46226682Y-56005706D01*
X46170748Y-55833555D01*
X46170747Y-55833552D01*
X46088571Y-55672275D01*
X46088566Y-55672267D01*
X46077085Y-55656466D01*
X45587962Y-56145589D01*
X45570925Y-56082007D01*
X45505099Y-55967993D01*
X45412007Y-55874901D01*
X45297993Y-55809075D01*
X45234409Y-55792037D01*
X45723533Y-55302913D01*
X45707730Y-55291431D01*
X45546447Y-55209252D01*
X45546444Y-55209251D01*
X45374293Y-55153317D01*
X45195506Y-55125000D01*
X45014494Y-55125000D01*
X44835706Y-55153317D01*
X44663555Y-55209251D01*
X44663547Y-55209254D01*
X44502269Y-55291432D01*
X44486466Y-55302912D01*
X44486466Y-55302913D01*
X44975591Y-55792037D01*
X44912007Y-55809075D01*
X44797993Y-55874901D01*
X44704901Y-55967993D01*
X44639075Y-56082007D01*
X44622037Y-56145590D01*
X44132912Y-55656466D01*
X44121432Y-55672269D01*
X44039254Y-55833547D01*
X44039251Y-55833555D01*
X43983317Y-56005706D01*
X43957726Y-56167279D01*
X43927797Y-56230414D01*
X43868485Y-56267345D01*
X43798622Y-56266347D01*
X43740390Y-56227737D01*
X43712780Y-56167279D01*
X43687189Y-56005706D01*
X43687171Y-56005591D01*
X43631273Y-55833552D01*
X43631212Y-55833363D01*
X43631211Y-55833360D01*
X43565699Y-55704788D01*
X43548996Y-55672006D01*
X43535396Y-55653287D01*
X43442558Y-55525505D01*
X43442554Y-55525500D01*
X43314499Y-55397445D01*
X43314494Y-55397441D01*
X43167997Y-55291006D01*
X43167996Y-55291005D01*
X43167994Y-55291004D01*
X43091906Y-55252235D01*
X43006639Y-55208788D01*
X43006636Y-55208787D01*
X42834410Y-55152829D01*
X42655551Y-55124500D01*
X42655546Y-55124500D01*
X42474454Y-55124500D01*
X42474449Y-55124500D01*
X42295589Y-55152829D01*
X42123363Y-55208787D01*
X42123360Y-55208788D01*
X41962002Y-55291006D01*
X41815505Y-55397441D01*
X41815500Y-55397445D01*
X41687445Y-55525500D01*
X41687441Y-55525505D01*
X41581006Y-55672002D01*
X41498788Y-55833360D01*
X41498787Y-55833363D01*
X41442829Y-56005589D01*
X41417473Y-56165678D01*
X41387544Y-56228813D01*
X41328232Y-56265744D01*
X41258369Y-56264746D01*
X41200137Y-56226136D01*
X41172527Y-56165678D01*
X41147189Y-56005706D01*
X41147171Y-56005591D01*
X41091273Y-55833552D01*
X41091212Y-55833363D01*
X41091211Y-55833360D01*
X41025699Y-55704788D01*
X41008996Y-55672006D01*
X40995396Y-55653287D01*
X40902558Y-55525505D01*
X40902554Y-55525500D01*
X40774499Y-55397445D01*
X40774494Y-55397441D01*
X40627997Y-55291006D01*
X40627996Y-55291005D01*
X40627994Y-55291004D01*
X40551906Y-55252235D01*
X40466639Y-55208788D01*
X40466636Y-55208787D01*
X40294410Y-55152829D01*
X40115551Y-55124500D01*
X40115546Y-55124500D01*
X39934454Y-55124500D01*
X39934449Y-55124500D01*
X39755589Y-55152829D01*
X39583363Y-55208787D01*
X39583360Y-55208788D01*
X39422002Y-55291006D01*
X39275505Y-55397441D01*
X39275500Y-55397445D01*
X39147445Y-55525500D01*
X39147441Y-55525505D01*
X39041006Y-55672002D01*
X38958788Y-55833360D01*
X38958787Y-55833363D01*
X38902829Y-56005589D01*
X38874500Y-56184448D01*
X5346634Y-56184448D01*
X5343838Y-56163211D01*
X5281054Y-55928900D01*
X5277966Y-55921446D01*
X5241561Y-55833555D01*
X5188224Y-55704788D01*
X5066936Y-55494711D01*
X4979005Y-55380117D01*
X4919266Y-55302263D01*
X4919260Y-55302256D01*
X4747743Y-55130739D01*
X4747736Y-55130733D01*
X4555293Y-54983067D01*
X4555292Y-54983066D01*
X4555289Y-54983064D01*
X4345212Y-54861776D01*
X4345205Y-54861773D01*
X4121104Y-54768947D01*
X3886785Y-54706161D01*
X3646289Y-54674500D01*
X3646288Y-54674500D01*
X3403712Y-54674500D01*
X3403711Y-54674500D01*
X3163214Y-54706161D01*
X2928895Y-54768947D01*
X2704794Y-54861773D01*
X2704785Y-54861777D01*
X2494706Y-54983067D01*
X2302263Y-55130733D01*
X2302256Y-55130739D01*
X2130739Y-55302256D01*
X2130733Y-55302263D01*
X1983067Y-55494706D01*
X1861777Y-55704785D01*
X1861773Y-55704794D01*
X1768947Y-55928895D01*
X1706161Y-56163214D01*
X1674500Y-56403711D01*
X525500Y-56403711D01*
X525500Y-54345943D01*
X68224500Y-54345943D01*
X68224500Y-54504056D01*
X68265423Y-54656783D01*
X68265426Y-54656790D01*
X68344475Y-54793709D01*
X68344479Y-54793714D01*
X68344480Y-54793716D01*
X68456284Y-54905520D01*
X68456286Y-54905521D01*
X68456290Y-54905524D01*
X68593209Y-54984573D01*
X68593216Y-54984577D01*
X68745943Y-55025500D01*
X68745945Y-55025500D01*
X68904055Y-55025500D01*
X68904057Y-55025500D01*
X69056784Y-54984577D01*
X69193716Y-54905520D01*
X69305520Y-54793716D01*
X69384577Y-54656784D01*
X69425500Y-54504057D01*
X69425500Y-54345943D01*
X69384577Y-54193216D01*
X69384573Y-54193209D01*
X69305524Y-54056290D01*
X69305518Y-54056282D01*
X69193717Y-53944481D01*
X69193709Y-53944475D01*
X69056790Y-53865426D01*
X69056786Y-53865424D01*
X69056784Y-53865423D01*
X68904057Y-53824500D01*
X68745943Y-53824500D01*
X68593216Y-53865423D01*
X68593209Y-53865426D01*
X68456290Y-53944475D01*
X68456282Y-53944481D01*
X68344481Y-54056282D01*
X68344475Y-54056290D01*
X68265426Y-54193209D01*
X68265423Y-54193216D01*
X68224500Y-54345943D01*
X525500Y-54345943D01*
X525500Y-51952525D01*
X55224500Y-51952525D01*
X55224500Y-52097475D01*
X55247817Y-52184493D01*
X55262017Y-52237488D01*
X55334488Y-52363011D01*
X55334490Y-52363013D01*
X55334491Y-52363015D01*
X55436985Y-52465509D01*
X55436986Y-52465510D01*
X55436988Y-52465511D01*
X55562511Y-52537982D01*
X55562512Y-52537982D01*
X55562515Y-52537984D01*
X55702525Y-52575500D01*
X55702528Y-52575500D01*
X55847472Y-52575500D01*
X55847475Y-52575500D01*
X55987485Y-52537984D01*
X56038499Y-52508530D01*
X56106398Y-52492057D01*
X56172426Y-52514909D01*
X56215617Y-52569829D01*
X56224500Y-52615917D01*
X56224500Y-52697475D01*
X56262016Y-52837485D01*
X56262017Y-52837488D01*
X56334488Y-52963011D01*
X56334490Y-52963013D01*
X56334491Y-52963015D01*
X56436985Y-53065509D01*
X56436986Y-53065510D01*
X56436988Y-53065511D01*
X56562511Y-53137982D01*
X56562512Y-53137982D01*
X56562515Y-53137984D01*
X56702525Y-53175500D01*
X56702528Y-53175500D01*
X56847472Y-53175500D01*
X56847475Y-53175500D01*
X56987485Y-53137984D01*
X57113015Y-53065509D01*
X57215509Y-52963015D01*
X57287984Y-52837485D01*
X57325500Y-52697475D01*
X57325500Y-52552525D01*
X57287984Y-52412515D01*
X57259406Y-52363017D01*
X57215511Y-52286988D01*
X57215506Y-52286982D01*
X57113017Y-52184493D01*
X57113011Y-52184488D01*
X56987488Y-52112017D01*
X56987489Y-52112017D01*
X56976006Y-52108940D01*
X56847475Y-52074500D01*
X56702525Y-52074500D01*
X56573993Y-52108940D01*
X56562511Y-52112017D01*
X56511500Y-52141469D01*
X56443600Y-52157942D01*
X56377573Y-52135089D01*
X56334382Y-52080168D01*
X56325500Y-52034082D01*
X56325500Y-51952527D01*
X56325500Y-51952525D01*
X56287984Y-51812515D01*
X56262926Y-51769114D01*
X56215511Y-51686988D01*
X56215506Y-51686982D01*
X56113017Y-51584493D01*
X56113011Y-51584488D01*
X55987488Y-51512017D01*
X55987489Y-51512017D01*
X55976006Y-51508940D01*
X55847475Y-51474500D01*
X55702525Y-51474500D01*
X55573993Y-51508940D01*
X55562511Y-51512017D01*
X55436988Y-51584488D01*
X55436982Y-51584493D01*
X55334493Y-51686982D01*
X55334488Y-51686988D01*
X55262017Y-51812511D01*
X55262016Y-51812515D01*
X55224500Y-51952525D01*
X525500Y-51952525D01*
X525500Y-50093995D01*
X15374498Y-50093995D01*
X15401417Y-50229322D01*
X15401420Y-50229332D01*
X15454220Y-50356804D01*
X15454227Y-50356817D01*
X15530884Y-50471541D01*
X15530887Y-50471545D01*
X15596661Y-50537319D01*
X15630146Y-50598642D01*
X15625162Y-50668334D01*
X15596661Y-50712681D01*
X15530887Y-50778454D01*
X15530884Y-50778458D01*
X15454227Y-50893182D01*
X15454220Y-50893195D01*
X15401420Y-51020667D01*
X15401417Y-51020677D01*
X15374499Y-51156004D01*
X15374499Y-51156007D01*
X15374499Y-51293993D01*
X15374499Y-51293995D01*
X15374498Y-51293995D01*
X15401417Y-51429322D01*
X15401420Y-51429332D01*
X15454220Y-51556804D01*
X15454227Y-51556817D01*
X15530884Y-51671541D01*
X15530887Y-51671545D01*
X15628453Y-51769111D01*
X15628457Y-51769114D01*
X15743181Y-51845771D01*
X15743194Y-51845778D01*
X15870666Y-51898578D01*
X15870671Y-51898580D01*
X15870675Y-51898580D01*
X15870676Y-51898581D01*
X16006003Y-51925500D01*
X16006006Y-51925500D01*
X16143994Y-51925500D01*
X16235040Y-51907389D01*
X16279327Y-51898580D01*
X16406810Y-51845775D01*
X16521541Y-51769114D01*
X16619113Y-51671542D01*
X16695774Y-51556811D01*
X16748579Y-51429328D01*
X16775499Y-51293993D01*
X16775499Y-51156007D01*
X16775499Y-51156004D01*
X16748580Y-51020677D01*
X16748579Y-51020676D01*
X16748579Y-51020672D01*
X16713308Y-50935520D01*
X16695777Y-50893195D01*
X16695770Y-50893182D01*
X16619113Y-50778458D01*
X16619110Y-50778454D01*
X16553337Y-50712681D01*
X16519852Y-50651358D01*
X16524836Y-50581666D01*
X16553337Y-50537319D01*
X16619110Y-50471545D01*
X16619113Y-50471542D01*
X16695774Y-50356811D01*
X16748579Y-50229328D01*
X16757481Y-50184573D01*
X16775499Y-50093995D01*
X35874499Y-50093995D01*
X35901418Y-50229322D01*
X35901421Y-50229332D01*
X35954221Y-50356804D01*
X35954228Y-50356817D01*
X36030885Y-50471541D01*
X36030888Y-50471545D01*
X36096662Y-50537319D01*
X36130147Y-50598642D01*
X36125163Y-50668334D01*
X36096662Y-50712681D01*
X36030888Y-50778454D01*
X36030885Y-50778458D01*
X35954228Y-50893182D01*
X35954221Y-50893195D01*
X35901421Y-51020667D01*
X35901418Y-51020677D01*
X35874500Y-51156004D01*
X35874500Y-51156007D01*
X35874500Y-51293993D01*
X35874500Y-51293995D01*
X35874499Y-51293995D01*
X35901418Y-51429322D01*
X35901421Y-51429332D01*
X35954221Y-51556804D01*
X35954228Y-51556817D01*
X36030885Y-51671541D01*
X36030888Y-51671545D01*
X36128454Y-51769111D01*
X36128458Y-51769114D01*
X36243182Y-51845771D01*
X36243195Y-51845778D01*
X36370667Y-51898578D01*
X36370672Y-51898580D01*
X36370676Y-51898580D01*
X36370677Y-51898581D01*
X36506004Y-51925500D01*
X36506007Y-51925500D01*
X36643995Y-51925500D01*
X36735041Y-51907389D01*
X36779328Y-51898580D01*
X36906811Y-51845775D01*
X36906816Y-51845771D01*
X36906819Y-51845770D01*
X36913514Y-51841297D01*
X36913515Y-51841296D01*
X36958734Y-51811080D01*
X37021542Y-51769114D01*
X37119114Y-51671542D01*
X37195775Y-51556811D01*
X37248580Y-51429328D01*
X37275500Y-51293993D01*
X37275500Y-51156007D01*
X37275500Y-51156004D01*
X37248581Y-51020677D01*
X37248580Y-51020676D01*
X37248580Y-51020672D01*
X37213309Y-50935520D01*
X37195778Y-50893195D01*
X37195771Y-50893182D01*
X37119114Y-50778458D01*
X37119111Y-50778454D01*
X37053338Y-50712681D01*
X37019853Y-50651358D01*
X37024837Y-50581666D01*
X37053338Y-50537319D01*
X37119111Y-50471545D01*
X37119114Y-50471542D01*
X37182991Y-50375943D01*
X63324500Y-50375943D01*
X63324500Y-50534057D01*
X63360480Y-50668334D01*
X63365423Y-50686783D01*
X63365426Y-50686790D01*
X63444475Y-50823709D01*
X63444479Y-50823714D01*
X63444480Y-50823716D01*
X63556284Y-50935520D01*
X63556286Y-50935521D01*
X63556290Y-50935524D01*
X63693209Y-51014573D01*
X63693216Y-51014577D01*
X63845943Y-51055500D01*
X63845945Y-51055500D01*
X64004055Y-51055500D01*
X64004057Y-51055500D01*
X64156784Y-51014577D01*
X64293716Y-50935520D01*
X64405520Y-50823716D01*
X64484577Y-50686784D01*
X64525500Y-50534057D01*
X64525500Y-50375943D01*
X64484577Y-50223216D01*
X64462269Y-50184577D01*
X64405524Y-50086290D01*
X64405518Y-50086282D01*
X64293717Y-49974481D01*
X64293709Y-49974475D01*
X64156790Y-49895426D01*
X64156786Y-49895424D01*
X64156784Y-49895423D01*
X64004057Y-49854500D01*
X63845943Y-49854500D01*
X63693216Y-49895423D01*
X63693209Y-49895426D01*
X63556290Y-49974475D01*
X63556282Y-49974481D01*
X63444481Y-50086282D01*
X63444475Y-50086290D01*
X63365426Y-50223209D01*
X63365423Y-50223216D01*
X63324500Y-50375943D01*
X37182991Y-50375943D01*
X37195775Y-50356811D01*
X37248580Y-50229328D01*
X37257482Y-50184573D01*
X37275500Y-50093995D01*
X37275500Y-49956004D01*
X37248581Y-49820677D01*
X37248580Y-49820676D01*
X37248580Y-49820672D01*
X37200277Y-49704057D01*
X37195778Y-49693195D01*
X37195771Y-49693182D01*
X37137990Y-49606707D01*
X37119114Y-49578458D01*
X37119111Y-49578454D01*
X37086600Y-49545943D01*
X53074500Y-49545943D01*
X53074500Y-49704057D01*
X53105746Y-49820667D01*
X53115423Y-49856783D01*
X53115426Y-49856790D01*
X53194475Y-49993709D01*
X53194479Y-49993714D01*
X53194480Y-49993716D01*
X53306284Y-50105520D01*
X53306286Y-50105521D01*
X53306290Y-50105524D01*
X53443209Y-50184573D01*
X53443216Y-50184577D01*
X53595943Y-50225500D01*
X53595945Y-50225500D01*
X53754055Y-50225500D01*
X53754057Y-50225500D01*
X53906784Y-50184577D01*
X54043716Y-50105520D01*
X54155520Y-49993716D01*
X54234577Y-49856784D01*
X54275500Y-49704057D01*
X54275500Y-49545943D01*
X54234577Y-49393216D01*
X54194904Y-49324500D01*
X54155524Y-49256290D01*
X54155518Y-49256282D01*
X54043717Y-49144481D01*
X54043709Y-49144475D01*
X53906790Y-49065426D01*
X53906786Y-49065424D01*
X53906784Y-49065423D01*
X53754057Y-49024500D01*
X53595943Y-49024500D01*
X53443216Y-49065423D01*
X53443209Y-49065426D01*
X53306290Y-49144475D01*
X53306282Y-49144481D01*
X53194481Y-49256282D01*
X53194475Y-49256290D01*
X53115426Y-49393209D01*
X53115423Y-49393216D01*
X53074500Y-49545943D01*
X37086600Y-49545943D01*
X37021545Y-49480888D01*
X37021541Y-49480885D01*
X36906817Y-49404228D01*
X36906804Y-49404221D01*
X36779332Y-49351421D01*
X36779322Y-49351418D01*
X36643995Y-49324500D01*
X36643993Y-49324500D01*
X36506007Y-49324500D01*
X36506005Y-49324500D01*
X36370677Y-49351418D01*
X36370667Y-49351421D01*
X36243195Y-49404221D01*
X36243182Y-49404228D01*
X36128458Y-49480885D01*
X36128454Y-49480888D01*
X36030888Y-49578454D01*
X36030885Y-49578458D01*
X35954228Y-49693182D01*
X35954221Y-49693195D01*
X35901421Y-49820667D01*
X35901418Y-49820677D01*
X35874500Y-49956004D01*
X35874500Y-49956007D01*
X35874500Y-50093993D01*
X35874500Y-50093995D01*
X35874499Y-50093995D01*
X16775499Y-50093995D01*
X16775499Y-49956004D01*
X16748580Y-49820677D01*
X16748579Y-49820676D01*
X16748579Y-49820672D01*
X16700276Y-49704057D01*
X16695777Y-49693195D01*
X16695770Y-49693182D01*
X16619113Y-49578458D01*
X16619110Y-49578454D01*
X16521544Y-49480888D01*
X16521540Y-49480885D01*
X16406816Y-49404228D01*
X16406803Y-49404221D01*
X16279331Y-49351421D01*
X16279321Y-49351418D01*
X16143994Y-49324500D01*
X16143992Y-49324500D01*
X16006006Y-49324500D01*
X16006004Y-49324500D01*
X15870676Y-49351418D01*
X15870666Y-49351421D01*
X15743194Y-49404221D01*
X15743181Y-49404228D01*
X15628457Y-49480885D01*
X15628453Y-49480888D01*
X15530887Y-49578454D01*
X15530884Y-49578458D01*
X15454227Y-49693182D01*
X15454220Y-49693195D01*
X15401420Y-49820667D01*
X15401417Y-49820677D01*
X15374499Y-49956004D01*
X15374499Y-49956007D01*
X15374499Y-50093993D01*
X15374499Y-50093995D01*
X15374498Y-50093995D01*
X525500Y-50093995D01*
X525500Y-45777525D01*
X25424500Y-45777525D01*
X25424500Y-45922475D01*
X25462016Y-46062485D01*
X25462017Y-46062488D01*
X25534488Y-46188011D01*
X25534490Y-46188013D01*
X25534491Y-46188015D01*
X25636985Y-46290509D01*
X25636986Y-46290510D01*
X25636988Y-46290511D01*
X25762511Y-46362982D01*
X25762512Y-46362982D01*
X25762515Y-46362984D01*
X25902525Y-46400500D01*
X25902528Y-46400500D01*
X26047472Y-46400500D01*
X26047475Y-46400500D01*
X26187485Y-46362984D01*
X26313015Y-46290509D01*
X26415509Y-46188015D01*
X26487984Y-46062485D01*
X26525500Y-45922475D01*
X26525500Y-45777525D01*
X45924500Y-45777525D01*
X45924500Y-45922475D01*
X45962016Y-46062485D01*
X45962017Y-46062488D01*
X46034488Y-46188011D01*
X46034490Y-46188013D01*
X46034491Y-46188015D01*
X46136985Y-46290509D01*
X46136986Y-46290510D01*
X46136988Y-46290511D01*
X46262511Y-46362982D01*
X46262512Y-46362982D01*
X46262515Y-46362984D01*
X46402525Y-46400500D01*
X46402528Y-46400500D01*
X46547472Y-46400500D01*
X46547475Y-46400500D01*
X46687485Y-46362984D01*
X46813015Y-46290509D01*
X46915509Y-46188015D01*
X46987984Y-46062485D01*
X47025500Y-45922475D01*
X47025500Y-45777525D01*
X46987984Y-45637515D01*
X46937687Y-45550399D01*
X46915511Y-45511988D01*
X46915506Y-45511982D01*
X46813017Y-45409493D01*
X46813011Y-45409488D01*
X46687488Y-45337017D01*
X46687489Y-45337017D01*
X46676006Y-45333940D01*
X46547475Y-45299500D01*
X46402525Y-45299500D01*
X46273993Y-45333940D01*
X46262511Y-45337017D01*
X46136988Y-45409488D01*
X46136982Y-45409493D01*
X46034493Y-45511982D01*
X46034488Y-45511988D01*
X45962017Y-45637511D01*
X45962016Y-45637515D01*
X45924500Y-45777525D01*
X26525500Y-45777525D01*
X26491058Y-45648989D01*
X26490858Y-45648198D01*
X26492132Y-45614105D01*
X26492945Y-45579975D01*
X26493435Y-45579250D01*
X26493468Y-45578377D01*
X26512961Y-45550399D01*
X26532107Y-45522112D01*
X26532911Y-45521767D01*
X26533411Y-45521051D01*
X26564939Y-45508052D01*
X26596336Y-45494608D01*
X26597370Y-45494681D01*
X26598006Y-45494420D01*
X26600785Y-45494926D01*
X26643145Y-45497955D01*
X26745943Y-45525500D01*
X26745946Y-45525500D01*
X26904055Y-45525500D01*
X26904057Y-45525500D01*
X27056784Y-45484577D01*
X27193716Y-45405520D01*
X27305520Y-45293716D01*
X27384577Y-45156784D01*
X27425500Y-45004057D01*
X27425500Y-44845943D01*
X27384577Y-44693216D01*
X27384573Y-44693209D01*
X27305524Y-44556290D01*
X27305518Y-44556282D01*
X27193717Y-44444481D01*
X27193709Y-44444475D01*
X27056790Y-44365426D01*
X27056786Y-44365424D01*
X27056784Y-44365423D01*
X26904057Y-44324500D01*
X26745943Y-44324500D01*
X26593216Y-44365423D01*
X26593209Y-44365426D01*
X26456290Y-44444475D01*
X26456282Y-44444481D01*
X26344481Y-44556282D01*
X26344475Y-44556290D01*
X26265426Y-44693209D01*
X26265423Y-44693216D01*
X26224500Y-44845943D01*
X26224500Y-45004056D01*
X26267527Y-45164635D01*
X26264491Y-45165448D01*
X26270368Y-45220188D01*
X26239084Y-45282663D01*
X26178990Y-45318306D01*
X26116249Y-45317928D01*
X26091489Y-45311293D01*
X26047475Y-45299500D01*
X25902525Y-45299500D01*
X25773993Y-45333940D01*
X25762511Y-45337017D01*
X25636988Y-45409488D01*
X25636982Y-45409493D01*
X25534493Y-45511982D01*
X25534488Y-45511988D01*
X25462017Y-45637511D01*
X25462016Y-45637515D01*
X25424500Y-45777525D01*
X525500Y-45777525D01*
X525500Y-43952525D01*
X65274500Y-43952525D01*
X65274500Y-44097475D01*
X65312016Y-44237485D01*
X65312017Y-44237488D01*
X65384488Y-44363011D01*
X65384490Y-44363013D01*
X65384491Y-44363015D01*
X65486985Y-44465509D01*
X65486986Y-44465510D01*
X65486988Y-44465511D01*
X65612511Y-44537982D01*
X65612512Y-44537982D01*
X65612515Y-44537984D01*
X65752525Y-44575500D01*
X65752528Y-44575500D01*
X65897472Y-44575500D01*
X65897475Y-44575500D01*
X66037485Y-44537984D01*
X66163015Y-44465509D01*
X66265509Y-44363015D01*
X66337984Y-44237485D01*
X66375500Y-44097475D01*
X66375500Y-43952525D01*
X66337984Y-43812515D01*
X66265509Y-43686985D01*
X66163015Y-43584491D01*
X66163013Y-43584490D01*
X66163011Y-43584488D01*
X66037488Y-43512017D01*
X66037489Y-43512017D01*
X66026006Y-43508940D01*
X65897475Y-43474500D01*
X65752525Y-43474500D01*
X65623993Y-43508940D01*
X65612511Y-43512017D01*
X65486988Y-43584488D01*
X65486982Y-43584493D01*
X65384493Y-43686982D01*
X65384488Y-43686988D01*
X65312017Y-43812511D01*
X65312016Y-43812515D01*
X65274500Y-43952525D01*
X525500Y-43952525D01*
X525500Y-42345943D01*
X15824499Y-42345943D01*
X15824499Y-42504056D01*
X15865422Y-42656783D01*
X15865425Y-42656790D01*
X15944474Y-42793709D01*
X15944478Y-42793714D01*
X15944479Y-42793716D01*
X16056283Y-42905520D01*
X16056285Y-42905521D01*
X16056289Y-42905524D01*
X16193208Y-42984573D01*
X16193215Y-42984577D01*
X16345942Y-43025500D01*
X16345944Y-43025500D01*
X16504054Y-43025500D01*
X16504056Y-43025500D01*
X16656783Y-42984577D01*
X16793715Y-42905520D01*
X16905519Y-42793716D01*
X16984576Y-42656784D01*
X17025499Y-42504057D01*
X17025499Y-42345943D01*
X36324500Y-42345943D01*
X36324500Y-42504056D01*
X36365423Y-42656783D01*
X36365426Y-42656790D01*
X36444475Y-42793709D01*
X36444479Y-42793714D01*
X36444480Y-42793716D01*
X36556284Y-42905520D01*
X36556286Y-42905521D01*
X36556290Y-42905524D01*
X36693209Y-42984573D01*
X36693216Y-42984577D01*
X36845943Y-43025500D01*
X36845945Y-43025500D01*
X37004055Y-43025500D01*
X37004057Y-43025500D01*
X37156784Y-42984577D01*
X37293716Y-42905520D01*
X37405520Y-42793716D01*
X37484577Y-42656784D01*
X37525500Y-42504057D01*
X37525500Y-42345943D01*
X37484577Y-42193216D01*
X37484573Y-42193209D01*
X37405524Y-42056290D01*
X37405518Y-42056282D01*
X37293717Y-41944481D01*
X37293709Y-41944475D01*
X37156790Y-41865426D01*
X37156786Y-41865424D01*
X37156784Y-41865423D01*
X37004057Y-41824500D01*
X36845943Y-41824500D01*
X36693216Y-41865423D01*
X36693209Y-41865426D01*
X36556290Y-41944475D01*
X36556282Y-41944481D01*
X36444481Y-42056282D01*
X36444475Y-42056290D01*
X36365426Y-42193209D01*
X36365423Y-42193216D01*
X36324500Y-42345943D01*
X17025499Y-42345943D01*
X16984576Y-42193216D01*
X16984572Y-42193209D01*
X16905523Y-42056290D01*
X16905517Y-42056282D01*
X16793716Y-41944481D01*
X16793708Y-41944475D01*
X16656789Y-41865426D01*
X16656785Y-41865424D01*
X16656783Y-41865423D01*
X16504056Y-41824500D01*
X16345942Y-41824500D01*
X16193215Y-41865423D01*
X16193208Y-41865426D01*
X16056289Y-41944475D01*
X16056281Y-41944481D01*
X15944480Y-42056282D01*
X15944474Y-42056290D01*
X15865425Y-42193209D01*
X15865422Y-42193216D01*
X15824499Y-42345943D01*
X525500Y-42345943D01*
X525500Y-41052525D01*
X8174500Y-41052525D01*
X8174500Y-41197475D01*
X8212016Y-41337485D01*
X8212017Y-41337488D01*
X8284488Y-41463011D01*
X8284490Y-41463013D01*
X8284491Y-41463015D01*
X8386985Y-41565509D01*
X8386986Y-41565510D01*
X8386988Y-41565511D01*
X8512511Y-41637982D01*
X8512512Y-41637982D01*
X8512515Y-41637984D01*
X8652525Y-41675500D01*
X8652528Y-41675500D01*
X8797472Y-41675500D01*
X8797475Y-41675500D01*
X8937485Y-41637984D01*
X9063015Y-41565509D01*
X9165509Y-41463015D01*
X9237984Y-41337485D01*
X9275500Y-41197475D01*
X9275500Y-41052525D01*
X28674500Y-41052525D01*
X28674500Y-41197475D01*
X28712016Y-41337485D01*
X28712017Y-41337488D01*
X28784488Y-41463011D01*
X28784490Y-41463013D01*
X28784491Y-41463015D01*
X28886985Y-41565509D01*
X28886986Y-41565510D01*
X28886988Y-41565511D01*
X29012511Y-41637982D01*
X29012512Y-41637982D01*
X29012515Y-41637984D01*
X29152525Y-41675500D01*
X29152528Y-41675500D01*
X29297472Y-41675500D01*
X29297475Y-41675500D01*
X29437485Y-41637984D01*
X29563015Y-41565509D01*
X29665509Y-41463015D01*
X29737984Y-41337485D01*
X29775500Y-41197475D01*
X29775500Y-41052525D01*
X29737984Y-40912515D01*
X29665509Y-40786985D01*
X29563015Y-40684491D01*
X29563013Y-40684490D01*
X29563011Y-40684488D01*
X29437488Y-40612017D01*
X29437489Y-40612017D01*
X29426006Y-40608940D01*
X29297475Y-40574500D01*
X29152525Y-40574500D01*
X29023993Y-40608940D01*
X29012511Y-40612017D01*
X28886988Y-40684488D01*
X28886982Y-40684493D01*
X28784493Y-40786982D01*
X28784488Y-40786988D01*
X28712017Y-40912511D01*
X28712016Y-40912515D01*
X28674500Y-41052525D01*
X9275500Y-41052525D01*
X9237984Y-40912515D01*
X9165509Y-40786985D01*
X9063015Y-40684491D01*
X9063013Y-40684490D01*
X9063011Y-40684488D01*
X8937488Y-40612017D01*
X8937489Y-40612017D01*
X8926006Y-40608940D01*
X8797475Y-40574500D01*
X8652525Y-40574500D01*
X8523993Y-40608940D01*
X8512511Y-40612017D01*
X8386988Y-40684488D01*
X8386982Y-40684493D01*
X8284493Y-40786982D01*
X8284488Y-40786988D01*
X8212017Y-40912511D01*
X8212016Y-40912515D01*
X8174500Y-41052525D01*
X525500Y-41052525D01*
X525500Y-38545943D01*
X53724500Y-38545943D01*
X53724500Y-38704056D01*
X53765423Y-38856783D01*
X53765426Y-38856790D01*
X53844475Y-38993709D01*
X53844479Y-38993714D01*
X53844480Y-38993716D01*
X53956284Y-39105520D01*
X53956286Y-39105521D01*
X53956290Y-39105524D01*
X54093209Y-39184573D01*
X54093216Y-39184577D01*
X54245943Y-39225500D01*
X54245945Y-39225500D01*
X54404055Y-39225500D01*
X54404057Y-39225500D01*
X54556784Y-39184577D01*
X54693716Y-39105520D01*
X54805520Y-38993716D01*
X54884577Y-38856784D01*
X54925500Y-38704057D01*
X54925500Y-38545943D01*
X54884577Y-38393216D01*
X54884573Y-38393209D01*
X54805524Y-38256290D01*
X54805518Y-38256282D01*
X54693717Y-38144481D01*
X54693709Y-38144475D01*
X54556790Y-38065426D01*
X54556786Y-38065424D01*
X54556784Y-38065423D01*
X54404057Y-38024500D01*
X54245943Y-38024500D01*
X54093216Y-38065423D01*
X54093209Y-38065426D01*
X53956290Y-38144475D01*
X53956282Y-38144481D01*
X53844481Y-38256282D01*
X53844475Y-38256290D01*
X53765426Y-38393209D01*
X53765423Y-38393216D01*
X53724500Y-38545943D01*
X525500Y-38545943D01*
X525500Y-36095943D01*
X68229500Y-36095943D01*
X68229500Y-36254056D01*
X68270423Y-36406783D01*
X68270426Y-36406790D01*
X68349475Y-36543709D01*
X68349479Y-36543714D01*
X68349480Y-36543716D01*
X68461284Y-36655520D01*
X68461286Y-36655521D01*
X68461290Y-36655524D01*
X68598209Y-36734573D01*
X68598216Y-36734577D01*
X68750943Y-36775500D01*
X68750945Y-36775500D01*
X68909055Y-36775500D01*
X68909057Y-36775500D01*
X69061784Y-36734577D01*
X69198716Y-36655520D01*
X69310520Y-36543716D01*
X69389577Y-36406784D01*
X69430500Y-36254057D01*
X69430500Y-36095943D01*
X69389577Y-35943216D01*
X69389573Y-35943209D01*
X69310524Y-35806290D01*
X69310518Y-35806282D01*
X69198717Y-35694481D01*
X69198709Y-35694475D01*
X69061790Y-35615426D01*
X69061786Y-35615424D01*
X69061784Y-35615423D01*
X68909057Y-35574500D01*
X68750943Y-35574500D01*
X68598216Y-35615423D01*
X68598209Y-35615426D01*
X68461290Y-35694475D01*
X68461282Y-35694481D01*
X68349481Y-35806282D01*
X68349475Y-35806290D01*
X68270426Y-35943209D01*
X68270423Y-35943216D01*
X68229500Y-36095943D01*
X525500Y-36095943D01*
X525500Y-34545943D01*
X38224500Y-34545943D01*
X38224500Y-34704056D01*
X38265423Y-34856783D01*
X38265426Y-34856790D01*
X38344475Y-34993709D01*
X38344479Y-34993714D01*
X38344480Y-34993716D01*
X38456284Y-35105520D01*
X38456286Y-35105521D01*
X38456290Y-35105524D01*
X38593209Y-35184573D01*
X38593216Y-35184577D01*
X38745943Y-35225500D01*
X38745945Y-35225500D01*
X38904055Y-35225500D01*
X38904057Y-35225500D01*
X39056784Y-35184577D01*
X39193716Y-35105520D01*
X39305520Y-34993716D01*
X39384577Y-34856784D01*
X39425500Y-34704057D01*
X39425500Y-34545943D01*
X39384577Y-34393216D01*
X39384573Y-34393209D01*
X39366338Y-34361623D01*
X39366329Y-34361609D01*
X39305520Y-34256284D01*
X39193716Y-34144480D01*
X39193714Y-34144479D01*
X39193709Y-34144475D01*
X39056790Y-34065426D01*
X39056786Y-34065424D01*
X39056784Y-34065423D01*
X38904057Y-34024500D01*
X38745943Y-34024500D01*
X38593216Y-34065423D01*
X38593209Y-34065426D01*
X38456290Y-34144475D01*
X38456282Y-34144481D01*
X38344481Y-34256282D01*
X38344475Y-34256290D01*
X38265426Y-34393209D01*
X38265423Y-34393216D01*
X38224500Y-34545943D01*
X525500Y-34545943D01*
X525500Y-33745943D01*
X39424500Y-33745943D01*
X39424500Y-33904057D01*
X39465423Y-34056784D01*
X39544480Y-34193716D01*
X39656284Y-34305520D01*
X39656286Y-34305521D01*
X39656290Y-34305524D01*
X39753458Y-34361623D01*
X39793216Y-34384577D01*
X39945943Y-34425500D01*
X39945945Y-34425500D01*
X40104055Y-34425500D01*
X40104057Y-34425500D01*
X40256784Y-34384577D01*
X40393716Y-34305520D01*
X40505520Y-34193716D01*
X40584577Y-34056784D01*
X40625500Y-33904057D01*
X40625500Y-33745943D01*
X40584577Y-33593216D01*
X40584573Y-33593209D01*
X40505524Y-33456290D01*
X40505518Y-33456282D01*
X40393717Y-33344481D01*
X40393709Y-33344475D01*
X40256790Y-33265426D01*
X40256786Y-33265424D01*
X40256784Y-33265423D01*
X40104057Y-33224500D01*
X39945943Y-33224500D01*
X39793216Y-33265423D01*
X39793209Y-33265426D01*
X39656290Y-33344475D01*
X39656282Y-33344481D01*
X39544481Y-33456282D01*
X39544475Y-33456290D01*
X39465426Y-33593209D01*
X39465423Y-33593216D01*
X39424500Y-33745943D01*
X525500Y-33745943D01*
X525500Y-32802525D01*
X33274500Y-32802525D01*
X33274500Y-32947475D01*
X33286891Y-32993717D01*
X33312017Y-33087488D01*
X33384488Y-33213011D01*
X33384490Y-33213013D01*
X33384491Y-33213015D01*
X33486985Y-33315509D01*
X33486986Y-33315510D01*
X33486988Y-33315511D01*
X33612511Y-33387982D01*
X33612512Y-33387982D01*
X33612515Y-33387984D01*
X33752525Y-33425500D01*
X33752528Y-33425500D01*
X33897472Y-33425500D01*
X33897475Y-33425500D01*
X34037485Y-33387984D01*
X34163002Y-33315516D01*
X34230899Y-33299044D01*
X34286996Y-33315515D01*
X34412515Y-33387984D01*
X34552525Y-33425500D01*
X34552528Y-33425500D01*
X34697472Y-33425500D01*
X34697475Y-33425500D01*
X34837485Y-33387984D01*
X34963015Y-33315509D01*
X35065509Y-33213015D01*
X35137984Y-33087485D01*
X35175500Y-32947475D01*
X35175500Y-32802525D01*
X35137984Y-32662515D01*
X35070681Y-32545943D01*
X58049500Y-32545943D01*
X58049500Y-32704057D01*
X58075885Y-32802525D01*
X58090423Y-32856783D01*
X58090426Y-32856790D01*
X58169475Y-32993709D01*
X58169479Y-32993714D01*
X58169480Y-32993716D01*
X58281284Y-33105520D01*
X58281286Y-33105521D01*
X58281290Y-33105524D01*
X58418209Y-33184573D01*
X58418216Y-33184577D01*
X58570943Y-33225500D01*
X58570945Y-33225500D01*
X58729055Y-33225500D01*
X58729057Y-33225500D01*
X58881784Y-33184577D01*
X59018716Y-33105520D01*
X59130520Y-32993716D01*
X59209577Y-32856784D01*
X59250500Y-32704057D01*
X59250500Y-32545943D01*
X59209577Y-32393216D01*
X59209573Y-32393209D01*
X59130524Y-32256290D01*
X59130518Y-32256282D01*
X59018717Y-32144481D01*
X59018709Y-32144475D01*
X58881790Y-32065426D01*
X58881786Y-32065424D01*
X58881784Y-32065423D01*
X58729057Y-32024500D01*
X58570943Y-32024500D01*
X58418216Y-32065423D01*
X58418209Y-32065426D01*
X58281290Y-32144475D01*
X58281282Y-32144481D01*
X58169481Y-32256282D01*
X58169475Y-32256290D01*
X58090426Y-32393209D01*
X58090423Y-32393216D01*
X58049500Y-32545943D01*
X35070681Y-32545943D01*
X35065509Y-32536985D01*
X34963015Y-32434491D01*
X34963013Y-32434490D01*
X34963011Y-32434488D01*
X34837488Y-32362017D01*
X34837489Y-32362017D01*
X34826006Y-32358940D01*
X34697475Y-32324500D01*
X34552525Y-32324500D01*
X34423993Y-32358940D01*
X34412511Y-32362017D01*
X34287000Y-32434482D01*
X34219100Y-32450955D01*
X34163000Y-32434482D01*
X34037488Y-32362017D01*
X34037489Y-32362017D01*
X34026006Y-32358940D01*
X33897475Y-32324500D01*
X33752525Y-32324500D01*
X33623993Y-32358940D01*
X33612511Y-32362017D01*
X33486988Y-32434488D01*
X33486982Y-32434493D01*
X33384493Y-32536982D01*
X33384488Y-32536988D01*
X33312017Y-32662511D01*
X33312016Y-32662515D01*
X33274500Y-32802525D01*
X525500Y-32802525D01*
X525500Y-31093995D01*
X67324499Y-31093995D01*
X67351418Y-31229322D01*
X67351421Y-31229332D01*
X67404221Y-31356804D01*
X67404228Y-31356817D01*
X67480885Y-31471541D01*
X67480888Y-31471545D01*
X67578454Y-31569111D01*
X67578458Y-31569114D01*
X67693182Y-31645771D01*
X67693195Y-31645778D01*
X67820667Y-31698578D01*
X67820672Y-31698580D01*
X67820676Y-31698580D01*
X67820677Y-31698581D01*
X67956004Y-31725500D01*
X67956007Y-31725500D01*
X68093995Y-31725500D01*
X68185041Y-31707389D01*
X68229328Y-31698580D01*
X68356811Y-31645775D01*
X68471542Y-31569114D01*
X68569114Y-31471542D01*
X68571895Y-31467380D01*
X68625505Y-31422572D01*
X68694829Y-31413862D01*
X68757858Y-31444013D01*
X68778105Y-31467380D01*
X68780885Y-31471541D01*
X68780888Y-31471545D01*
X68878454Y-31569111D01*
X68878458Y-31569114D01*
X68993182Y-31645771D01*
X68993195Y-31645778D01*
X69120667Y-31698578D01*
X69120672Y-31698580D01*
X69120676Y-31698580D01*
X69120677Y-31698581D01*
X69256004Y-31725500D01*
X69256007Y-31725500D01*
X69393995Y-31725500D01*
X69485041Y-31707389D01*
X69529328Y-31698580D01*
X69656811Y-31645775D01*
X69771542Y-31569114D01*
X69869114Y-31471542D01*
X69871895Y-31467380D01*
X69925505Y-31422572D01*
X69994829Y-31413862D01*
X70057858Y-31444013D01*
X70078105Y-31467380D01*
X70080885Y-31471541D01*
X70080888Y-31471545D01*
X70178454Y-31569111D01*
X70178458Y-31569114D01*
X70293182Y-31645771D01*
X70293195Y-31645778D01*
X70420667Y-31698578D01*
X70420672Y-31698580D01*
X70420676Y-31698580D01*
X70420677Y-31698581D01*
X70556004Y-31725500D01*
X70556007Y-31725500D01*
X70693995Y-31725500D01*
X70785041Y-31707389D01*
X70829328Y-31698580D01*
X70956811Y-31645775D01*
X71071542Y-31569114D01*
X71169114Y-31471542D01*
X71245775Y-31356811D01*
X71298580Y-31229328D01*
X71325500Y-31093993D01*
X71325500Y-30956007D01*
X71325500Y-30956004D01*
X71298581Y-30820677D01*
X71298580Y-30820676D01*
X71298580Y-30820672D01*
X71275000Y-30763744D01*
X71245778Y-30693195D01*
X71245771Y-30693182D01*
X71169114Y-30578458D01*
X71169111Y-30578454D01*
X71071545Y-30480888D01*
X71071541Y-30480885D01*
X70956817Y-30404228D01*
X70956804Y-30404221D01*
X70829332Y-30351421D01*
X70829322Y-30351418D01*
X70693995Y-30324500D01*
X70693993Y-30324500D01*
X70556007Y-30324500D01*
X70556005Y-30324500D01*
X70420677Y-30351418D01*
X70420667Y-30351421D01*
X70293195Y-30404221D01*
X70293182Y-30404228D01*
X70178458Y-30480885D01*
X70178454Y-30480888D01*
X70080888Y-30578454D01*
X70080885Y-30578458D01*
X70078102Y-30582624D01*
X70024490Y-30627429D01*
X69955165Y-30636136D01*
X69892137Y-30605981D01*
X69871898Y-30582624D01*
X69869114Y-30578458D01*
X69869111Y-30578454D01*
X69771545Y-30480888D01*
X69771541Y-30480885D01*
X69656817Y-30404228D01*
X69656804Y-30404221D01*
X69529332Y-30351421D01*
X69529322Y-30351418D01*
X69393995Y-30324500D01*
X69393993Y-30324500D01*
X69256007Y-30324500D01*
X69256005Y-30324500D01*
X69120677Y-30351418D01*
X69120667Y-30351421D01*
X68993195Y-30404221D01*
X68993182Y-30404228D01*
X68878458Y-30480885D01*
X68878454Y-30480888D01*
X68780888Y-30578454D01*
X68780885Y-30578458D01*
X68778102Y-30582624D01*
X68724490Y-30627429D01*
X68655165Y-30636136D01*
X68592137Y-30605981D01*
X68571898Y-30582624D01*
X68569114Y-30578458D01*
X68569111Y-30578454D01*
X68471545Y-30480888D01*
X68471541Y-30480885D01*
X68356817Y-30404228D01*
X68356804Y-30404221D01*
X68229332Y-30351421D01*
X68229322Y-30351418D01*
X68093995Y-30324500D01*
X68093993Y-30324500D01*
X67956007Y-30324500D01*
X67956005Y-30324500D01*
X67820677Y-30351418D01*
X67820667Y-30351421D01*
X67693195Y-30404221D01*
X67693182Y-30404228D01*
X67578458Y-30480885D01*
X67578454Y-30480888D01*
X67480888Y-30578454D01*
X67480885Y-30578458D01*
X67404228Y-30693182D01*
X67404221Y-30693195D01*
X67351421Y-30820667D01*
X67351418Y-30820677D01*
X67324500Y-30956004D01*
X67324500Y-30956007D01*
X67324500Y-31093993D01*
X67324500Y-31093995D01*
X67324499Y-31093995D01*
X525500Y-31093995D01*
X525500Y-26979038D01*
X3624500Y-26979038D01*
X3624500Y-27230961D01*
X3663910Y-27479785D01*
X3741760Y-27719383D01*
X3856132Y-27943848D01*
X4004201Y-28147649D01*
X4004205Y-28147654D01*
X4182345Y-28325794D01*
X4182350Y-28325798D01*
X4360117Y-28454952D01*
X4386155Y-28473870D01*
X4529184Y-28546747D01*
X4610616Y-28588239D01*
X4610618Y-28588239D01*
X4610621Y-28588241D01*
X4850215Y-28666090D01*
X5099038Y-28705500D01*
X5099039Y-28705500D01*
X5350961Y-28705500D01*
X5350962Y-28705500D01*
X5599785Y-28666090D01*
X5839379Y-28588241D01*
X6063845Y-28473870D01*
X6267656Y-28325793D01*
X6445793Y-28147656D01*
X6537855Y-28020943D01*
X40924500Y-28020943D01*
X40924500Y-28179056D01*
X40965423Y-28331783D01*
X40965426Y-28331790D01*
X41044475Y-28468709D01*
X41044479Y-28468714D01*
X41044480Y-28468716D01*
X41156284Y-28580520D01*
X41156286Y-28580521D01*
X41156290Y-28580524D01*
X41293209Y-28659573D01*
X41293216Y-28659577D01*
X41445943Y-28700500D01*
X41445945Y-28700500D01*
X41604055Y-28700500D01*
X41604057Y-28700500D01*
X41756784Y-28659577D01*
X41893716Y-28580520D01*
X42005520Y-28468716D01*
X42084577Y-28331784D01*
X42125500Y-28179057D01*
X42125500Y-28020943D01*
X42084577Y-27868216D01*
X42084573Y-27868209D01*
X42005524Y-27731290D01*
X42005518Y-27731282D01*
X41893717Y-27619481D01*
X41893709Y-27619475D01*
X41756790Y-27540426D01*
X41756786Y-27540424D01*
X41756784Y-27540423D01*
X41604057Y-27499500D01*
X41445943Y-27499500D01*
X41293216Y-27540423D01*
X41293209Y-27540426D01*
X41156290Y-27619475D01*
X41156282Y-27619481D01*
X41044481Y-27731282D01*
X41044475Y-27731290D01*
X40965426Y-27868209D01*
X40965423Y-27868216D01*
X40924500Y-28020943D01*
X6537855Y-28020943D01*
X6593870Y-27943845D01*
X6708241Y-27719379D01*
X6786090Y-27479785D01*
X6825500Y-27230962D01*
X6825500Y-26979038D01*
X6786090Y-26730215D01*
X6708241Y-26490621D01*
X6708239Y-26490618D01*
X6708239Y-26490616D01*
X6666747Y-26409184D01*
X6593870Y-26266155D01*
X6574952Y-26240117D01*
X6445798Y-26062350D01*
X6445794Y-26062345D01*
X6267654Y-25884205D01*
X6267649Y-25884201D01*
X6063848Y-25736132D01*
X6063847Y-25736131D01*
X6063845Y-25736130D01*
X5993747Y-25700413D01*
X5839383Y-25621760D01*
X5599785Y-25543910D01*
X5350962Y-25504500D01*
X5099038Y-25504500D01*
X4974626Y-25524205D01*
X4850214Y-25543910D01*
X4610616Y-25621760D01*
X4386151Y-25736132D01*
X4182350Y-25884201D01*
X4182345Y-25884205D01*
X4004205Y-26062345D01*
X4004201Y-26062350D01*
X3856132Y-26266151D01*
X3741760Y-26490616D01*
X3663910Y-26730214D01*
X3624500Y-26979038D01*
X525500Y-26979038D01*
X525500Y-20901048D01*
X3324500Y-20901048D01*
X3324500Y-23148951D01*
X3327317Y-23190499D01*
X3371963Y-23370021D01*
X3371964Y-23370023D01*
X3454156Y-23535750D01*
X3570059Y-23679940D01*
X3652173Y-23745945D01*
X3714247Y-23795842D01*
X3879979Y-23878037D01*
X4059501Y-23922682D01*
X4059502Y-23922682D01*
X4059505Y-23922683D01*
X4101046Y-23925500D01*
X4101048Y-23925500D01*
X6348952Y-23925500D01*
X6348954Y-23925500D01*
X6390495Y-23922683D01*
X6570021Y-23878037D01*
X6735753Y-23795842D01*
X6879940Y-23679940D01*
X6995842Y-23535753D01*
X7078037Y-23370021D01*
X7122683Y-23190495D01*
X7125500Y-23148954D01*
X7125500Y-22845943D01*
X58049500Y-22845943D01*
X58049500Y-23004056D01*
X58090423Y-23156783D01*
X58090426Y-23156790D01*
X58169475Y-23293709D01*
X58169479Y-23293714D01*
X58169480Y-23293716D01*
X58281284Y-23405520D01*
X58281286Y-23405521D01*
X58281290Y-23405524D01*
X58418209Y-23484573D01*
X58418216Y-23484577D01*
X58570943Y-23525500D01*
X58570945Y-23525500D01*
X58729055Y-23525500D01*
X58729057Y-23525500D01*
X58881784Y-23484577D01*
X59018716Y-23405520D01*
X59130520Y-23293716D01*
X59209577Y-23156784D01*
X59250500Y-23004057D01*
X59250500Y-22845943D01*
X59209577Y-22693216D01*
X59209573Y-22693209D01*
X59130524Y-22556290D01*
X59130518Y-22556282D01*
X59018717Y-22444481D01*
X59018709Y-22444475D01*
X58881790Y-22365426D01*
X58881786Y-22365424D01*
X58881784Y-22365423D01*
X58729057Y-22324500D01*
X58570943Y-22324500D01*
X58418216Y-22365423D01*
X58418209Y-22365426D01*
X58281290Y-22444475D01*
X58281282Y-22444481D01*
X58169481Y-22556282D01*
X58169475Y-22556290D01*
X58090426Y-22693209D01*
X58090423Y-22693216D01*
X58049500Y-22845943D01*
X7125500Y-22845943D01*
X7125500Y-20901046D01*
X7122683Y-20859505D01*
X7078037Y-20679979D01*
X6995842Y-20514247D01*
X6920623Y-20420671D01*
X6879940Y-20370059D01*
X6745627Y-20262095D01*
X6735753Y-20254158D01*
X6735751Y-20254157D01*
X6735750Y-20254156D01*
X6570023Y-20171964D01*
X6570021Y-20171963D01*
X6390497Y-20127317D01*
X6390501Y-20127317D01*
X6359339Y-20125204D01*
X6348954Y-20124500D01*
X4101046Y-20124500D01*
X4089177Y-20125304D01*
X4059500Y-20127317D01*
X3879978Y-20171963D01*
X3879976Y-20171964D01*
X3714249Y-20254156D01*
X3570059Y-20370059D01*
X3454156Y-20514249D01*
X3371964Y-20679976D01*
X3371963Y-20679978D01*
X3327317Y-20859500D01*
X3324500Y-20901048D01*
X525500Y-20901048D01*
X525500Y-19493995D01*
X13524499Y-19493995D01*
X13551418Y-19629322D01*
X13551421Y-19629332D01*
X13604221Y-19756804D01*
X13604228Y-19756817D01*
X13680885Y-19871541D01*
X13680888Y-19871545D01*
X13746661Y-19937318D01*
X13780146Y-19998641D01*
X13775162Y-20068333D01*
X13746662Y-20112680D01*
X13680885Y-20178457D01*
X13604228Y-20293181D01*
X13604221Y-20293194D01*
X13551421Y-20420666D01*
X13551418Y-20420676D01*
X13524500Y-20556003D01*
X13524500Y-20556006D01*
X13524500Y-20693992D01*
X13524500Y-20693994D01*
X13524499Y-20693994D01*
X13551418Y-20829321D01*
X13551421Y-20829331D01*
X13604221Y-20956803D01*
X13604228Y-20956816D01*
X13680885Y-21071540D01*
X13680888Y-21071544D01*
X13778454Y-21169110D01*
X13778458Y-21169113D01*
X13893182Y-21245770D01*
X13893195Y-21245777D01*
X14020667Y-21298577D01*
X14020672Y-21298579D01*
X14020676Y-21298579D01*
X14020677Y-21298580D01*
X14156004Y-21325499D01*
X14156007Y-21325499D01*
X14293995Y-21325499D01*
X14385041Y-21307388D01*
X14429328Y-21298579D01*
X14527924Y-21257739D01*
X14556804Y-21245777D01*
X14556804Y-21245776D01*
X14556811Y-21245774D01*
X14671542Y-21169113D01*
X14737319Y-21103335D01*
X14798640Y-21069852D01*
X14868332Y-21074836D01*
X14912680Y-21103337D01*
X14978453Y-21169110D01*
X14978457Y-21169113D01*
X15093181Y-21245770D01*
X15093194Y-21245777D01*
X15220666Y-21298577D01*
X15220671Y-21298579D01*
X15220675Y-21298579D01*
X15220676Y-21298580D01*
X15356003Y-21325499D01*
X15356006Y-21325499D01*
X15493994Y-21325499D01*
X15585040Y-21307388D01*
X15629327Y-21298579D01*
X15727923Y-21257739D01*
X15756803Y-21245777D01*
X15756803Y-21245776D01*
X15756810Y-21245774D01*
X15871541Y-21169113D01*
X15871544Y-21169110D01*
X15937318Y-21103337D01*
X15998641Y-21069852D01*
X16068333Y-21074836D01*
X16112680Y-21103337D01*
X16178453Y-21169110D01*
X16178457Y-21169113D01*
X16293181Y-21245770D01*
X16293194Y-21245777D01*
X16420666Y-21298577D01*
X16420671Y-21298579D01*
X16420675Y-21298579D01*
X16420676Y-21298580D01*
X16556003Y-21325499D01*
X16556006Y-21325499D01*
X16693994Y-21325499D01*
X16785040Y-21307388D01*
X16829327Y-21298579D01*
X16927923Y-21257739D01*
X16956803Y-21245777D01*
X16956803Y-21245776D01*
X16956810Y-21245774D01*
X17071541Y-21169113D01*
X17071544Y-21169110D01*
X17137318Y-21103337D01*
X17198641Y-21069852D01*
X17268333Y-21074836D01*
X17312680Y-21103337D01*
X17378453Y-21169110D01*
X17378457Y-21169113D01*
X17493181Y-21245770D01*
X17493194Y-21245777D01*
X17620666Y-21298577D01*
X17620671Y-21298579D01*
X17620675Y-21298579D01*
X17620676Y-21298580D01*
X17756003Y-21325499D01*
X17756006Y-21325499D01*
X17893994Y-21325499D01*
X17985040Y-21307388D01*
X18029327Y-21298579D01*
X18127923Y-21257739D01*
X18156803Y-21245777D01*
X18156803Y-21245776D01*
X18156810Y-21245774D01*
X18271541Y-21169113D01*
X18369113Y-21071541D01*
X18445774Y-20956810D01*
X18498579Y-20829327D01*
X18516934Y-20737051D01*
X18525499Y-20693995D01*
X30324499Y-20693995D01*
X30351418Y-20829322D01*
X30351421Y-20829332D01*
X30404221Y-20956804D01*
X30404228Y-20956817D01*
X30480885Y-21071541D01*
X30480888Y-21071545D01*
X30578454Y-21169111D01*
X30578458Y-21169114D01*
X30693182Y-21245771D01*
X30693195Y-21245778D01*
X30820665Y-21298577D01*
X30820672Y-21298580D01*
X30820676Y-21298580D01*
X30820677Y-21298581D01*
X30956004Y-21325500D01*
X30956007Y-21325500D01*
X31093995Y-21325500D01*
X31185041Y-21307389D01*
X31229328Y-21298580D01*
X31356811Y-21245775D01*
X31471542Y-21169114D01*
X31471546Y-21169110D01*
X31537319Y-21103338D01*
X31598642Y-21069853D01*
X31668334Y-21074837D01*
X31712681Y-21103338D01*
X31778454Y-21169111D01*
X31778458Y-21169114D01*
X31893182Y-21245771D01*
X31893195Y-21245778D01*
X32020665Y-21298577D01*
X32020672Y-21298580D01*
X32020676Y-21298580D01*
X32020677Y-21298581D01*
X32156004Y-21325500D01*
X32156007Y-21325500D01*
X32293995Y-21325500D01*
X32385041Y-21307389D01*
X32429328Y-21298580D01*
X32556811Y-21245775D01*
X32671542Y-21169114D01*
X32671546Y-21169110D01*
X32737319Y-21103338D01*
X32798642Y-21069853D01*
X32868334Y-21074837D01*
X32912681Y-21103338D01*
X32978454Y-21169111D01*
X32978458Y-21169114D01*
X33093182Y-21245771D01*
X33093195Y-21245778D01*
X33220665Y-21298577D01*
X33220672Y-21298580D01*
X33220676Y-21298580D01*
X33220677Y-21298581D01*
X33356004Y-21325500D01*
X33356007Y-21325500D01*
X33493995Y-21325500D01*
X33585041Y-21307389D01*
X33629328Y-21298580D01*
X33756811Y-21245775D01*
X33871542Y-21169114D01*
X33871546Y-21169110D01*
X33937319Y-21103338D01*
X33998642Y-21069853D01*
X34068334Y-21074837D01*
X34112681Y-21103338D01*
X34178454Y-21169111D01*
X34178458Y-21169114D01*
X34293182Y-21245771D01*
X34293195Y-21245778D01*
X34420665Y-21298577D01*
X34420672Y-21298580D01*
X34420676Y-21298580D01*
X34420677Y-21298581D01*
X34556004Y-21325500D01*
X34556007Y-21325500D01*
X34693995Y-21325500D01*
X34785041Y-21307389D01*
X34829328Y-21298580D01*
X34956811Y-21245775D01*
X35071542Y-21169114D01*
X35169114Y-21071542D01*
X35245775Y-20956811D01*
X35298580Y-20829328D01*
X35325500Y-20693993D01*
X35325500Y-20556007D01*
X35325500Y-20556006D01*
X35325500Y-20556003D01*
X35298581Y-20420677D01*
X35298580Y-20420676D01*
X35298580Y-20420672D01*
X35295312Y-20412782D01*
X35245778Y-20293195D01*
X35245771Y-20293182D01*
X35169114Y-20178458D01*
X35169111Y-20178454D01*
X35071545Y-20080888D01*
X35071541Y-20080885D01*
X34956817Y-20004228D01*
X34956804Y-20004221D01*
X34829332Y-19951421D01*
X34829322Y-19951418D01*
X34693995Y-19924500D01*
X34693993Y-19924500D01*
X34556007Y-19924500D01*
X34556005Y-19924500D01*
X34420677Y-19951418D01*
X34420667Y-19951421D01*
X34293195Y-20004221D01*
X34293182Y-20004228D01*
X34178458Y-20080885D01*
X34178454Y-20080888D01*
X34112681Y-20146662D01*
X34051358Y-20180147D01*
X33981666Y-20175163D01*
X33937319Y-20146662D01*
X33871545Y-20080888D01*
X33871541Y-20080885D01*
X33756817Y-20004228D01*
X33756804Y-20004221D01*
X33629332Y-19951421D01*
X33629322Y-19951418D01*
X33493995Y-19924500D01*
X33493993Y-19924500D01*
X33356007Y-19924500D01*
X33356005Y-19924500D01*
X33220677Y-19951418D01*
X33220667Y-19951421D01*
X33093195Y-20004221D01*
X33093182Y-20004228D01*
X32978458Y-20080885D01*
X32978454Y-20080888D01*
X32912681Y-20146662D01*
X32851358Y-20180147D01*
X32781666Y-20175163D01*
X32737319Y-20146662D01*
X32671545Y-20080888D01*
X32671541Y-20080885D01*
X32556817Y-20004228D01*
X32556804Y-20004221D01*
X32429332Y-19951421D01*
X32429322Y-19951418D01*
X32293995Y-19924500D01*
X32293993Y-19924500D01*
X32156007Y-19924500D01*
X32156005Y-19924500D01*
X32020677Y-19951418D01*
X32020667Y-19951421D01*
X31893195Y-20004221D01*
X31893182Y-20004228D01*
X31778458Y-20080885D01*
X31778454Y-20080888D01*
X31712681Y-20146662D01*
X31651358Y-20180147D01*
X31581666Y-20175163D01*
X31537319Y-20146662D01*
X31471545Y-20080888D01*
X31471541Y-20080885D01*
X31356817Y-20004228D01*
X31356804Y-20004221D01*
X31229332Y-19951421D01*
X31229322Y-19951418D01*
X31093995Y-19924500D01*
X31093993Y-19924500D01*
X30956007Y-19924500D01*
X30956005Y-19924500D01*
X30820677Y-19951418D01*
X30820667Y-19951421D01*
X30693195Y-20004221D01*
X30693182Y-20004228D01*
X30578458Y-20080885D01*
X30578454Y-20080888D01*
X30480888Y-20178454D01*
X30480885Y-20178458D01*
X30404228Y-20293182D01*
X30404221Y-20293195D01*
X30351421Y-20420667D01*
X30351418Y-20420677D01*
X30324500Y-20556003D01*
X30324500Y-20556006D01*
X30324500Y-20556007D01*
X30324500Y-20693993D01*
X30324500Y-20693995D01*
X30324499Y-20693995D01*
X18525499Y-20693995D01*
X18525499Y-20693994D01*
X18525499Y-20556003D01*
X18498580Y-20420676D01*
X18498579Y-20420672D01*
X18498579Y-20420671D01*
X18495311Y-20412781D01*
X18445777Y-20293194D01*
X18445770Y-20293181D01*
X18369113Y-20178457D01*
X18369110Y-20178453D01*
X18303337Y-20112680D01*
X18269852Y-20051357D01*
X18274836Y-19981665D01*
X18303336Y-19937318D01*
X18337319Y-19903336D01*
X18398643Y-19869852D01*
X18468334Y-19874838D01*
X18512680Y-19903338D01*
X18578453Y-19969111D01*
X18578457Y-19969114D01*
X18693181Y-20045771D01*
X18693194Y-20045778D01*
X18820666Y-20098578D01*
X18820671Y-20098580D01*
X18820675Y-20098580D01*
X18820676Y-20098581D01*
X18956003Y-20125500D01*
X18956006Y-20125500D01*
X19093994Y-20125500D01*
X19185040Y-20107389D01*
X19229327Y-20098580D01*
X19356810Y-20045775D01*
X19471541Y-19969114D01*
X19503339Y-19937316D01*
X19537318Y-19903338D01*
X19598641Y-19869853D01*
X19668333Y-19874837D01*
X19712680Y-19903338D01*
X19778453Y-19969111D01*
X19778457Y-19969114D01*
X19893181Y-20045771D01*
X19893194Y-20045778D01*
X20020666Y-20098578D01*
X20020671Y-20098580D01*
X20020675Y-20098580D01*
X20020676Y-20098581D01*
X20156003Y-20125500D01*
X20156006Y-20125500D01*
X20293994Y-20125500D01*
X20385040Y-20107389D01*
X20429327Y-20098580D01*
X20556810Y-20045775D01*
X20671541Y-19969114D01*
X20703339Y-19937316D01*
X20737318Y-19903338D01*
X20798641Y-19869853D01*
X20868333Y-19874837D01*
X20912680Y-19903338D01*
X20978453Y-19969111D01*
X20978457Y-19969114D01*
X21093181Y-20045771D01*
X21093194Y-20045778D01*
X21220666Y-20098578D01*
X21220671Y-20098580D01*
X21220675Y-20098580D01*
X21220676Y-20098581D01*
X21356003Y-20125500D01*
X21356006Y-20125500D01*
X21493994Y-20125500D01*
X21585040Y-20107389D01*
X21629327Y-20098580D01*
X21756810Y-20045775D01*
X21871541Y-19969114D01*
X21903339Y-19937316D01*
X21937318Y-19903338D01*
X21998641Y-19869853D01*
X22068333Y-19874837D01*
X22112680Y-19903338D01*
X22178453Y-19969111D01*
X22178457Y-19969114D01*
X22293181Y-20045771D01*
X22293194Y-20045778D01*
X22420666Y-20098578D01*
X22420671Y-20098580D01*
X22420675Y-20098580D01*
X22420676Y-20098581D01*
X22556003Y-20125500D01*
X22556006Y-20125500D01*
X22693994Y-20125500D01*
X22785040Y-20107389D01*
X22829327Y-20098580D01*
X22956810Y-20045775D01*
X23071541Y-19969114D01*
X23167112Y-19873543D01*
X77274499Y-19873543D01*
X77312947Y-20066829D01*
X77312950Y-20066839D01*
X77388364Y-20248907D01*
X77388371Y-20248920D01*
X77497860Y-20412781D01*
X77497863Y-20412785D01*
X77637214Y-20552136D01*
X77637218Y-20552139D01*
X77801079Y-20661628D01*
X77801092Y-20661635D01*
X77983160Y-20737049D01*
X77983165Y-20737051D01*
X77983169Y-20737051D01*
X77983170Y-20737052D01*
X78176456Y-20775500D01*
X78176459Y-20775500D01*
X78373543Y-20775500D01*
X78503582Y-20749632D01*
X78566835Y-20737051D01*
X78748914Y-20661632D01*
X78912782Y-20552139D01*
X79052139Y-20412782D01*
X79161632Y-20248914D01*
X79237051Y-20066835D01*
X79269573Y-19903338D01*
X79275500Y-19873543D01*
X79275500Y-19676456D01*
X79237052Y-19483170D01*
X79237051Y-19483169D01*
X79237051Y-19483165D01*
X79184380Y-19356004D01*
X79161635Y-19301092D01*
X79161628Y-19301079D01*
X79052139Y-19137218D01*
X79052136Y-19137214D01*
X78912785Y-18997863D01*
X78912781Y-18997860D01*
X78748920Y-18888371D01*
X78748907Y-18888364D01*
X78566839Y-18812950D01*
X78566829Y-18812947D01*
X78373543Y-18774500D01*
X78373541Y-18774500D01*
X78176459Y-18774500D01*
X78176457Y-18774500D01*
X77983170Y-18812947D01*
X77983160Y-18812950D01*
X77801092Y-18888364D01*
X77801079Y-18888371D01*
X77637218Y-18997860D01*
X77637214Y-18997863D01*
X77497863Y-19137214D01*
X77497860Y-19137218D01*
X77388371Y-19301079D01*
X77388364Y-19301092D01*
X77312950Y-19483160D01*
X77312947Y-19483170D01*
X77274500Y-19676456D01*
X77274500Y-19676459D01*
X77274500Y-19873541D01*
X77274500Y-19873543D01*
X77274499Y-19873543D01*
X23167112Y-19873543D01*
X23169113Y-19871542D01*
X23245774Y-19756811D01*
X23298579Y-19629328D01*
X23325499Y-19493993D01*
X23325499Y-19356007D01*
X23325499Y-19356004D01*
X23298580Y-19220677D01*
X23298579Y-19220676D01*
X23298579Y-19220672D01*
X23298577Y-19220667D01*
X23245777Y-19093195D01*
X23245770Y-19093182D01*
X23169113Y-18978458D01*
X23169110Y-18978454D01*
X23071544Y-18880888D01*
X23071540Y-18880885D01*
X22956816Y-18804228D01*
X22956803Y-18804221D01*
X22829331Y-18751421D01*
X22829321Y-18751418D01*
X22693994Y-18724500D01*
X22693992Y-18724500D01*
X22556006Y-18724500D01*
X22556004Y-18724500D01*
X22420676Y-18751418D01*
X22420666Y-18751421D01*
X22293194Y-18804221D01*
X22293181Y-18804228D01*
X22178457Y-18880885D01*
X22178453Y-18880888D01*
X22112680Y-18946662D01*
X22051357Y-18980147D01*
X21981665Y-18975163D01*
X21937318Y-18946662D01*
X21871544Y-18880888D01*
X21871540Y-18880885D01*
X21756816Y-18804228D01*
X21756803Y-18804221D01*
X21629331Y-18751421D01*
X21629321Y-18751418D01*
X21493994Y-18724500D01*
X21493992Y-18724500D01*
X21356006Y-18724500D01*
X21356004Y-18724500D01*
X21220676Y-18751418D01*
X21220666Y-18751421D01*
X21093194Y-18804221D01*
X21093181Y-18804228D01*
X20978457Y-18880885D01*
X20978453Y-18880888D01*
X20912680Y-18946662D01*
X20851357Y-18980147D01*
X20781665Y-18975163D01*
X20737318Y-18946662D01*
X20671544Y-18880888D01*
X20671540Y-18880885D01*
X20556816Y-18804228D01*
X20556803Y-18804221D01*
X20429331Y-18751421D01*
X20429321Y-18751418D01*
X20293994Y-18724500D01*
X20293992Y-18724500D01*
X20156006Y-18724500D01*
X20156004Y-18724500D01*
X20020676Y-18751418D01*
X20020666Y-18751421D01*
X19893194Y-18804221D01*
X19893181Y-18804228D01*
X19778457Y-18880885D01*
X19778453Y-18880888D01*
X19712680Y-18946662D01*
X19651357Y-18980147D01*
X19581665Y-18975163D01*
X19537318Y-18946662D01*
X19471544Y-18880888D01*
X19471540Y-18880885D01*
X19356816Y-18804228D01*
X19356803Y-18804221D01*
X19229331Y-18751421D01*
X19229321Y-18751418D01*
X19093994Y-18724500D01*
X19093992Y-18724500D01*
X18956006Y-18724500D01*
X18956004Y-18724500D01*
X18820676Y-18751418D01*
X18820666Y-18751421D01*
X18693194Y-18804221D01*
X18693181Y-18804228D01*
X18578457Y-18880885D01*
X18578453Y-18880888D01*
X18512680Y-18946662D01*
X18451357Y-18980147D01*
X18381665Y-18975163D01*
X18337318Y-18946662D01*
X18271544Y-18880888D01*
X18271540Y-18880885D01*
X18156816Y-18804228D01*
X18156803Y-18804221D01*
X18029331Y-18751421D01*
X18029321Y-18751418D01*
X17893994Y-18724500D01*
X17893992Y-18724500D01*
X17756006Y-18724500D01*
X17756004Y-18724500D01*
X17620676Y-18751418D01*
X17620666Y-18751421D01*
X17493194Y-18804221D01*
X17493181Y-18804228D01*
X17378457Y-18880885D01*
X17378453Y-18880888D01*
X17312680Y-18946662D01*
X17251357Y-18980147D01*
X17181665Y-18975163D01*
X17137318Y-18946662D01*
X17071544Y-18880888D01*
X17071540Y-18880885D01*
X16956816Y-18804228D01*
X16956803Y-18804221D01*
X16829331Y-18751421D01*
X16829321Y-18751418D01*
X16693994Y-18724500D01*
X16693992Y-18724500D01*
X16556006Y-18724500D01*
X16556004Y-18724500D01*
X16420676Y-18751418D01*
X16420666Y-18751421D01*
X16293194Y-18804221D01*
X16293181Y-18804228D01*
X16178457Y-18880885D01*
X16178453Y-18880888D01*
X16112680Y-18946662D01*
X16051357Y-18980147D01*
X15981665Y-18975163D01*
X15937318Y-18946662D01*
X15871544Y-18880888D01*
X15871540Y-18880885D01*
X15756816Y-18804228D01*
X15756803Y-18804221D01*
X15629331Y-18751421D01*
X15629321Y-18751418D01*
X15493994Y-18724500D01*
X15493992Y-18724500D01*
X15356006Y-18724500D01*
X15356004Y-18724500D01*
X15220676Y-18751418D01*
X15220666Y-18751421D01*
X15093194Y-18804221D01*
X15093181Y-18804228D01*
X14978457Y-18880885D01*
X14912680Y-18946662D01*
X14851356Y-18980146D01*
X14781665Y-18975161D01*
X14737318Y-18946661D01*
X14671545Y-18880888D01*
X14671541Y-18880885D01*
X14556817Y-18804228D01*
X14556804Y-18804221D01*
X14429332Y-18751421D01*
X14429322Y-18751418D01*
X14293995Y-18724500D01*
X14293993Y-18724500D01*
X14156007Y-18724500D01*
X14156005Y-18724500D01*
X14020677Y-18751418D01*
X14020667Y-18751421D01*
X13893195Y-18804221D01*
X13893182Y-18804228D01*
X13778458Y-18880885D01*
X13778454Y-18880888D01*
X13680888Y-18978454D01*
X13680885Y-18978458D01*
X13604228Y-19093182D01*
X13604221Y-19093195D01*
X13551421Y-19220667D01*
X13551418Y-19220677D01*
X13524500Y-19356004D01*
X13524500Y-19356007D01*
X13524500Y-19493993D01*
X13524500Y-19493995D01*
X13524499Y-19493995D01*
X525500Y-19493995D01*
X525500Y-17045943D01*
X38224500Y-17045943D01*
X38224500Y-17204056D01*
X38265423Y-17356783D01*
X38265426Y-17356790D01*
X38344475Y-17493709D01*
X38344479Y-17493714D01*
X38344480Y-17493716D01*
X38456284Y-17605520D01*
X38456286Y-17605521D01*
X38456290Y-17605524D01*
X38593209Y-17684573D01*
X38593216Y-17684577D01*
X38745943Y-17725500D01*
X38745945Y-17725500D01*
X38904055Y-17725500D01*
X38904057Y-17725500D01*
X39056784Y-17684577D01*
X39193716Y-17605520D01*
X39305520Y-17493716D01*
X39384577Y-17356784D01*
X39425500Y-17204057D01*
X39425500Y-17045943D01*
X39384577Y-16893216D01*
X39384573Y-16893209D01*
X39366338Y-16861623D01*
X39366329Y-16861609D01*
X39305520Y-16756284D01*
X39193716Y-16644480D01*
X39193714Y-16644479D01*
X39193709Y-16644475D01*
X39056790Y-16565426D01*
X39056786Y-16565424D01*
X39056784Y-16565423D01*
X38904057Y-16524500D01*
X38745943Y-16524500D01*
X38593216Y-16565423D01*
X38593209Y-16565426D01*
X38456290Y-16644475D01*
X38456282Y-16644481D01*
X38344481Y-16756282D01*
X38344475Y-16756290D01*
X38265426Y-16893209D01*
X38265423Y-16893216D01*
X38224500Y-17045943D01*
X525500Y-17045943D01*
X525500Y-3403711D01*
X1674500Y-3403711D01*
X1674500Y-3646288D01*
X1706161Y-3886785D01*
X1768947Y-4121104D01*
X1824825Y-4256004D01*
X1861776Y-4345212D01*
X1983064Y-4555289D01*
X1983066Y-4555292D01*
X1983067Y-4555293D01*
X2130733Y-4747736D01*
X2130739Y-4747743D01*
X2302256Y-4919260D01*
X2302263Y-4919266D01*
X2382568Y-4980886D01*
X2494711Y-5066936D01*
X2704788Y-5188224D01*
X2928900Y-5281054D01*
X3163211Y-5343838D01*
X3343586Y-5367584D01*
X3403711Y-5375500D01*
X3403712Y-5375500D01*
X3646289Y-5375500D01*
X3694388Y-5369167D01*
X3886789Y-5343838D01*
X4121100Y-5281054D01*
X4345212Y-5188224D01*
X4555289Y-5066936D01*
X4747738Y-4919265D01*
X4919265Y-4747738D01*
X5066936Y-4555289D01*
X5188224Y-4345212D01*
X5281054Y-4121100D01*
X5343838Y-3886789D01*
X5375500Y-3646288D01*
X5375500Y-3403712D01*
X5372378Y-3380000D01*
X8120000Y-3380000D01*
X8120000Y-16670000D01*
X21930000Y-16670000D01*
X21930000Y-16245943D01*
X39424500Y-16245943D01*
X39424500Y-16404057D01*
X39465423Y-16556784D01*
X39544480Y-16693716D01*
X39656284Y-16805520D01*
X39656286Y-16805521D01*
X39656290Y-16805524D01*
X39793209Y-16884573D01*
X39793216Y-16884577D01*
X39945943Y-16925500D01*
X39945945Y-16925500D01*
X40104055Y-16925500D01*
X40104057Y-16925500D01*
X40256784Y-16884577D01*
X40393716Y-16805520D01*
X40505520Y-16693716D01*
X40584577Y-16556784D01*
X40625500Y-16404057D01*
X40625500Y-16245943D01*
X40584577Y-16093216D01*
X40563971Y-16057525D01*
X56199500Y-16057525D01*
X56199500Y-16202475D01*
X56237016Y-16342485D01*
X56237017Y-16342488D01*
X56309488Y-16468011D01*
X56309490Y-16468013D01*
X56309491Y-16468015D01*
X56411985Y-16570509D01*
X56411986Y-16570510D01*
X56411988Y-16570511D01*
X56537511Y-16642982D01*
X56537512Y-16642982D01*
X56537515Y-16642984D01*
X56677525Y-16680500D01*
X56677528Y-16680500D01*
X56822472Y-16680500D01*
X56822475Y-16680500D01*
X56962485Y-16642984D01*
X57088015Y-16570509D01*
X57190509Y-16468015D01*
X57262984Y-16342485D01*
X57300500Y-16202475D01*
X57300500Y-16057525D01*
X57262984Y-15917515D01*
X57195939Y-15801390D01*
X57195939Y-15801389D01*
X57190513Y-15791991D01*
X57190510Y-15791988D01*
X57190509Y-15791985D01*
X57140963Y-15742439D01*
X66225000Y-15742439D01*
X66225000Y-16525000D01*
X67356116Y-16525000D01*
X67325000Y-16681433D01*
X67325000Y-16868567D01*
X67356116Y-17025000D01*
X66225000Y-17025000D01*
X66225000Y-17807560D01*
X66240482Y-17964759D01*
X66301666Y-18166453D01*
X66401019Y-18352330D01*
X66401024Y-18352337D01*
X66534734Y-18515265D01*
X66697662Y-18648975D01*
X66697669Y-18648980D01*
X66883546Y-18748333D01*
X67085240Y-18809517D01*
X67242439Y-18825000D01*
X68025000Y-18825000D01*
X68025000Y-17693883D01*
X68181433Y-17725000D01*
X68368567Y-17725000D01*
X68525000Y-17693883D01*
X68525000Y-18825000D01*
X69307561Y-18825000D01*
X69464759Y-18809517D01*
X69666453Y-18748333D01*
X69852330Y-18648980D01*
X69852337Y-18648975D01*
X70015265Y-18515265D01*
X70148975Y-18352337D01*
X70148980Y-18352330D01*
X70248333Y-18166453D01*
X70309517Y-17964759D01*
X70325000Y-17807560D01*
X70325000Y-17025000D01*
X69193884Y-17025000D01*
X69225000Y-16868567D01*
X69225000Y-16681433D01*
X69193884Y-16525000D01*
X70325000Y-16525000D01*
X70325000Y-15742439D01*
X70309517Y-15585240D01*
X70248333Y-15383546D01*
X70148980Y-15197669D01*
X70148975Y-15197662D01*
X70015265Y-15034734D01*
X69852337Y-14901024D01*
X69852330Y-14901019D01*
X69666453Y-14801666D01*
X69464759Y-14740482D01*
X69307561Y-14725000D01*
X68525000Y-14725000D01*
X68525000Y-15856116D01*
X68368567Y-15825000D01*
X68181433Y-15825000D01*
X68025000Y-15856116D01*
X68025000Y-14725000D01*
X67242439Y-14725000D01*
X67085240Y-14740482D01*
X66883546Y-14801666D01*
X66697669Y-14901019D01*
X66697662Y-14901024D01*
X66534734Y-15034734D01*
X66401024Y-15197662D01*
X66401019Y-15197669D01*
X66301666Y-15383546D01*
X66240482Y-15585240D01*
X66225000Y-15742439D01*
X57140963Y-15742439D01*
X57088015Y-15689491D01*
X57088013Y-15689490D01*
X57088011Y-15689488D01*
X56962488Y-15617017D01*
X56962489Y-15617017D01*
X56951006Y-15613940D01*
X56822475Y-15579500D01*
X56677525Y-15579500D01*
X56548993Y-15613940D01*
X56537511Y-15617017D01*
X56411988Y-15689488D01*
X56411982Y-15689493D01*
X56309493Y-15791982D01*
X56309488Y-15791988D01*
X56237017Y-15917511D01*
X56237016Y-15917515D01*
X56199500Y-16057525D01*
X40563971Y-16057525D01*
X40552171Y-16037087D01*
X40505524Y-15956290D01*
X40505518Y-15956282D01*
X40393717Y-15844481D01*
X40393709Y-15844475D01*
X40256790Y-15765426D01*
X40256786Y-15765424D01*
X40256784Y-15765423D01*
X40104057Y-15724500D01*
X39945943Y-15724500D01*
X39793216Y-15765423D01*
X39793209Y-15765426D01*
X39656290Y-15844475D01*
X39656282Y-15844481D01*
X39544481Y-15956282D01*
X39544475Y-15956290D01*
X39465426Y-16093209D01*
X39465423Y-16093216D01*
X39424500Y-16245943D01*
X21930000Y-16245943D01*
X21930000Y-15302525D01*
X33274500Y-15302525D01*
X33274500Y-15447475D01*
X33312016Y-15587485D01*
X33312017Y-15587488D01*
X33384488Y-15713011D01*
X33384490Y-15713013D01*
X33384491Y-15713015D01*
X33486985Y-15815509D01*
X33486986Y-15815510D01*
X33486988Y-15815511D01*
X33612511Y-15887982D01*
X33612512Y-15887982D01*
X33612515Y-15887984D01*
X33752525Y-15925500D01*
X33752528Y-15925500D01*
X33897472Y-15925500D01*
X33897475Y-15925500D01*
X34037485Y-15887984D01*
X34163002Y-15815516D01*
X34230899Y-15799044D01*
X34286996Y-15815515D01*
X34412515Y-15887984D01*
X34552525Y-15925500D01*
X34552528Y-15925500D01*
X34697472Y-15925500D01*
X34697475Y-15925500D01*
X34837485Y-15887984D01*
X34963015Y-15815509D01*
X35065509Y-15713015D01*
X35137984Y-15587485D01*
X35175500Y-15447475D01*
X35175500Y-15302525D01*
X35137984Y-15162515D01*
X35065509Y-15036985D01*
X34963015Y-14934491D01*
X34963013Y-14934490D01*
X34963011Y-14934488D01*
X34837488Y-14862017D01*
X34837489Y-14862017D01*
X34826006Y-14858940D01*
X34697475Y-14824500D01*
X34552525Y-14824500D01*
X34423993Y-14858940D01*
X34412511Y-14862017D01*
X34287000Y-14934482D01*
X34219100Y-14950955D01*
X34163000Y-14934482D01*
X34037488Y-14862017D01*
X34037489Y-14862017D01*
X34026006Y-14858940D01*
X33897475Y-14824500D01*
X33752525Y-14824500D01*
X33623993Y-14858940D01*
X33612511Y-14862017D01*
X33486988Y-14934488D01*
X33486982Y-14934493D01*
X33384493Y-15036982D01*
X33384488Y-15036988D01*
X33312017Y-15162511D01*
X33312016Y-15162515D01*
X33274500Y-15302525D01*
X21930000Y-15302525D01*
X21930000Y-10515943D01*
X40924500Y-10515943D01*
X40924500Y-10674057D01*
X40950621Y-10771540D01*
X40965423Y-10826783D01*
X40965426Y-10826790D01*
X41044475Y-10963709D01*
X41044479Y-10963714D01*
X41044480Y-10963716D01*
X41156284Y-11075520D01*
X41156286Y-11075521D01*
X41156290Y-11075524D01*
X41293209Y-11154573D01*
X41293216Y-11154577D01*
X41445943Y-11195500D01*
X41445945Y-11195500D01*
X41604055Y-11195500D01*
X41604057Y-11195500D01*
X41756784Y-11154577D01*
X41893716Y-11075520D01*
X42005520Y-10963716D01*
X42084577Y-10826784D01*
X42125500Y-10674057D01*
X42125500Y-10515943D01*
X42084577Y-10363216D01*
X42022680Y-10256006D01*
X42005524Y-10226290D01*
X42005518Y-10226282D01*
X41893717Y-10114481D01*
X41893709Y-10114475D01*
X41756790Y-10035426D01*
X41756786Y-10035424D01*
X41756784Y-10035423D01*
X41604057Y-9994500D01*
X41445943Y-9994500D01*
X41293216Y-10035423D01*
X41293209Y-10035426D01*
X41156290Y-10114475D01*
X41156282Y-10114481D01*
X41044481Y-10226282D01*
X41044475Y-10226290D01*
X40965426Y-10363209D01*
X40965423Y-10363216D01*
X40924500Y-10515943D01*
X21930000Y-10515943D01*
X21930000Y-9193995D01*
X45924499Y-9193995D01*
X45951418Y-9329322D01*
X45951421Y-9329332D01*
X46004221Y-9456804D01*
X46004228Y-9456817D01*
X46080885Y-9571541D01*
X46080888Y-9571545D01*
X46146661Y-9637318D01*
X46180146Y-9698641D01*
X46175162Y-9768333D01*
X46146662Y-9812680D01*
X46080885Y-9878457D01*
X46004228Y-9993181D01*
X46004221Y-9993194D01*
X45951421Y-10120666D01*
X45951418Y-10120676D01*
X45924500Y-10256003D01*
X45924500Y-10256006D01*
X45924500Y-10393992D01*
X45924500Y-10393994D01*
X45924499Y-10393994D01*
X45951418Y-10529321D01*
X45951421Y-10529331D01*
X46004221Y-10656803D01*
X46004228Y-10656816D01*
X46080885Y-10771540D01*
X46080888Y-10771544D01*
X46146662Y-10837318D01*
X46180147Y-10898641D01*
X46175163Y-10968333D01*
X46146662Y-11012680D01*
X46080888Y-11078453D01*
X46080885Y-11078457D01*
X46004228Y-11193181D01*
X46004221Y-11193194D01*
X45951421Y-11320666D01*
X45951418Y-11320676D01*
X45924500Y-11456003D01*
X45924500Y-11456006D01*
X45924500Y-11593992D01*
X45924500Y-11593994D01*
X45924499Y-11593994D01*
X45951418Y-11729321D01*
X45951421Y-11729331D01*
X46004221Y-11856803D01*
X46004228Y-11856816D01*
X46080885Y-11971540D01*
X46080888Y-11971544D01*
X46178454Y-12069110D01*
X46178458Y-12069113D01*
X46293182Y-12145770D01*
X46293195Y-12145777D01*
X46420667Y-12198577D01*
X46420672Y-12198579D01*
X46420676Y-12198579D01*
X46420677Y-12198580D01*
X46556004Y-12225499D01*
X46556007Y-12225499D01*
X46693995Y-12225499D01*
X46785041Y-12207388D01*
X46829328Y-12198579D01*
X46956811Y-12145774D01*
X47071542Y-12069113D01*
X47071545Y-12069110D01*
X47137319Y-12003337D01*
X47198642Y-11969852D01*
X47268334Y-11974836D01*
X47312681Y-12003337D01*
X47378454Y-12069110D01*
X47378458Y-12069113D01*
X47493182Y-12145770D01*
X47493195Y-12145777D01*
X47620667Y-12198577D01*
X47620672Y-12198579D01*
X47620676Y-12198579D01*
X47620677Y-12198580D01*
X47756004Y-12225499D01*
X47756007Y-12225499D01*
X47893995Y-12225499D01*
X47985041Y-12207388D01*
X48029328Y-12198579D01*
X48156811Y-12145774D01*
X48271542Y-12069113D01*
X48271545Y-12069110D01*
X48337319Y-12003337D01*
X48398642Y-11969852D01*
X48468334Y-11974836D01*
X48512681Y-12003337D01*
X48578454Y-12069110D01*
X48578458Y-12069113D01*
X48693182Y-12145770D01*
X48693195Y-12145777D01*
X48820667Y-12198577D01*
X48820672Y-12198579D01*
X48820676Y-12198579D01*
X48820677Y-12198580D01*
X48956004Y-12225499D01*
X48956007Y-12225499D01*
X49093995Y-12225499D01*
X49185041Y-12207388D01*
X49229328Y-12198579D01*
X49356811Y-12145774D01*
X49471542Y-12069113D01*
X49569114Y-11971541D01*
X49645775Y-11856810D01*
X49698580Y-11729327D01*
X49716229Y-11640602D01*
X66224500Y-11640602D01*
X66224500Y-11909397D01*
X66259582Y-12175880D01*
X66259583Y-12175885D01*
X66259584Y-12175891D01*
X66294368Y-12305708D01*
X66329152Y-12435524D01*
X66432011Y-12683850D01*
X66432019Y-12683866D01*
X66512830Y-12823832D01*
X66566413Y-12916641D01*
X66566415Y-12916644D01*
X66566416Y-12916645D01*
X66730042Y-13129888D01*
X66730048Y-13129895D01*
X66920104Y-13319951D01*
X66920110Y-13319956D01*
X67133359Y-13483587D01*
X67282968Y-13569964D01*
X67366133Y-13617980D01*
X67366149Y-13617988D01*
X67521008Y-13682132D01*
X67614474Y-13720847D01*
X67874109Y-13790416D01*
X68062319Y-13815193D01*
X68140602Y-13825500D01*
X68140603Y-13825500D01*
X68409398Y-13825500D01*
X68469905Y-13817534D01*
X68675891Y-13790416D01*
X68935526Y-13720847D01*
X69122457Y-13643417D01*
X69183850Y-13617988D01*
X69183853Y-13617986D01*
X69183859Y-13617984D01*
X69416641Y-13483587D01*
X69629890Y-13319956D01*
X69819956Y-13129890D01*
X69983587Y-12916641D01*
X70117984Y-12683859D01*
X70220847Y-12435526D01*
X70290416Y-12175891D01*
X70325500Y-11909397D01*
X70325500Y-11640603D01*
X70290416Y-11374109D01*
X70220847Y-11114474D01*
X70165513Y-10980885D01*
X70117988Y-10866149D01*
X70117980Y-10866133D01*
X70063368Y-10771544D01*
X69983587Y-10633359D01*
X69903756Y-10529321D01*
X69819957Y-10420111D01*
X69819951Y-10420104D01*
X69629895Y-10230048D01*
X69629888Y-10230042D01*
X69416645Y-10066416D01*
X69416644Y-10066415D01*
X69416641Y-10066413D01*
X69323832Y-10012830D01*
X69183866Y-9932019D01*
X69183850Y-9932011D01*
X68935524Y-9829152D01*
X68755387Y-9780885D01*
X68675891Y-9759584D01*
X68675885Y-9759583D01*
X68675880Y-9759582D01*
X68409398Y-9724500D01*
X68409397Y-9724500D01*
X68140603Y-9724500D01*
X68140602Y-9724500D01*
X67874119Y-9759582D01*
X67874112Y-9759583D01*
X67874109Y-9759584D01*
X67819239Y-9774286D01*
X67614475Y-9829152D01*
X67366149Y-9932011D01*
X67366133Y-9932019D01*
X67133354Y-10066416D01*
X66920111Y-10230042D01*
X66920104Y-10230048D01*
X66730048Y-10420104D01*
X66730042Y-10420111D01*
X66566416Y-10633354D01*
X66432019Y-10866133D01*
X66432011Y-10866149D01*
X66329152Y-11114475D01*
X66259585Y-11374106D01*
X66259582Y-11374119D01*
X66224500Y-11640602D01*
X49716229Y-11640602D01*
X49725500Y-11593992D01*
X49725500Y-11456006D01*
X49725500Y-11456003D01*
X49698581Y-11320676D01*
X49698580Y-11320675D01*
X49698580Y-11320671D01*
X49646733Y-11195500D01*
X49645778Y-11193194D01*
X49645771Y-11193181D01*
X49569114Y-11078457D01*
X49569111Y-11078453D01*
X49503338Y-11012680D01*
X49469853Y-10951357D01*
X49474837Y-10881665D01*
X49503338Y-10837318D01*
X49569111Y-10771544D01*
X49569114Y-10771541D01*
X49645775Y-10656810D01*
X49698580Y-10529327D01*
X49725500Y-10393992D01*
X49725500Y-10256006D01*
X49725500Y-10256003D01*
X49698581Y-10120676D01*
X49698580Y-10120675D01*
X49698580Y-10120671D01*
X49675730Y-10065506D01*
X49645778Y-9993194D01*
X49645771Y-9993181D01*
X49569114Y-9878457D01*
X49569111Y-9878453D01*
X49503338Y-9812680D01*
X49502255Y-9810698D01*
X49500313Y-9809547D01*
X49485592Y-9780181D01*
X49469853Y-9751357D01*
X49470014Y-9749104D01*
X49469002Y-9747086D01*
X49472493Y-9714434D01*
X49474837Y-9681665D01*
X49476266Y-9679153D01*
X49476431Y-9677612D01*
X49481252Y-9670391D01*
X49494423Y-9647248D01*
X49498610Y-9642045D01*
X49569114Y-9571542D01*
X49581821Y-9552525D01*
X56904500Y-9552525D01*
X56904500Y-9697475D01*
X56942016Y-9837485D01*
X56942017Y-9837488D01*
X57014488Y-9963011D01*
X57014490Y-9963013D01*
X57014491Y-9963015D01*
X57116985Y-10065509D01*
X57116986Y-10065510D01*
X57116988Y-10065511D01*
X57242511Y-10137982D01*
X57242512Y-10137982D01*
X57242515Y-10137984D01*
X57382525Y-10175500D01*
X57382528Y-10175500D01*
X57527472Y-10175500D01*
X57527475Y-10175500D01*
X57667485Y-10137984D01*
X57793015Y-10065509D01*
X57895509Y-9963015D01*
X57967984Y-9837485D01*
X58005500Y-9697475D01*
X58005500Y-9552525D01*
X57967984Y-9412515D01*
X57919952Y-9329322D01*
X57895511Y-9286988D01*
X57895506Y-9286982D01*
X57793017Y-9184493D01*
X57793011Y-9184488D01*
X57667488Y-9112017D01*
X57667489Y-9112017D01*
X57656006Y-9108940D01*
X57527475Y-9074500D01*
X57382525Y-9074500D01*
X57253993Y-9108940D01*
X57242511Y-9112017D01*
X57116988Y-9184488D01*
X57116982Y-9184493D01*
X57014493Y-9286982D01*
X57014488Y-9286988D01*
X56942017Y-9412511D01*
X56942016Y-9412515D01*
X56904500Y-9552525D01*
X49581821Y-9552525D01*
X49645775Y-9456811D01*
X49698580Y-9329328D01*
X49714574Y-9248920D01*
X49725500Y-9193995D01*
X49725500Y-9056004D01*
X49698581Y-8920677D01*
X49698580Y-8920676D01*
X49698580Y-8920672D01*
X49679059Y-8873543D01*
X77274499Y-8873543D01*
X77312947Y-9066829D01*
X77312950Y-9066839D01*
X77388364Y-9248907D01*
X77388371Y-9248920D01*
X77497860Y-9412781D01*
X77497863Y-9412785D01*
X77637214Y-9552136D01*
X77637218Y-9552139D01*
X77801079Y-9661628D01*
X77801092Y-9661635D01*
X77983160Y-9737049D01*
X77983165Y-9737051D01*
X77983169Y-9737051D01*
X77983170Y-9737052D01*
X78176456Y-9775500D01*
X78176459Y-9775500D01*
X78373543Y-9775500D01*
X78516386Y-9747086D01*
X78566835Y-9737051D01*
X78748914Y-9661632D01*
X78912782Y-9552139D01*
X79052139Y-9412782D01*
X79161632Y-9248914D01*
X79237051Y-9066835D01*
X79275500Y-8873541D01*
X79275500Y-8676459D01*
X79275500Y-8676456D01*
X79237052Y-8483170D01*
X79237051Y-8483169D01*
X79237051Y-8483165D01*
X79223901Y-8451418D01*
X79161635Y-8301092D01*
X79161628Y-8301079D01*
X79052139Y-8137218D01*
X79052136Y-8137214D01*
X78912785Y-7997863D01*
X78912781Y-7997860D01*
X78748920Y-7888371D01*
X78748907Y-7888364D01*
X78566839Y-7812950D01*
X78566829Y-7812947D01*
X78373543Y-7774500D01*
X78373541Y-7774500D01*
X78176459Y-7774500D01*
X78176457Y-7774500D01*
X77983170Y-7812947D01*
X77983160Y-7812950D01*
X77801092Y-7888364D01*
X77801079Y-7888371D01*
X77637218Y-7997860D01*
X77637214Y-7997863D01*
X77497863Y-8137214D01*
X77497860Y-8137218D01*
X77388371Y-8301079D01*
X77388364Y-8301092D01*
X77312950Y-8483160D01*
X77312947Y-8483170D01*
X77274500Y-8676456D01*
X77274500Y-8676459D01*
X77274500Y-8873541D01*
X77274500Y-8873543D01*
X77274499Y-8873543D01*
X49679059Y-8873543D01*
X49679058Y-8873541D01*
X49645778Y-8793195D01*
X49645771Y-8793182D01*
X49609740Y-8739258D01*
X49569114Y-8678458D01*
X49569111Y-8678454D01*
X49471545Y-8580888D01*
X49471541Y-8580885D01*
X49356817Y-8504228D01*
X49356804Y-8504221D01*
X49229332Y-8451421D01*
X49229322Y-8451418D01*
X49093995Y-8424500D01*
X49093993Y-8424500D01*
X48956007Y-8424500D01*
X48956005Y-8424500D01*
X48820677Y-8451418D01*
X48820667Y-8451421D01*
X48693195Y-8504221D01*
X48693182Y-8504228D01*
X48578458Y-8580885D01*
X48578454Y-8580888D01*
X48512681Y-8646662D01*
X48451358Y-8680147D01*
X48381666Y-8675163D01*
X48337319Y-8646662D01*
X48271545Y-8580888D01*
X48271541Y-8580885D01*
X48156817Y-8504228D01*
X48156804Y-8504221D01*
X48029332Y-8451421D01*
X48029322Y-8451418D01*
X47893995Y-8424500D01*
X47893993Y-8424500D01*
X47756007Y-8424500D01*
X47756005Y-8424500D01*
X47620677Y-8451418D01*
X47620667Y-8451421D01*
X47493195Y-8504221D01*
X47493182Y-8504228D01*
X47378458Y-8580885D01*
X47378454Y-8580888D01*
X47312681Y-8646662D01*
X47251358Y-8680147D01*
X47181666Y-8675163D01*
X47137319Y-8646662D01*
X47071545Y-8580888D01*
X47071541Y-8580885D01*
X46956817Y-8504228D01*
X46956804Y-8504221D01*
X46829332Y-8451421D01*
X46829322Y-8451418D01*
X46693995Y-8424500D01*
X46693993Y-8424500D01*
X46556007Y-8424500D01*
X46556005Y-8424500D01*
X46420677Y-8451418D01*
X46420667Y-8451421D01*
X46293195Y-8504221D01*
X46293182Y-8504228D01*
X46178458Y-8580885D01*
X46178454Y-8580888D01*
X46080888Y-8678454D01*
X46080885Y-8678458D01*
X46004228Y-8793182D01*
X46004221Y-8793195D01*
X45951421Y-8920667D01*
X45951418Y-8920677D01*
X45924500Y-9056004D01*
X45924500Y-9056007D01*
X45924500Y-9193993D01*
X45924500Y-9193995D01*
X45924499Y-9193995D01*
X21930000Y-9193995D01*
X21930000Y-7463759D01*
X21949685Y-7396720D01*
X22002489Y-7350965D01*
X22071647Y-7341021D01*
X22101452Y-7349198D01*
X22220667Y-7398578D01*
X22220672Y-7398580D01*
X22220676Y-7398580D01*
X22220677Y-7398581D01*
X22356004Y-7425500D01*
X22356007Y-7425500D01*
X22493995Y-7425500D01*
X22585041Y-7407389D01*
X22629328Y-7398580D01*
X22756811Y-7345775D01*
X22871542Y-7269114D01*
X22937319Y-7203336D01*
X22998640Y-7169853D01*
X23068332Y-7174837D01*
X23112680Y-7203338D01*
X23178453Y-7269111D01*
X23178457Y-7269114D01*
X23293181Y-7345771D01*
X23293194Y-7345778D01*
X23420666Y-7398578D01*
X23420671Y-7398580D01*
X23420675Y-7398580D01*
X23420676Y-7398581D01*
X23556003Y-7425500D01*
X23556006Y-7425500D01*
X23693994Y-7425500D01*
X23785040Y-7407389D01*
X23829327Y-7398580D01*
X23956810Y-7345775D01*
X24071541Y-7269114D01*
X24169113Y-7171542D01*
X24245774Y-7056811D01*
X24298579Y-6929328D01*
X24325499Y-6793993D01*
X24325499Y-6656007D01*
X24325499Y-6656004D01*
X24298580Y-6520677D01*
X24298579Y-6520676D01*
X24298579Y-6520672D01*
X24298577Y-6520667D01*
X24245777Y-6393195D01*
X24245770Y-6393182D01*
X24169113Y-6278458D01*
X24169110Y-6278454D01*
X24103337Y-6212681D01*
X24069852Y-6151358D01*
X24074836Y-6081666D01*
X24103337Y-6037319D01*
X24169110Y-5971545D01*
X24169113Y-5971542D01*
X24245774Y-5856811D01*
X24298579Y-5729328D01*
X24325499Y-5593993D01*
X24325499Y-5456007D01*
X24325499Y-5456004D01*
X24298580Y-5320677D01*
X24298579Y-5320676D01*
X24298579Y-5320672D01*
X24282168Y-5281052D01*
X24245777Y-5193195D01*
X24245770Y-5193182D01*
X24169113Y-5078458D01*
X24169110Y-5078454D01*
X24103337Y-5012681D01*
X24069852Y-4951358D01*
X24074836Y-4881666D01*
X24103337Y-4837319D01*
X24169110Y-4771545D01*
X24169113Y-4771542D01*
X24245774Y-4656811D01*
X24298579Y-4529328D01*
X24325499Y-4393995D01*
X29224499Y-4393995D01*
X29251418Y-4529322D01*
X29251421Y-4529332D01*
X29304221Y-4656804D01*
X29304228Y-4656817D01*
X29380885Y-4771541D01*
X29380888Y-4771545D01*
X29478454Y-4869111D01*
X29478458Y-4869114D01*
X29593182Y-4945771D01*
X29593195Y-4945778D01*
X29720667Y-4998578D01*
X29720672Y-4998580D01*
X29720676Y-4998580D01*
X29720677Y-4998581D01*
X29856004Y-5025500D01*
X29856007Y-5025500D01*
X29993995Y-5025500D01*
X30085041Y-5007389D01*
X30129328Y-4998580D01*
X30227924Y-4957740D01*
X30256804Y-4945778D01*
X30256804Y-4945777D01*
X30256811Y-4945775D01*
X30371542Y-4869114D01*
X30469114Y-4771542D01*
X30545775Y-4656811D01*
X30598580Y-4529328D01*
X30625500Y-4393993D01*
X30625500Y-4256007D01*
X30625500Y-4256004D01*
X30598581Y-4120677D01*
X30598580Y-4120676D01*
X30598580Y-4120672D01*
X30598578Y-4120667D01*
X30545778Y-3993195D01*
X30545771Y-3993182D01*
X30469114Y-3878458D01*
X30469111Y-3878454D01*
X30371545Y-3780888D01*
X30371541Y-3780885D01*
X30256817Y-3704228D01*
X30256804Y-3704221D01*
X30129332Y-3651421D01*
X30129322Y-3651418D01*
X29993995Y-3624500D01*
X29993993Y-3624500D01*
X29856007Y-3624500D01*
X29856005Y-3624500D01*
X29720677Y-3651418D01*
X29720667Y-3651421D01*
X29593195Y-3704221D01*
X29593182Y-3704228D01*
X29478458Y-3780885D01*
X29478454Y-3780888D01*
X29380888Y-3878454D01*
X29380885Y-3878458D01*
X29304228Y-3993182D01*
X29304221Y-3993195D01*
X29251421Y-4120667D01*
X29251418Y-4120677D01*
X29224500Y-4256004D01*
X29224500Y-4256007D01*
X29224500Y-4393993D01*
X29224500Y-4393995D01*
X29224499Y-4393995D01*
X24325499Y-4393995D01*
X24325499Y-4393993D01*
X24325499Y-4256007D01*
X24325499Y-4256004D01*
X24298580Y-4120677D01*
X24298579Y-4120676D01*
X24298579Y-4120672D01*
X24298577Y-4120667D01*
X24245777Y-3993195D01*
X24245770Y-3993182D01*
X24169113Y-3878458D01*
X24169110Y-3878454D01*
X24103336Y-3812680D01*
X24069851Y-3751357D01*
X24074835Y-3681665D01*
X24103334Y-3637319D01*
X24169113Y-3571541D01*
X24245774Y-3456810D01*
X24267768Y-3403711D01*
X76674500Y-3403711D01*
X76674500Y-3646288D01*
X76706161Y-3886785D01*
X76768947Y-4121104D01*
X76824825Y-4256004D01*
X76861776Y-4345212D01*
X76983064Y-4555289D01*
X76983066Y-4555292D01*
X76983067Y-4555293D01*
X77130733Y-4747736D01*
X77130739Y-4747743D01*
X77302256Y-4919260D01*
X77302263Y-4919266D01*
X77382568Y-4980886D01*
X77494711Y-5066936D01*
X77704788Y-5188224D01*
X77928900Y-5281054D01*
X78163211Y-5343838D01*
X78343586Y-5367584D01*
X78403711Y-5375500D01*
X78403712Y-5375500D01*
X78646289Y-5375500D01*
X78694388Y-5369167D01*
X78886789Y-5343838D01*
X79121100Y-5281054D01*
X79345212Y-5188224D01*
X79555289Y-5066936D01*
X79747738Y-4919265D01*
X79919265Y-4747738D01*
X80066936Y-4555289D01*
X80188224Y-4345212D01*
X80281054Y-4121100D01*
X80343838Y-3886789D01*
X80375500Y-3646288D01*
X80375500Y-3403712D01*
X80343838Y-3163211D01*
X80281054Y-2928900D01*
X80188224Y-2704788D01*
X80066936Y-2494711D01*
X79919265Y-2302262D01*
X79919260Y-2302256D01*
X79747743Y-2130739D01*
X79747736Y-2130733D01*
X79555293Y-1983067D01*
X79555292Y-1983066D01*
X79555289Y-1983064D01*
X79345212Y-1861776D01*
X79345205Y-1861773D01*
X79121104Y-1768947D01*
X78940959Y-1720677D01*
X78886789Y-1706162D01*
X78886788Y-1706161D01*
X78886785Y-1706161D01*
X78646289Y-1674500D01*
X78646288Y-1674500D01*
X78403712Y-1674500D01*
X78403711Y-1674500D01*
X78163214Y-1706161D01*
X77928895Y-1768947D01*
X77704794Y-1861773D01*
X77704785Y-1861777D01*
X77494706Y-1983067D01*
X77302263Y-2130733D01*
X77302256Y-2130739D01*
X77130739Y-2302256D01*
X77130733Y-2302263D01*
X76983067Y-2494706D01*
X76861777Y-2704785D01*
X76861773Y-2704794D01*
X76768947Y-2928895D01*
X76706161Y-3163214D01*
X76674500Y-3403711D01*
X24267768Y-3403711D01*
X24298579Y-3329327D01*
X24325499Y-3193992D01*
X24325499Y-3056006D01*
X24325499Y-3056003D01*
X24298580Y-2920676D01*
X24298579Y-2920675D01*
X24298579Y-2920671D01*
X24298577Y-2920666D01*
X24245777Y-2793194D01*
X24245770Y-2793181D01*
X24169113Y-2678457D01*
X24169110Y-2678453D01*
X24103337Y-2612680D01*
X24069852Y-2551357D01*
X24074836Y-2481665D01*
X24103335Y-2437319D01*
X24169113Y-2371542D01*
X24245774Y-2256811D01*
X24298579Y-2129328D01*
X24318451Y-2029427D01*
X24325499Y-1993995D01*
X24325499Y-1856004D01*
X24298580Y-1720677D01*
X24298579Y-1720676D01*
X24298579Y-1720672D01*
X24279454Y-1674500D01*
X24245777Y-1593195D01*
X24245770Y-1593182D01*
X24169113Y-1478458D01*
X24169110Y-1478454D01*
X24071544Y-1380888D01*
X24071540Y-1380885D01*
X23956816Y-1304228D01*
X23956803Y-1304221D01*
X23829331Y-1251421D01*
X23829321Y-1251418D01*
X23693994Y-1224500D01*
X23693992Y-1224500D01*
X23556006Y-1224500D01*
X23556004Y-1224500D01*
X23420676Y-1251418D01*
X23420666Y-1251421D01*
X23293194Y-1304221D01*
X23293181Y-1304228D01*
X23178457Y-1380885D01*
X23112680Y-1446662D01*
X23051356Y-1480146D01*
X22981665Y-1475161D01*
X22937318Y-1446661D01*
X22871545Y-1380888D01*
X22871541Y-1380885D01*
X22756817Y-1304228D01*
X22756804Y-1304221D01*
X22629332Y-1251421D01*
X22629322Y-1251418D01*
X22493995Y-1224500D01*
X22493993Y-1224500D01*
X22356007Y-1224500D01*
X22356005Y-1224500D01*
X22220677Y-1251418D01*
X22220667Y-1251421D01*
X22093195Y-1304221D01*
X22093182Y-1304228D01*
X21978458Y-1380885D01*
X21978454Y-1380888D01*
X21880888Y-1478454D01*
X21880885Y-1478458D01*
X21804228Y-1593182D01*
X21804221Y-1593195D01*
X21751421Y-1720667D01*
X21751418Y-1720677D01*
X21724500Y-1856004D01*
X21724500Y-1856007D01*
X21724500Y-1993993D01*
X21724500Y-1993995D01*
X21724499Y-1993995D01*
X21751418Y-2129322D01*
X21751421Y-2129332D01*
X21804221Y-2256804D01*
X21804228Y-2256817D01*
X21880885Y-2371541D01*
X21880888Y-2371545D01*
X21946661Y-2437318D01*
X21980146Y-2498641D01*
X21975162Y-2568333D01*
X21946662Y-2612680D01*
X21880885Y-2678457D01*
X21804228Y-2793181D01*
X21804221Y-2793194D01*
X21751421Y-2920666D01*
X21751418Y-2920676D01*
X21724500Y-3056003D01*
X21724500Y-3193994D01*
X21732022Y-3231808D01*
X21725795Y-3301399D01*
X21682933Y-3356577D01*
X21617043Y-3379822D01*
X21610405Y-3380000D01*
X8120000Y-3380000D01*
X5372378Y-3380000D01*
X5343838Y-3163211D01*
X5281054Y-2928900D01*
X5188224Y-2704788D01*
X5066936Y-2494711D01*
X4919265Y-2302262D01*
X4919260Y-2302256D01*
X4747743Y-2130739D01*
X4747736Y-2130733D01*
X4555293Y-1983067D01*
X4555292Y-1983066D01*
X4555289Y-1983064D01*
X4345212Y-1861776D01*
X4345205Y-1861773D01*
X4121104Y-1768947D01*
X3940959Y-1720677D01*
X3886789Y-1706162D01*
X3886788Y-1706161D01*
X3886785Y-1706161D01*
X3646289Y-1674500D01*
X3646288Y-1674500D01*
X3403712Y-1674500D01*
X3403711Y-1674500D01*
X3163214Y-1706161D01*
X2928895Y-1768947D01*
X2704794Y-1861773D01*
X2704785Y-1861777D01*
X2494706Y-1983067D01*
X2302263Y-2130733D01*
X2302256Y-2130739D01*
X2130739Y-2302256D01*
X2130733Y-2302263D01*
X1983067Y-2494706D01*
X1861777Y-2704785D01*
X1861773Y-2704794D01*
X1768947Y-2928895D01*
X1706161Y-3163214D01*
X1674500Y-3403711D01*
X525500Y-3403711D01*
X525500Y-2029427D01*
X525816Y-2020581D01*
X525816Y-2020580D01*
X540130Y-1820436D01*
X542646Y-1802938D01*
X584356Y-1611200D01*
X589335Y-1594242D01*
X657911Y-1410382D01*
X665251Y-1394310D01*
X759294Y-1222083D01*
X768850Y-1207214D01*
X886443Y-1050128D01*
X898017Y-1036771D01*
X1036771Y-898017D01*
X1050128Y-886443D01*
X1207214Y-768850D01*
X1222083Y-759294D01*
X1394310Y-665251D01*
X1410382Y-657911D01*
X1594242Y-589335D01*
X1611200Y-584356D01*
X1802938Y-542646D01*
X1820436Y-540130D01*
X2020582Y-525816D01*
X2029428Y-525500D01*
X2090892Y-525500D01*
X79959108Y-525500D01*
X80020572Y-525500D01*
X80029418Y-525816D01*
G37*
%TD.AperFunction*%
%TD*%
M02*
