%TF.GenerationSoftware,KiCad,Pcbnew,10.0.6*%
%TF.CreationDate,2026-09-23T19:19:14-04:00*%
%TF.ProjectId,p1_rx,70315f72-782e-46b6-9963-61645f706362,rev?*%
%TF.SameCoordinates,Original*%
%TF.FileFunction,Soldermask,Top*%
%TF.FilePolarity,Negative*%
%FSLAX46Y46*%
G04 Gerber Fmt 4.6, Leading zero omitted, Abs format (unit mm)*
G04 Created by KiCad (PCBNEW 10.0.6) date 2026-09-23 19:19:14*
%MOMM*%
%LPD*%
G01*
G04 APERTURE LIST*
G04 Aperture macros list*
%AMRoundRect*
0 Rectangle with rounded corners*
0 $1 Rounding radius*
0 $2 $3 $4 $5 $6 $7 $8 $9 X,Y pos of 4 corners*
0 Add a 4 corners polygon primitive as box body*
4,1,4,$2,$3,$4,$5,$6,$7,$8,$9,$2,$3,0*
0 Add four circle primitives for the rounded corners*
1,1,$1+$1,$2,$3*
1,1,$1+$1,$4,$5*
1,1,$1+$1,$6,$7*
1,1,$1+$1,$8,$9*
0 Add four rect primitives between the rounded corners*
20,1,$1+$1,$2,$3,$4,$5,0*
20,1,$1+$1,$4,$5,$6,$7,0*
20,1,$1+$1,$6,$7,$8,$9,0*
20,1,$1+$1,$8,$9,$2,$3,0*%
G04 Aperture macros list end*
%ADD10RoundRect,0.250000X-1.100000X0.325000X-1.100000X-0.325000X1.100000X-0.325000X1.100000X0.325000X0*%
%ADD11RoundRect,0.225000X-0.250000X0.225000X-0.250000X-0.225000X0.250000X-0.225000X0.250000X0.225000X0*%
%ADD12RoundRect,0.225000X-0.225000X-0.250000X0.225000X-0.250000X0.225000X0.250000X-0.225000X0.250000X0*%
%ADD13RoundRect,0.225000X0.225000X0.250000X-0.225000X0.250000X-0.225000X-0.250000X0.225000X-0.250000X0*%
%ADD14RoundRect,0.162500X-0.162500X0.437500X-0.162500X-0.437500X0.162500X-0.437500X0.162500X0.437500X0*%
%ADD15R,4.700000X4.500000*%
%ADD16RoundRect,0.175000X-0.175000X0.325000X-0.175000X-0.325000X0.175000X-0.325000X0.175000X0.325000X0*%
%ADD17RoundRect,0.250000X1.000000X0.650000X-1.000000X0.650000X-1.000000X-0.650000X1.000000X-0.650000X0*%
%ADD18RoundRect,0.200000X0.275000X-0.200000X0.275000X0.200000X-0.275000X0.200000X-0.275000X-0.200000X0*%
%ADD19RoundRect,0.225000X0.250000X-0.225000X0.250000X0.225000X-0.250000X0.225000X-0.250000X-0.225000X0*%
%ADD20RoundRect,0.150000X-0.512500X-0.150000X0.512500X-0.150000X0.512500X0.150000X-0.512500X0.150000X0*%
%ADD21R,1.700000X1.700000*%
%ADD22C,1.700000*%
%ADD23RoundRect,0.150000X-0.825000X-0.150000X0.825000X-0.150000X0.825000X0.150000X-0.825000X0.150000X0*%
%ADD24RoundRect,0.250000X-1.050000X1.050000X-1.050000X-1.050000X1.050000X-1.050000X1.050000X1.050000X0*%
%ADD25C,2.600000*%
%ADD26RoundRect,0.087500X0.087500X-0.412500X0.087500X0.412500X-0.087500X0.412500X-0.087500X-0.412500X0*%
%ADD27R,3.100000X2.200000*%
%ADD28RoundRect,0.200000X-0.275000X0.200000X-0.275000X-0.200000X0.275000X-0.200000X0.275000X0.200000X0*%
%ADD29RoundRect,0.250000X-0.250000X-0.475000X0.250000X-0.475000X0.250000X0.475000X-0.250000X0.475000X0*%
%ADD30RoundRect,0.200000X0.200000X0.275000X-0.200000X0.275000X-0.200000X-0.275000X0.200000X-0.275000X0*%
%ADD31RoundRect,0.249999X-0.450001X-1.450001X0.450001X-1.450001X0.450001X1.450001X-0.450001X1.450001X0*%
%ADD32RoundRect,0.250000X-0.325000X-1.100000X0.325000X-1.100000X0.325000X1.100000X-0.325000X1.100000X0*%
%ADD33R,4.860000X3.360000*%
%ADD34R,1.400000X1.390000*%
%ADD35RoundRect,0.249999X-1.340001X-6.350001X1.340001X-6.350001X1.340001X6.350001X-1.340001X6.350001X0*%
%ADD36RoundRect,0.250000X1.100000X-0.325000X1.100000X0.325000X-1.100000X0.325000X-1.100000X-0.325000X0*%
%ADD37RoundRect,0.250000X0.325000X1.100000X-0.325000X1.100000X-0.325000X-1.100000X0.325000X-1.100000X0*%
%ADD38RoundRect,0.250000X-1.000000X-0.650000X1.000000X-0.650000X1.000000X0.650000X-1.000000X0.650000X0*%
%ADD39R,1.500000X4.000000*%
%ADD40RoundRect,0.218750X0.218750X0.256250X-0.218750X0.256250X-0.218750X-0.256250X0.218750X-0.256250X0*%
%ADD41R,2.000000X0.900000*%
%ADD42RoundRect,1.025000X-1.025000X1.025000X-1.025000X-1.025000X1.025000X-1.025000X1.025000X1.025000X0*%
%ADD43C,4.100000*%
%ADD44C,3.200000*%
%ADD45RoundRect,0.200000X-0.200000X-0.275000X0.200000X-0.275000X0.200000X0.275000X-0.200000X0.275000X0*%
%ADD46RoundRect,0.243600X-0.901400X-0.771400X0.901400X-0.771400X0.901400X0.771400X-0.901400X0.771400X0*%
%ADD47RoundRect,0.091200X-0.608800X-0.288800X0.608800X-0.288800X0.608800X0.288800X-0.608800X0.288800X0*%
%ADD48RoundRect,0.190000X-0.510000X-0.190000X0.510000X-0.190000X0.510000X0.190000X-0.510000X0.190000X0*%
%ADD49RoundRect,0.250000X0.475000X-0.250000X0.475000X0.250000X-0.475000X0.250000X-0.475000X-0.250000X0*%
%ADD50RoundRect,0.250000X0.250000X0.475000X-0.250000X0.475000X-0.250000X-0.475000X0.250000X-0.475000X0*%
%ADD51RoundRect,0.250000X0.650000X-0.325000X0.650000X0.325000X-0.650000X0.325000X-0.650000X-0.325000X0*%
%ADD52RoundRect,0.075000X0.075000X-0.662500X0.075000X0.662500X-0.075000X0.662500X-0.075000X-0.662500X0*%
%ADD53RoundRect,0.075000X0.662500X-0.075000X0.662500X0.075000X-0.662500X0.075000X-0.662500X-0.075000X0*%
%ADD54RoundRect,0.250000X-1.950000X-1.000000X1.950000X-1.000000X1.950000X1.000000X-1.950000X1.000000X0*%
%ADD55RoundRect,0.250000X1.000000X-1.400000X1.000000X1.400000X-1.000000X1.400000X-1.000000X-1.400000X0*%
G04 APERTURE END LIST*
D10*
%TO.C,C904*%
X24025000Y-48150000D03*
X24025000Y-51100000D03*
%TD*%
D11*
%TO.C,C907*%
X34425000Y-50650000D03*
X34425000Y-52200000D03*
%TD*%
D12*
%TO.C,C908*%
X30750000Y-48575000D03*
X32300000Y-48575000D03*
%TD*%
D13*
%TO.C,C607*%
X31800000Y-33225000D03*
X30250000Y-33225000D03*
%TD*%
D14*
%TO.C,Q801*%
X71330000Y-23700000D03*
X70060000Y-23700000D03*
X68790000Y-23700000D03*
X67520000Y-23700000D03*
D15*
X69425000Y-27200000D03*
D16*
X71420000Y-29450000D03*
X70090000Y-29450000D03*
X68760000Y-29450000D03*
X67430000Y-29450000D03*
%TD*%
D12*
%TO.C,C1004*%
X47300000Y-37425000D03*
X48850000Y-37425000D03*
%TD*%
%TO.C,C1003*%
X41250000Y-40525000D03*
X42800000Y-40525000D03*
%TD*%
D17*
%TO.C,D801*%
X53775000Y-44525000D03*
X49775000Y-44525000D03*
%TD*%
D18*
%TO.C,R906*%
X28725000Y-52775000D03*
X28725000Y-51125000D03*
%TD*%
D19*
%TO.C,C911*%
X48125000Y-52800000D03*
X48125000Y-51250000D03*
%TD*%
D20*
%TO.C,U802*%
X62387500Y-25875000D03*
X62387500Y-26825000D03*
X62387500Y-27775000D03*
X64662500Y-27775000D03*
X64662500Y-26825000D03*
X64662500Y-25875000D03*
%TD*%
D21*
%TO.C,J1002*%
X26025000Y-43625000D03*
D22*
X28565000Y-43625000D03*
X31105000Y-43625000D03*
X33645000Y-43625000D03*
%TD*%
D23*
%TO.C,U801*%
X51550000Y-25320000D03*
X51550000Y-26590000D03*
X51550000Y-27860000D03*
X51550000Y-29130000D03*
X56500000Y-29130000D03*
X56500000Y-27860000D03*
X56500000Y-26590000D03*
X56500000Y-25320000D03*
%TD*%
D21*
%TO.C,J1001*%
X37325000Y-43625000D03*
D22*
X39865000Y-43625000D03*
X42405000Y-43625000D03*
X44945000Y-43625000D03*
%TD*%
D24*
%TO.C,J601*%
X5225000Y-13025000D03*
D25*
X5225000Y-18105000D03*
%TD*%
D11*
%TO.C,C905*%
X24025000Y-52950000D03*
X24025000Y-54500000D03*
%TD*%
D19*
%TO.C,C805*%
X54525000Y-41800000D03*
X54525000Y-40250000D03*
%TD*%
D14*
%TO.C,Q702*%
X42680000Y-3450000D03*
X41410000Y-3450000D03*
X40140000Y-3450000D03*
X38870000Y-3450000D03*
D15*
X40775000Y-6950000D03*
D16*
X42770000Y-9200000D03*
X41440000Y-9200000D03*
X40110000Y-9200000D03*
X38780000Y-9200000D03*
%TD*%
D26*
%TO.C,U701*%
X31575000Y-9200000D03*
X32375000Y-9200000D03*
X33175000Y-9200000D03*
X33975000Y-9200000D03*
X33975000Y-5450000D03*
X33175000Y-5450000D03*
X32375000Y-5450000D03*
X31575000Y-5450000D03*
D27*
X32775000Y-7325000D03*
%TD*%
D19*
%TO.C,C1001*%
X45725000Y-36550000D03*
X45725000Y-35000000D03*
%TD*%
D28*
%TO.C,R902*%
X7825000Y-51125000D03*
X7825000Y-52775000D03*
%TD*%
D12*
%TO.C,C801*%
X58750000Y-27775000D03*
X60300000Y-27775000D03*
%TD*%
D18*
%TO.C,R903*%
X9525000Y-52775000D03*
X9525000Y-51125000D03*
%TD*%
D12*
%TO.C,C803*%
X62500000Y-24025000D03*
X64050000Y-24025000D03*
%TD*%
D29*
%TO.C,C606*%
X26825000Y-15025000D03*
X28725000Y-15025000D03*
%TD*%
D30*
%TO.C,R1002*%
X36850000Y-26525000D03*
X35200000Y-26525000D03*
%TD*%
D13*
%TO.C,C802*%
X42000000Y-28025000D03*
X40450000Y-28025000D03*
%TD*%
D31*
%TO.C,C601*%
X12225000Y-5525000D03*
X16325000Y-5525000D03*
%TD*%
D19*
%TO.C,C709*%
X62775000Y-5800000D03*
X62775000Y-4250000D03*
%TD*%
D32*
%TO.C,C708*%
X62800000Y-13275000D03*
X65750000Y-13275000D03*
%TD*%
D33*
%TO.C,D602*%
X20905000Y-11525000D03*
D34*
X24887000Y-10605000D03*
X24887000Y-12445000D03*
%TD*%
D35*
%TO.C,L701*%
X48475000Y-10425000D03*
X59075000Y-10425000D03*
%TD*%
D36*
%TO.C,C707*%
X63525000Y-10500000D03*
X63525000Y-7550000D03*
%TD*%
D10*
%TO.C,C909*%
X42925000Y-48150000D03*
X42925000Y-51100000D03*
%TD*%
D37*
%TO.C,C901*%
X13800000Y-57725000D03*
X10850000Y-57725000D03*
%TD*%
D38*
%TO.C,D901*%
X17625000Y-54975000D03*
X21625000Y-54975000D03*
%TD*%
D39*
%TO.C,L902*%
X36325000Y-49125000D03*
X39925000Y-49125000D03*
%TD*%
D33*
%TO.C,D604*%
X20905000Y-25025000D03*
D34*
X24887000Y-24105000D03*
X24887000Y-25945000D03*
%TD*%
D18*
%TO.C,R703*%
X37075000Y-10250000D03*
X37075000Y-8600000D03*
%TD*%
D20*
%TO.C,U902*%
X30387500Y-50175000D03*
X30387500Y-51125000D03*
X30387500Y-52075000D03*
X32662500Y-52075000D03*
X32662500Y-51125000D03*
X32662500Y-50175000D03*
%TD*%
D18*
%TO.C,R904*%
X33125000Y-55350000D03*
X33125000Y-53700000D03*
%TD*%
D40*
%TO.C,FB1001*%
X48862500Y-34125000D03*
X47287500Y-34125000D03*
%TD*%
D41*
%TO.C,J801*%
X64025000Y-32375000D03*
X64025000Y-45875000D03*
D42*
X58025000Y-35525000D03*
D43*
X58025000Y-42725000D03*
%TD*%
D12*
%TO.C,C903*%
X11850000Y-48575000D03*
X13400000Y-48575000D03*
%TD*%
D31*
%TO.C,C603*%
X12225000Y-14025000D03*
X16325000Y-14025000D03*
%TD*%
%TO.C,C605*%
X26875000Y-18275000D03*
X30975000Y-18275000D03*
%TD*%
D13*
%TO.C,C806*%
X31800000Y-37325000D03*
X30250000Y-37325000D03*
%TD*%
D12*
%TO.C,C1005*%
X47300000Y-35775000D03*
X48850000Y-35775000D03*
%TD*%
D10*
%TO.C,C804*%
X58025000Y-48550000D03*
X58025000Y-51500000D03*
%TD*%
D33*
%TO.C,D603*%
X23145000Y-18275000D03*
D34*
X19163000Y-19195000D03*
X19163000Y-17355000D03*
%TD*%
D14*
%TO.C,Q701*%
X42680000Y-11200000D03*
X41410000Y-11200000D03*
X40140000Y-11200000D03*
X38870000Y-11200000D03*
D15*
X40775000Y-14700000D03*
D16*
X42770000Y-16950000D03*
X41440000Y-16950000D03*
X40110000Y-16950000D03*
X38780000Y-16950000D03*
%TD*%
D19*
%TO.C,C913*%
X53925000Y-51200000D03*
X53925000Y-49650000D03*
%TD*%
D31*
%TO.C,C704*%
X38725000Y-20775000D03*
X42825000Y-20775000D03*
%TD*%
D30*
%TO.C,R803*%
X62350000Y-29525000D03*
X60700000Y-29525000D03*
%TD*%
D18*
%TO.C,R901*%
X14225000Y-55350000D03*
X14225000Y-53700000D03*
%TD*%
D44*
%TO.C,H1*%
X3525000Y-3525000D03*
%TD*%
D20*
%TO.C,U903*%
X49887500Y-51075000D03*
X49887500Y-52025000D03*
X49887500Y-52975000D03*
X52162500Y-52975000D03*
X52162500Y-51075000D03*
%TD*%
%TO.C,U901*%
X11487500Y-50175000D03*
X11487500Y-51125000D03*
X11487500Y-52075000D03*
X13762500Y-52075000D03*
X13762500Y-51125000D03*
X13762500Y-50175000D03*
%TD*%
D45*
%TO.C,R702*%
X31575000Y-3275000D03*
X33225000Y-3275000D03*
%TD*%
D30*
%TO.C,R802*%
X45350000Y-28025000D03*
X43700000Y-28025000D03*
%TD*%
D44*
%TO.C,H2*%
X71525000Y-3525000D03*
%TD*%
D30*
%TO.C,R602*%
X30450000Y-31725000D03*
X28800000Y-31725000D03*
%TD*%
D31*
%TO.C,C602*%
X12225000Y-9775000D03*
X16325000Y-9775000D03*
%TD*%
D18*
%TO.C,R1001*%
X44925000Y-40150000D03*
X44925000Y-38500000D03*
%TD*%
D28*
%TO.C,R905*%
X27025000Y-51125000D03*
X27025000Y-52775000D03*
%TD*%
D33*
%TO.C,D601*%
X23145000Y-4775000D03*
D34*
X19163000Y-5695000D03*
X19163000Y-3855000D03*
%TD*%
D44*
%TO.C,H4*%
X71525000Y-56525000D03*
%TD*%
D31*
%TO.C,C705*%
X38725000Y-24775000D03*
X42825000Y-24775000D03*
%TD*%
D28*
%TO.C,R704*%
X36325000Y-3700000D03*
X36325000Y-5350000D03*
%TD*%
D46*
%TO.C,R801*%
X58940000Y-20590000D03*
D47*
X58495000Y-22495000D03*
D48*
X65355000Y-19955000D03*
D46*
X64910000Y-21860000D03*
%TD*%
D30*
%TO.C,R805*%
X31850000Y-38925000D03*
X30200000Y-38925000D03*
%TD*%
D49*
%TO.C,C701*%
X27775000Y-9200000D03*
X27775000Y-7300000D03*
%TD*%
D45*
%TO.C,R804*%
X30200000Y-40525000D03*
X31850000Y-40525000D03*
%TD*%
D50*
%TO.C,C706*%
X36725000Y-18275000D03*
X34825000Y-18275000D03*
%TD*%
D51*
%TO.C,C1002*%
X51025000Y-41700000D03*
X51025000Y-38750000D03*
%TD*%
D52*
%TO.C,U1001*%
X35775000Y-38687500D03*
X36275000Y-38687500D03*
X36775000Y-38687500D03*
X37275000Y-38687500D03*
X37775000Y-38687500D03*
X38275000Y-38687500D03*
X38775000Y-38687500D03*
X39275000Y-38687500D03*
X39775000Y-38687500D03*
X40275000Y-38687500D03*
X40775000Y-38687500D03*
X41275000Y-38687500D03*
D53*
X42687500Y-37275000D03*
X42687500Y-36775000D03*
X42687500Y-36275000D03*
X42687500Y-35775000D03*
X42687500Y-35275000D03*
X42687500Y-34775000D03*
X42687500Y-34275000D03*
X42687500Y-33775000D03*
X42687500Y-33275000D03*
X42687500Y-32775000D03*
X42687500Y-32275000D03*
X42687500Y-31775000D03*
D52*
X41275000Y-30362500D03*
X40775000Y-30362500D03*
X40275000Y-30362500D03*
X39775000Y-30362500D03*
X39275000Y-30362500D03*
X38775000Y-30362500D03*
X38275000Y-30362500D03*
X37775000Y-30362500D03*
X37275000Y-30362500D03*
X36775000Y-30362500D03*
X36275000Y-30362500D03*
X35775000Y-30362500D03*
D53*
X34362500Y-31775000D03*
X34362500Y-32275000D03*
X34362500Y-32775000D03*
X34362500Y-33275000D03*
X34362500Y-33775000D03*
X34362500Y-34275000D03*
X34362500Y-34775000D03*
X34362500Y-35275000D03*
X34362500Y-35775000D03*
X34362500Y-36275000D03*
X34362500Y-36775000D03*
X34362500Y-37275000D03*
%TD*%
D29*
%TO.C,C703*%
X32225000Y-11025000D03*
X34125000Y-11025000D03*
%TD*%
D11*
%TO.C,C910*%
X42925000Y-52950000D03*
X42925000Y-54500000D03*
%TD*%
D54*
%TO.C,C604*%
X5325000Y-36525000D03*
X13725000Y-36525000D03*
%TD*%
D44*
%TO.C,H3*%
X3525000Y-56525000D03*
%TD*%
D28*
%TO.C,R601*%
X32025000Y-29800000D03*
X32025000Y-31450000D03*
%TD*%
D11*
%TO.C,C902*%
X15525000Y-50650000D03*
X15525000Y-52200000D03*
%TD*%
D37*
%TO.C,C906*%
X32700000Y-57725000D03*
X29750000Y-57725000D03*
%TD*%
D39*
%TO.C,L901*%
X17425000Y-49125000D03*
X21025000Y-49125000D03*
%TD*%
D38*
%TO.C,D902*%
X36525000Y-54975000D03*
X40525000Y-54975000D03*
%TD*%
D45*
%TO.C,R701*%
X33175000Y-12875000D03*
X34825000Y-12875000D03*
%TD*%
D40*
%TO.C,D1001*%
X37772500Y-28275000D03*
X36197500Y-28275000D03*
%TD*%
D11*
%TO.C,C912*%
X53925000Y-52850000D03*
X53925000Y-54400000D03*
%TD*%
D55*
%TO.C,D605*%
X19625000Y-31775000D03*
X26425000Y-31775000D03*
%TD*%
D19*
%TO.C,C702*%
X29675000Y-9200000D03*
X29675000Y-7650000D03*
%TD*%
M02*
