M48
; DRILL file KiCad 10.0.6 date 2026-09-23T19:19:15
; FORMAT={-:-/ absolute / metric / decimal}
; #@! TF.CreationDate,2026-09-23T19:19:15-04:00
; #@! TF.GenerationSoftware,Kicad,Pcbnew,10.0.6
; #@! TF.FileFunction,Plated,1,4,PTH
FMAT,2
METRIC
; #@! TA.AperFunction,Plated,PTH,ViaDrill
T1C0.300
; #@! TA.AperFunction,Plated,PTH,ViaDrill
T2C0.400
; #@! TA.AperFunction,Plated,PTH,ComponentDrill
T3C0.600
; #@! TA.AperFunction,Plated,PTH,ComponentDrill
T4C1.000
; #@! TA.AperFunction,Plated,PTH,ComponentDrill
T5C1.300
; #@! TA.AperFunction,Plated,PTH,ComponentDrill
T6C2.700
%
G90
G05
T1
X2.255Y-24.755
X2.255Y-29.255
X2.255Y-33.755
X2.255Y-42.755
X2.255Y-47.255
X2.255Y-51.755
X6.745Y-24.755
X6.745Y-29.255
X6.745Y-42.755
X6.745Y-47.255
X6.745Y-51.755
X7.825Y-48.225
X9.525Y-50.125
X11.245Y-2.255
X11.245Y-24.755
X11.245Y-29.255
X11.245Y-42.755
X15.525Y-49.525
X15.525Y-53.225
X15.745Y-2.255
X15.745Y-24.755
X15.745Y-29.255
X15.745Y-42.755
X20.255Y-38.255
X20.255Y-42.755
X23.775Y-46.925
X24.755Y-38.255
X24.755Y-56.255
X25.075Y-52.95
X27.025Y-48.225
X27.295Y-40.525
X27.775Y-10.325
X28.725Y-50.125
X29.225Y-33.225
X29.255Y-2.255
X29.255Y-11.245
X29.255Y-24.755
X29.255Y-29.255
X30.225Y-38.125
X31.975Y-6.775
X31.975Y-7.875
X32.025Y-28.625
X33.18Y-4.425
X33.575Y-6.775
X33.575Y-7.875
X33.755Y-24.755
X33.97Y-4.425
X34.425Y-49.525
X34.425Y-53.225
X35.925Y-35.275
X36.275Y-32.575
X36.325Y-6.375
X36.855Y-25.325
X37.775Y-31.975
X39.225Y-32.325
X39.425Y-28.025
X39.825Y-32.725
X41.025Y-33.775
X41.245Y-41.625
X42.755Y-56.255
X43.975Y-52.95
X44.025Y-31.775
X44.025Y-34.275
X45.725Y-33.975
X46.525Y-38.625
X46.925Y-51.25
X47.225Y-27.025
X47.255Y-20.255
X47.255Y-42.755
X47.255Y-47.255
X47.255Y-56.255
X48.865Y-33.025
X49.725Y-24.425
X49.725Y-29.135
X49.825Y-35.775
X49.825Y-37.425
X51.025Y-37.525
X51.755Y-20.255
X51.755Y-33.755
X51.755Y-56.255
X52.925Y-42.925
X53.925Y-48.625
X53.925Y-55.525
X54.525Y-26.595
X54.525Y-27.865
X54.525Y-39.125
X56.255Y-20.255
X56.255Y-56.255
X58.745Y-26.575
X59.825Y-29.525
X60.755Y-24.755
X60.755Y-51.755
X60.755Y-56.255
X61.125Y-26.825
X62.375Y-28.555
X63.925Y-19.955
X65.245Y-15.745
X65.245Y-29.255
X65.245Y-51.755
X65.245Y-56.255
X69.745Y-11.245
X69.745Y-15.745
X69.745Y-51.755
T2
X2.225Y-35.975
X2.225Y-37.075
X9.725Y-57.125
X9.725Y-58.325
X15.175Y-57.125
X15.175Y-58.325
X16.925Y-35.975
X16.925Y-37.075
X19.125Y-34.225
X20.125Y-34.225
X21.125Y-56.725
X21.325Y-7.375
X22.225Y-56.725
X22.375Y-7.375
X23.425Y-7.375
X24.475Y-7.375
X24.625Y-9.275
X24.625Y-13.625
X24.825Y-21.575
X25.425Y-9.275
X25.425Y-13.625
X25.525Y-7.375
X25.925Y-34.225
X26.025Y-21.575
X26.525Y-23.625
X26.525Y-24.625
X26.525Y-25.625
X26.525Y-26.625
X26.925Y-34.225
X27.225Y-21.575
X28.425Y-21.575
X28.625Y-57.125
X28.625Y-58.325
X29.425Y-17.325
X29.425Y-19.225
X29.625Y-21.575
X29.925Y-15.025
X32.825Y-15.225
X32.825Y-16.825
X32.825Y-18.425
X32.825Y-19.625
X33.225Y-21.575
X34.075Y-57.125
X34.075Y-58.325
X34.325Y-21.575
X36.725Y-14.125
X36.725Y-15.325
X36.725Y-16.525
X38.725Y-18.275
X39.925Y-1.275
X39.925Y-2.375
X39.925Y-18.275
X40.025Y-56.725
X41.025Y-1.275
X41.025Y-2.375
X41.125Y-18.275
X41.125Y-56.725
X42.125Y-1.275
X42.125Y-2.375
X43.225Y-1.275
X43.225Y-2.375
X44.325Y-1.275
X44.325Y-2.375
X44.325Y-3.475
X44.425Y-19.825
X44.425Y-21.025
X44.425Y-22.225
X44.425Y-23.425
X44.425Y-24.525
X45.425Y-1.275
X45.425Y-2.375
X45.425Y-3.475
X47.525Y-44.025
X47.525Y-45.025
X57.325Y-52.925
X58.725Y-52.925
X62.625Y-3.325
X62.625Y-8.825
X63.725Y-3.325
X63.725Y-4.425
X63.725Y-8.825
X64.825Y-3.325
X64.825Y-4.425
X64.825Y-5.525
X64.825Y-8.825
X65.925Y-3.325
X65.925Y-4.425
X65.925Y-5.525
X65.925Y-6.625
X65.925Y-7.725
X65.925Y-8.825
X65.925Y-9.925
X65.925Y-11.025
X67.025Y-3.325
X67.025Y-4.425
X67.025Y-5.525
X67.025Y-6.625
X67.025Y-7.725
X67.025Y-8.825
X67.025Y-9.925
X67.025Y-11.025
X67.025Y-12.125
X67.025Y-13.225
X67.025Y-14.325
T4
X26.025Y-43.625
X28.565Y-43.625
X31.105Y-43.625
X33.645Y-43.625
X37.325Y-43.625
X39.865Y-43.625
X42.405Y-43.625
X44.945Y-43.625
T5
X5.225Y-13.025
X5.225Y-18.105
T6
X58.025Y-35.525
X58.025Y-42.725
T3
X64.575Y-32.375G85X63.475Y-32.375
G05
X64.575Y-45.875G85X63.475Y-45.875
G05
M30
