%TF.GenerationSoftware,KiCad,Pcbnew,10.0.6*%
%TF.CreationDate,2026-09-23T19:19:14-04:00*%
%TF.ProjectId,p1_rx,70315f72-782e-46b6-9963-61645f706362,rev?*%
%TF.SameCoordinates,Original*%
%TF.FileFunction,Copper,L2,Inr*%
%TF.FilePolarity,Positive*%
%FSLAX46Y46*%
G04 Gerber Fmt 4.6, Leading zero omitted, Abs format (unit mm)*
G04 Created by KiCad (PCBNEW 10.0.6) date 2026-09-23 19:19:14*
%MOMM*%
%LPD*%
G01*
G04 APERTURE LIST*
G04 Aperture macros list*
%AMRoundRect*
0 Rectangle with rounded corners*
0 $1 Rounding radius*
0 $2 $3 $4 $5 $6 $7 $8 $9 X,Y pos of 4 corners*
0 Add a 4 corners polygon primitive as box body*
4,1,4,$2,$3,$4,$5,$6,$7,$8,$9,$2,$3,0*
0 Add four circle primitives for the rounded corners*
1,1,$1+$1,$2,$3*
1,1,$1+$1,$4,$5*
1,1,$1+$1,$6,$7*
1,1,$1+$1,$8,$9*
0 Add four rect primitives between the rounded corners*
20,1,$1+$1,$2,$3,$4,$5,0*
20,1,$1+$1,$4,$5,$6,$7,0*
20,1,$1+$1,$6,$7,$8,$9,0*
20,1,$1+$1,$8,$9,$2,$3,0*%
G04 Aperture macros list end*
%TA.AperFunction,ComponentPad*%
%ADD10R,1.700000X1.700000*%
%TD*%
%TA.AperFunction,ComponentPad*%
%ADD11C,1.700000*%
%TD*%
%TA.AperFunction,ComponentPad*%
%ADD12RoundRect,0.250000X-1.050000X1.050000X-1.050000X-1.050000X1.050000X-1.050000X1.050000X1.050000X0*%
%TD*%
%TA.AperFunction,ComponentPad*%
%ADD13C,2.600000*%
%TD*%
%TA.AperFunction,ComponentPad*%
%ADD14R,2.000000X0.900000*%
%TD*%
%TA.AperFunction,ComponentPad*%
%ADD15RoundRect,1.025000X-1.025000X1.025000X-1.025000X-1.025000X1.025000X-1.025000X1.025000X1.025000X0*%
%TD*%
%TA.AperFunction,ComponentPad*%
%ADD16C,4.100000*%
%TD*%
%TA.AperFunction,ViaPad*%
%ADD17C,0.500000*%
%TD*%
%TA.AperFunction,ViaPad*%
%ADD18C,0.600000*%
%TD*%
%TA.AperFunction,ViaPad*%
%ADD19C,0.800000*%
%TD*%
G04 APERTURE END LIST*
D10*
%TO.N,+3V3_RX*%
%TO.C,J1002*%
X26025000Y-43625000D03*
D11*
%TO.N,/RX_MCU/LINK_TX*%
X28565000Y-43625000D03*
%TO.N,/RX_MCU/LINK_RX*%
X31105000Y-43625000D03*
%TO.N,GND_RX*%
X33645000Y-43625000D03*
%TD*%
D10*
%TO.N,+3V3_RX*%
%TO.C,J1001*%
X37325000Y-43625000D03*
D11*
%TO.N,/RX_MCU/ISP_TXD*%
X39865000Y-43625000D03*
%TO.N,/RX_MCU/ISP_RXD*%
X42405000Y-43625000D03*
%TO.N,GND_RX*%
X44945000Y-43625000D03*
%TD*%
D12*
%TO.N,/RX_CoilRect/RX_COIL1*%
%TO.C,J601*%
X5225000Y-13025000D03*
D13*
%TO.N,/RX_CoilRect/RX_AC2*%
X5225000Y-18105000D03*
%TD*%
D14*
%TO.N,*%
%TO.C,J801*%
X64025000Y-32375000D03*
X64025000Y-45875000D03*
D15*
%TO.N,GND_RX*%
X58025000Y-35525000D03*
D16*
%TO.N,VSCAP*%
X58025000Y-42725000D03*
%TD*%
D17*
%TO.N,+12V_RX*%
X25075000Y-52950000D03*
D18*
X23775000Y-46925000D03*
X27775000Y-10325000D03*
D17*
X7825000Y-48225000D03*
D18*
%TO.N,GND_RX*%
X15525000Y-53225000D03*
X49825000Y-35775000D03*
D19*
X43225000Y-1275000D03*
D18*
X33574999Y-7875000D03*
X24755000Y-38255000D03*
D19*
X41025000Y-1275000D03*
D18*
X11245000Y-29255000D03*
D19*
X32824999Y-19625000D03*
X65924999Y-5525000D03*
D18*
X15745000Y-42755000D03*
D19*
X64825000Y-8824999D03*
X29925000Y-15025000D03*
X41025000Y-2375000D03*
X65924999Y-3325000D03*
D18*
X47255000Y-47255000D03*
X53925000Y-48625000D03*
X9525000Y-50125000D03*
X54525000Y-27865000D03*
X34425000Y-53225000D03*
D19*
X44325000Y-2375000D03*
D18*
X39425000Y-28025000D03*
D19*
X28625000Y-58325000D03*
D18*
X29255000Y-2255000D03*
D19*
X44425000Y-22225000D03*
D18*
X69745000Y-51755000D03*
D19*
X29425000Y-17325000D03*
D18*
X36325000Y-6375000D03*
D19*
X63725000Y-3325000D03*
X44425000Y-21025000D03*
D18*
X56255000Y-56255000D03*
D19*
X67024999Y-7724999D03*
X67024999Y-9924999D03*
X65924999Y-8824999D03*
X42125000Y-2375000D03*
D18*
X2255000Y-47255000D03*
X51755000Y-56255000D03*
X33574999Y-6775000D03*
D19*
X16925000Y-37075000D03*
D18*
X6745000Y-29255000D03*
X6745000Y-47255000D03*
X65245000Y-51755000D03*
X6745000Y-42755000D03*
X51755000Y-20255000D03*
X15745000Y-29255000D03*
X2255000Y-24755000D03*
D19*
X29425000Y-19225000D03*
D18*
X29225000Y-33225000D03*
D19*
X67024999Y-11024999D03*
D18*
X29255000Y-24755000D03*
D19*
X65924999Y-9924999D03*
X45425000Y-1275000D03*
X25425000Y-13625000D03*
X57325000Y-52925000D03*
X63725000Y-8824999D03*
X40025000Y-56725000D03*
D18*
X60755000Y-24755000D03*
X29255000Y-29255000D03*
D19*
X24625000Y-13625000D03*
D18*
X2255000Y-29255000D03*
D19*
X21125000Y-56725000D03*
X63725000Y-4425000D03*
X26925000Y-34225000D03*
D18*
X31975000Y-6775000D03*
X54525000Y-26595000D03*
X59825000Y-29525000D03*
D19*
X62625000Y-3325000D03*
D18*
X47255000Y-56255000D03*
D19*
X67024999Y-4425000D03*
X47525000Y-44025000D03*
X16925000Y-35975000D03*
D18*
X60755000Y-51755000D03*
X31975000Y-7875000D03*
D19*
X44425000Y-23425000D03*
X64825000Y-3325000D03*
D18*
X46925000Y-51250000D03*
X2255000Y-42755000D03*
X49725000Y-29135000D03*
X65245000Y-29255000D03*
X24755000Y-56255000D03*
X41245000Y-41625000D03*
D19*
X67024999Y-14324999D03*
D18*
X47255000Y-42755000D03*
D19*
X28625000Y-57125000D03*
X65924999Y-6625000D03*
D18*
X49825000Y-37425000D03*
D19*
X45425000Y-2375000D03*
X67024999Y-12124999D03*
D18*
X65245000Y-15745000D03*
D19*
X44325000Y-3475000D03*
X67024999Y-6625000D03*
X67024999Y-3325000D03*
X26525000Y-25625000D03*
D18*
X65245000Y-56255000D03*
D19*
X26525000Y-26625000D03*
X67024999Y-8824999D03*
X64825000Y-5525000D03*
D18*
X30225000Y-38125000D03*
D19*
X26525000Y-24625000D03*
X67024999Y-13224999D03*
D18*
X20255000Y-42755000D03*
D19*
X42125000Y-1275000D03*
D18*
X33755000Y-24755000D03*
D19*
X32824999Y-15225000D03*
D18*
X6745000Y-24755000D03*
X51025000Y-37525000D03*
X6745000Y-51755000D03*
D19*
X43225000Y-2375000D03*
X41125000Y-56725000D03*
X65924999Y-11024999D03*
D18*
X28725000Y-50125000D03*
X45725000Y-33975000D03*
X47255000Y-20255000D03*
D19*
X65924999Y-7724999D03*
D18*
X11245000Y-2255000D03*
D19*
X26525000Y-23625000D03*
D18*
X20255000Y-38255000D03*
D19*
X67024999Y-5525000D03*
X22225000Y-56725000D03*
X58725000Y-52925000D03*
D18*
X11245000Y-24755000D03*
D19*
X39925000Y-2375000D03*
X32824999Y-16825000D03*
D18*
X56255000Y-20255000D03*
X29255000Y-11245000D03*
X2255000Y-33755000D03*
D19*
X25425000Y-9275000D03*
D18*
X42755000Y-56255000D03*
X15745000Y-2255000D03*
D19*
X24625000Y-9275000D03*
X44325000Y-1275000D03*
D18*
X15745000Y-24755000D03*
D19*
X44425000Y-24525000D03*
X45425000Y-3475000D03*
X64825000Y-4425000D03*
D18*
X61125000Y-26825000D03*
D19*
X32824999Y-18425000D03*
D18*
X60755000Y-56255000D03*
D19*
X9725000Y-57125000D03*
D18*
X51755000Y-33755000D03*
D19*
X62625000Y-8824999D03*
D18*
X11245000Y-42755000D03*
X2255000Y-51755000D03*
X69745000Y-15745000D03*
D19*
X39925000Y-1275000D03*
X9725000Y-58325000D03*
D18*
X53925000Y-55525000D03*
D19*
X65924999Y-4425000D03*
X47525000Y-45025000D03*
D18*
X69745000Y-11245000D03*
D19*
X25925000Y-34225000D03*
X44425000Y-19825000D03*
D18*
X54525000Y-39125000D03*
D19*
%TO.N,VRECT*%
X20125000Y-34225000D03*
X19125000Y-34225000D03*
D18*
X32025000Y-28625000D03*
D19*
X36725000Y-15324999D03*
X22375000Y-7375000D03*
X36725000Y-14125000D03*
X2225000Y-37075000D03*
X21325000Y-7375000D03*
D18*
X15525000Y-49525000D03*
D19*
X41125000Y-18275000D03*
X34075000Y-58325000D03*
X36725000Y-16525000D03*
X27225000Y-21575000D03*
X28425000Y-21575000D03*
D18*
X34425000Y-49525000D03*
D19*
X15174999Y-58325000D03*
X39925000Y-18275000D03*
X2225000Y-35975000D03*
X34075000Y-57125000D03*
X34325000Y-21575000D03*
X24475000Y-7375000D03*
X29624999Y-21575000D03*
X38725000Y-18275000D03*
X25525000Y-7375000D03*
X23425000Y-7375000D03*
X33224999Y-21575000D03*
X24825000Y-21575000D03*
X26025000Y-21575000D03*
X15174999Y-57125000D03*
D18*
%TO.N,VSCAP*%
X27295000Y-40525000D03*
X52925000Y-42925000D03*
D17*
%TO.N,+5V_RX*%
X43975000Y-52950000D03*
X27025000Y-48225000D03*
%TO.N,CHG_EN*%
X47225000Y-27025000D03*
X62375000Y-28555000D03*
D18*
%TO.N,+3V3_RX*%
X36855000Y-25325000D03*
X48865000Y-33025000D03*
X58745000Y-26575000D03*
X46525000Y-38625000D03*
D17*
%TO.N,/RX_MCU/LINK_TX*%
X39825000Y-32725000D03*
%TO.N,/RX_MCU/LINK_RX*%
X44025000Y-31775000D03*
%TO.N,/RX_Output/ISNS_CHG_N*%
X49725000Y-24425000D03*
X63925000Y-19955000D03*
%TO.N,/RX_MCU/ISP_TXD*%
X41025000Y-33775000D03*
%TO.N,/RX_MCU/ISP_RXD*%
X44025000Y-34275000D03*
%TO.N,PWM_BUCK_H*%
X37775000Y-31975000D03*
X33970000Y-4425000D03*
%TO.N,PWM_BUCK_L*%
X33180000Y-4425000D03*
X36275000Y-32574999D03*
%TO.N,ISNS_CHG*%
X39225000Y-32324999D03*
X35925000Y-35275000D03*
%TD*%
%TA.AperFunction,Conductor*%
%TO.N,GND_RX*%
G36*
X73029418Y-525816D02*
G01*
X73229561Y-540130D01*
X73247063Y-542647D01*
X73438795Y-584355D01*
X73455760Y-589336D01*
X73639611Y-657909D01*
X73655694Y-665253D01*
X73772495Y-729032D01*
X73827908Y-759290D01*
X73842791Y-768855D01*
X73999864Y-886438D01*
X74013235Y-898024D01*
X74151975Y-1036764D01*
X74163561Y-1050135D01*
X74281144Y-1207208D01*
X74290709Y-1222091D01*
X74384743Y-1394300D01*
X74392093Y-1410394D01*
X74460661Y-1594234D01*
X74465645Y-1611209D01*
X74507351Y-1802931D01*
X74509869Y-1820442D01*
X74524184Y-2020580D01*
X74524500Y-2029427D01*
X74524500Y-58020572D01*
X74524184Y-58029419D01*
X74509869Y-58229557D01*
X74507351Y-58247068D01*
X74465645Y-58438790D01*
X74460661Y-58455765D01*
X74392093Y-58639605D01*
X74384743Y-58655699D01*
X74290709Y-58827908D01*
X74281144Y-58842791D01*
X74163561Y-58999864D01*
X74151975Y-59013235D01*
X74013235Y-59151975D01*
X73999864Y-59163561D01*
X73842791Y-59281144D01*
X73827908Y-59290709D01*
X73655699Y-59384743D01*
X73639605Y-59392093D01*
X73455765Y-59460661D01*
X73438790Y-59465645D01*
X73247068Y-59507351D01*
X73229557Y-59509869D01*
X73048779Y-59522799D01*
X73029417Y-59524184D01*
X73020572Y-59524500D01*
X2029428Y-59524500D01*
X2020582Y-59524184D01*
X1998622Y-59522613D01*
X1820442Y-59509869D01*
X1802931Y-59507351D01*
X1611209Y-59465645D01*
X1594234Y-59460661D01*
X1410394Y-59392093D01*
X1394300Y-59384743D01*
X1222091Y-59290709D01*
X1207208Y-59281144D01*
X1050135Y-59163561D01*
X1036764Y-59151975D01*
X898024Y-59013235D01*
X886438Y-58999864D01*
X768855Y-58842791D01*
X759290Y-58827908D01*
X727815Y-58770266D01*
X665253Y-58655694D01*
X657909Y-58639611D01*
X589336Y-58455760D01*
X584354Y-58438790D01*
X574609Y-58393993D01*
X542647Y-58247063D01*
X540130Y-58229556D01*
X525816Y-58029418D01*
X525500Y-58020572D01*
X525500Y-56403711D01*
X1674500Y-56403711D01*
X1674500Y-56646288D01*
X1706161Y-56886785D01*
X1768947Y-57121104D01*
X1799139Y-57193993D01*
X1861776Y-57345212D01*
X1983064Y-57555289D01*
X1983066Y-57555292D01*
X1983067Y-57555293D01*
X2130733Y-57747736D01*
X2130739Y-57747743D01*
X2302256Y-57919260D01*
X2302263Y-57919266D01*
X2398593Y-57993182D01*
X2494711Y-58066936D01*
X2704788Y-58188224D01*
X2928900Y-58281054D01*
X3163211Y-58343838D01*
X3343586Y-58367584D01*
X3403711Y-58375500D01*
X3403712Y-58375500D01*
X3646289Y-58375500D01*
X3694388Y-58369167D01*
X3886789Y-58343838D01*
X4121100Y-58281054D01*
X4345212Y-58188224D01*
X4555289Y-58066936D01*
X4747738Y-57919265D01*
X4919265Y-57747738D01*
X5066936Y-57555289D01*
X5188224Y-57345212D01*
X5250860Y-57193995D01*
X14474498Y-57193995D01*
X14501417Y-57329322D01*
X14501420Y-57329332D01*
X14554220Y-57456804D01*
X14554227Y-57456817D01*
X14630884Y-57571541D01*
X14630887Y-57571545D01*
X14696661Y-57637319D01*
X14730146Y-57698642D01*
X14725162Y-57768334D01*
X14696661Y-57812681D01*
X14630887Y-57878454D01*
X14630884Y-57878458D01*
X14554227Y-57993182D01*
X14554220Y-57993195D01*
X14501420Y-58120667D01*
X14501417Y-58120677D01*
X14474499Y-58256004D01*
X14474499Y-58256007D01*
X14474499Y-58393993D01*
X14474499Y-58393995D01*
X14474498Y-58393995D01*
X14501417Y-58529322D01*
X14501420Y-58529332D01*
X14554220Y-58656804D01*
X14554227Y-58656817D01*
X14630884Y-58771541D01*
X14630887Y-58771545D01*
X14728453Y-58869111D01*
X14728457Y-58869114D01*
X14843181Y-58945771D01*
X14843194Y-58945778D01*
X14970666Y-58998578D01*
X14970671Y-58998580D01*
X14970675Y-58998580D01*
X14970676Y-58998581D01*
X15106003Y-59025500D01*
X15106006Y-59025500D01*
X15243994Y-59025500D01*
X15337178Y-59006964D01*
X15379327Y-58998580D01*
X15506810Y-58945775D01*
X15621541Y-58869114D01*
X15719113Y-58771542D01*
X15795774Y-58656811D01*
X15848579Y-58529328D01*
X15875499Y-58393993D01*
X15875499Y-58256007D01*
X15875499Y-58256004D01*
X15848580Y-58120677D01*
X15848579Y-58120676D01*
X15848579Y-58120672D01*
X15826321Y-58066936D01*
X15795777Y-57993195D01*
X15795770Y-57993182D01*
X15719113Y-57878458D01*
X15719110Y-57878454D01*
X15653337Y-57812681D01*
X15619852Y-57751358D01*
X15624836Y-57681666D01*
X15653337Y-57637319D01*
X15719110Y-57571545D01*
X15719113Y-57571542D01*
X15795774Y-57456811D01*
X15848579Y-57329328D01*
X15875499Y-57193995D01*
X33374499Y-57193995D01*
X33401418Y-57329322D01*
X33401421Y-57329332D01*
X33454221Y-57456804D01*
X33454228Y-57456817D01*
X33530885Y-57571541D01*
X33530888Y-57571545D01*
X33596662Y-57637319D01*
X33630147Y-57698642D01*
X33625163Y-57768334D01*
X33596662Y-57812681D01*
X33530888Y-57878454D01*
X33530885Y-57878458D01*
X33454228Y-57993182D01*
X33454221Y-57993195D01*
X33401421Y-58120667D01*
X33401418Y-58120677D01*
X33374500Y-58256004D01*
X33374500Y-58256007D01*
X33374500Y-58393993D01*
X33374500Y-58393995D01*
X33374499Y-58393995D01*
X33401418Y-58529322D01*
X33401421Y-58529332D01*
X33454221Y-58656804D01*
X33454228Y-58656817D01*
X33530885Y-58771541D01*
X33530888Y-58771545D01*
X33628454Y-58869111D01*
X33628458Y-58869114D01*
X33743182Y-58945771D01*
X33743195Y-58945778D01*
X33870667Y-58998578D01*
X33870672Y-58998580D01*
X33870676Y-58998580D01*
X33870677Y-58998581D01*
X34006004Y-59025500D01*
X34006007Y-59025500D01*
X34143995Y-59025500D01*
X34237179Y-59006964D01*
X34279328Y-58998580D01*
X34406811Y-58945775D01*
X34521542Y-58869114D01*
X34619114Y-58771542D01*
X34695775Y-58656811D01*
X34748580Y-58529328D01*
X34775500Y-58393993D01*
X34775500Y-58256007D01*
X34775500Y-58256004D01*
X34748581Y-58120677D01*
X34748580Y-58120676D01*
X34748580Y-58120672D01*
X34726322Y-58066936D01*
X34695778Y-57993195D01*
X34695771Y-57993182D01*
X34619114Y-57878458D01*
X34619111Y-57878454D01*
X34553338Y-57812681D01*
X34519853Y-57751358D01*
X34524837Y-57681666D01*
X34553338Y-57637319D01*
X34619111Y-57571545D01*
X34619114Y-57571542D01*
X34695775Y-57456811D01*
X34748580Y-57329328D01*
X34775500Y-57193993D01*
X34775500Y-57056007D01*
X34775500Y-57056004D01*
X34748581Y-56920677D01*
X34748580Y-56920676D01*
X34748580Y-56920672D01*
X34734544Y-56886785D01*
X34695778Y-56793195D01*
X34695771Y-56793182D01*
X34619114Y-56678458D01*
X34619111Y-56678454D01*
X34521545Y-56580888D01*
X34521541Y-56580885D01*
X34406817Y-56504228D01*
X34406804Y-56504221D01*
X34279332Y-56451421D01*
X34279322Y-56451418D01*
X34143995Y-56424500D01*
X34143993Y-56424500D01*
X34006007Y-56424500D01*
X34006005Y-56424500D01*
X33870677Y-56451418D01*
X33870667Y-56451421D01*
X33743195Y-56504221D01*
X33743182Y-56504228D01*
X33628458Y-56580885D01*
X33628454Y-56580888D01*
X33530888Y-56678454D01*
X33530885Y-56678458D01*
X33454228Y-56793182D01*
X33454221Y-56793195D01*
X33401421Y-56920667D01*
X33401418Y-56920677D01*
X33374500Y-57056004D01*
X33374500Y-57056007D01*
X33374500Y-57193993D01*
X33374500Y-57193995D01*
X33374499Y-57193995D01*
X15875499Y-57193995D01*
X15875499Y-57193993D01*
X15875499Y-57056007D01*
X15875499Y-57056004D01*
X15848580Y-56920677D01*
X15848579Y-56920676D01*
X15848579Y-56920672D01*
X15834543Y-56886785D01*
X15795777Y-56793195D01*
X15795770Y-56793182D01*
X15719113Y-56678458D01*
X15719110Y-56678454D01*
X15621544Y-56580888D01*
X15621540Y-56580885D01*
X15506816Y-56504228D01*
X15506803Y-56504221D01*
X15379331Y-56451421D01*
X15379321Y-56451418D01*
X15243994Y-56424500D01*
X15243992Y-56424500D01*
X15106006Y-56424500D01*
X15106004Y-56424500D01*
X14970676Y-56451418D01*
X14970666Y-56451421D01*
X14843194Y-56504221D01*
X14843181Y-56504228D01*
X14728457Y-56580885D01*
X14728453Y-56580888D01*
X14630887Y-56678454D01*
X14630884Y-56678458D01*
X14554227Y-56793182D01*
X14554220Y-56793195D01*
X14501420Y-56920667D01*
X14501417Y-56920677D01*
X14474499Y-57056004D01*
X14474499Y-57056007D01*
X14474499Y-57193993D01*
X14474499Y-57193995D01*
X14474498Y-57193995D01*
X5250860Y-57193995D01*
X5281054Y-57121100D01*
X5343838Y-56886789D01*
X5375500Y-56646288D01*
X5375500Y-56403712D01*
X5375500Y-56403711D01*
X69674500Y-56403711D01*
X69674500Y-56646288D01*
X69706161Y-56886785D01*
X69768947Y-57121104D01*
X69799139Y-57193993D01*
X69861776Y-57345212D01*
X69983064Y-57555289D01*
X69983066Y-57555292D01*
X69983067Y-57555293D01*
X70130733Y-57747736D01*
X70130739Y-57747743D01*
X70302256Y-57919260D01*
X70302263Y-57919266D01*
X70398593Y-57993182D01*
X70494711Y-58066936D01*
X70704788Y-58188224D01*
X70928900Y-58281054D01*
X71163211Y-58343838D01*
X71343586Y-58367584D01*
X71403711Y-58375500D01*
X71403712Y-58375500D01*
X71646289Y-58375500D01*
X71694388Y-58369167D01*
X71886789Y-58343838D01*
X72121100Y-58281054D01*
X72345212Y-58188224D01*
X72555289Y-58066936D01*
X72747738Y-57919265D01*
X72919265Y-57747738D01*
X73066936Y-57555289D01*
X73188224Y-57345212D01*
X73281054Y-57121100D01*
X73343838Y-56886789D01*
X73375500Y-56646288D01*
X73375500Y-56403712D01*
X73343838Y-56163211D01*
X73281054Y-55928900D01*
X73188224Y-55704788D01*
X73066936Y-55494711D01*
X72919265Y-55302262D01*
X72919260Y-55302256D01*
X72747743Y-55130739D01*
X72747736Y-55130733D01*
X72555293Y-54983067D01*
X72555292Y-54983066D01*
X72555289Y-54983064D01*
X72345212Y-54861776D01*
X72345205Y-54861773D01*
X72121104Y-54768947D01*
X71886785Y-54706161D01*
X71646289Y-54674500D01*
X71646288Y-54674500D01*
X71403712Y-54674500D01*
X71403711Y-54674500D01*
X71163214Y-54706161D01*
X70928895Y-54768947D01*
X70704794Y-54861773D01*
X70704785Y-54861777D01*
X70494706Y-54983067D01*
X70302263Y-55130733D01*
X70302256Y-55130739D01*
X70130739Y-55302256D01*
X70130733Y-55302263D01*
X69983067Y-55494706D01*
X69861777Y-55704785D01*
X69861773Y-55704794D01*
X69768947Y-55928895D01*
X69706161Y-56163214D01*
X69674500Y-56403711D01*
X5375500Y-56403711D01*
X5343838Y-56163211D01*
X5281054Y-55928900D01*
X5188224Y-55704788D01*
X5066936Y-55494711D01*
X4919265Y-55302262D01*
X4919260Y-55302256D01*
X4747743Y-55130739D01*
X4747736Y-55130733D01*
X4555293Y-54983067D01*
X4555292Y-54983066D01*
X4555289Y-54983064D01*
X4345212Y-54861776D01*
X4345205Y-54861773D01*
X4121104Y-54768947D01*
X3886785Y-54706161D01*
X3646289Y-54674500D01*
X3646288Y-54674500D01*
X3403712Y-54674500D01*
X3403711Y-54674500D01*
X3163214Y-54706161D01*
X2928895Y-54768947D01*
X2704794Y-54861773D01*
X2704785Y-54861777D01*
X2494706Y-54983067D01*
X2302263Y-55130733D01*
X2302256Y-55130739D01*
X2130739Y-55302256D01*
X2130733Y-55302263D01*
X1983067Y-55494706D01*
X1861777Y-55704785D01*
X1861773Y-55704794D01*
X1768947Y-55928895D01*
X1706161Y-56163214D01*
X1674500Y-56403711D01*
X525500Y-56403711D01*
X525500Y-52877525D01*
X24524500Y-52877525D01*
X24524500Y-53022475D01*
X24562016Y-53162485D01*
X24562017Y-53162488D01*
X24634488Y-53288011D01*
X24634490Y-53288013D01*
X24634491Y-53288015D01*
X24736985Y-53390509D01*
X24736986Y-53390510D01*
X24736988Y-53390511D01*
X24862511Y-53462982D01*
X24862512Y-53462982D01*
X24862515Y-53462984D01*
X25002525Y-53500500D01*
X25002528Y-53500500D01*
X25147472Y-53500500D01*
X25147475Y-53500500D01*
X25287485Y-53462984D01*
X25413015Y-53390509D01*
X25515509Y-53288015D01*
X25587984Y-53162485D01*
X25625500Y-53022475D01*
X25625500Y-52877525D01*
X43424500Y-52877525D01*
X43424500Y-53022475D01*
X43462016Y-53162485D01*
X43462017Y-53162488D01*
X43534488Y-53288011D01*
X43534490Y-53288013D01*
X43534491Y-53288015D01*
X43636985Y-53390509D01*
X43636986Y-53390510D01*
X43636988Y-53390511D01*
X43762511Y-53462982D01*
X43762512Y-53462982D01*
X43762515Y-53462984D01*
X43902525Y-53500500D01*
X43902528Y-53500500D01*
X44047472Y-53500500D01*
X44047475Y-53500500D01*
X44187485Y-53462984D01*
X44313015Y-53390509D01*
X44415509Y-53288015D01*
X44487984Y-53162485D01*
X44525500Y-53022475D01*
X44525500Y-52877525D01*
X44487984Y-52737515D01*
X44415509Y-52611985D01*
X44313015Y-52509491D01*
X44313013Y-52509490D01*
X44313011Y-52509488D01*
X44187488Y-52437017D01*
X44187489Y-52437017D01*
X44176006Y-52433940D01*
X44047475Y-52399500D01*
X43902525Y-52399500D01*
X43773993Y-52433940D01*
X43762511Y-52437017D01*
X43636988Y-52509488D01*
X43636982Y-52509493D01*
X43534493Y-52611982D01*
X43534488Y-52611988D01*
X43462017Y-52737511D01*
X43462016Y-52737515D01*
X43424500Y-52877525D01*
X25625500Y-52877525D01*
X25587984Y-52737515D01*
X25515509Y-52611985D01*
X25413015Y-52509491D01*
X25413013Y-52509490D01*
X25413011Y-52509488D01*
X25287488Y-52437017D01*
X25287489Y-52437017D01*
X25276006Y-52433940D01*
X25147475Y-52399500D01*
X25002525Y-52399500D01*
X24873993Y-52433940D01*
X24862511Y-52437017D01*
X24736988Y-52509488D01*
X24736982Y-52509493D01*
X24634493Y-52611982D01*
X24634488Y-52611988D01*
X24562017Y-52737511D01*
X24562016Y-52737515D01*
X24524500Y-52877525D01*
X525500Y-52877525D01*
X525500Y-49445943D01*
X14924500Y-49445943D01*
X14924500Y-49604056D01*
X14965423Y-49756783D01*
X14965426Y-49756790D01*
X15044475Y-49893709D01*
X15044479Y-49893714D01*
X15044480Y-49893716D01*
X15156284Y-50005520D01*
X15156286Y-50005521D01*
X15156290Y-50005524D01*
X15293209Y-50084573D01*
X15293216Y-50084577D01*
X15445943Y-50125500D01*
X15445945Y-50125500D01*
X15604055Y-50125500D01*
X15604057Y-50125500D01*
X15756784Y-50084577D01*
X15893716Y-50005520D01*
X16005520Y-49893716D01*
X16084577Y-49756784D01*
X16125500Y-49604057D01*
X16125500Y-49445943D01*
X33824500Y-49445943D01*
X33824500Y-49604056D01*
X33865423Y-49756783D01*
X33865426Y-49756790D01*
X33944475Y-49893709D01*
X33944479Y-49893714D01*
X33944480Y-49893716D01*
X34056284Y-50005520D01*
X34056286Y-50005521D01*
X34056290Y-50005524D01*
X34193209Y-50084573D01*
X34193216Y-50084577D01*
X34345943Y-50125500D01*
X34345945Y-50125500D01*
X34504055Y-50125500D01*
X34504057Y-50125500D01*
X34656784Y-50084577D01*
X34793716Y-50005520D01*
X34905520Y-49893716D01*
X34984577Y-49756784D01*
X35025500Y-49604057D01*
X35025500Y-49445943D01*
X34984577Y-49293216D01*
X34984573Y-49293209D01*
X34905524Y-49156290D01*
X34905518Y-49156282D01*
X34793717Y-49044481D01*
X34793709Y-49044475D01*
X34656790Y-48965426D01*
X34656786Y-48965424D01*
X34656784Y-48965423D01*
X34504057Y-48924500D01*
X34345943Y-48924500D01*
X34193216Y-48965423D01*
X34193209Y-48965426D01*
X34056290Y-49044475D01*
X34056282Y-49044481D01*
X33944481Y-49156282D01*
X33944475Y-49156290D01*
X33865426Y-49293209D01*
X33865423Y-49293216D01*
X33824500Y-49445943D01*
X16125500Y-49445943D01*
X16084577Y-49293216D01*
X16084573Y-49293209D01*
X16005524Y-49156290D01*
X16005518Y-49156282D01*
X15893717Y-49044481D01*
X15893709Y-49044475D01*
X15756790Y-48965426D01*
X15756786Y-48965424D01*
X15756784Y-48965423D01*
X15604057Y-48924500D01*
X15445943Y-48924500D01*
X15293216Y-48965423D01*
X15293209Y-48965426D01*
X15156290Y-49044475D01*
X15156282Y-49044481D01*
X15044481Y-49156282D01*
X15044475Y-49156290D01*
X14965426Y-49293209D01*
X14965423Y-49293216D01*
X14924500Y-49445943D01*
X525500Y-49445943D01*
X525500Y-48152525D01*
X7274500Y-48152525D01*
X7274500Y-48297475D01*
X7312016Y-48437485D01*
X7312017Y-48437488D01*
X7384488Y-48563011D01*
X7384490Y-48563013D01*
X7384491Y-48563015D01*
X7486985Y-48665509D01*
X7486986Y-48665510D01*
X7486988Y-48665511D01*
X7612511Y-48737982D01*
X7612512Y-48737982D01*
X7612515Y-48737984D01*
X7752525Y-48775500D01*
X7752528Y-48775500D01*
X7897472Y-48775500D01*
X7897475Y-48775500D01*
X8037485Y-48737984D01*
X8163015Y-48665509D01*
X8265509Y-48563015D01*
X8337984Y-48437485D01*
X8375500Y-48297475D01*
X8375500Y-48152525D01*
X26474500Y-48152525D01*
X26474500Y-48297475D01*
X26512016Y-48437485D01*
X26512017Y-48437488D01*
X26584488Y-48563011D01*
X26584490Y-48563013D01*
X26584491Y-48563015D01*
X26686985Y-48665509D01*
X26686986Y-48665510D01*
X26686988Y-48665511D01*
X26812511Y-48737982D01*
X26812512Y-48737982D01*
X26812515Y-48737984D01*
X26952525Y-48775500D01*
X26952528Y-48775500D01*
X27097472Y-48775500D01*
X27097475Y-48775500D01*
X27237485Y-48737984D01*
X27363015Y-48665509D01*
X27465509Y-48563015D01*
X27537984Y-48437485D01*
X27575500Y-48297475D01*
X27575500Y-48152525D01*
X27537984Y-48012515D01*
X27465509Y-47886985D01*
X27363015Y-47784491D01*
X27363013Y-47784490D01*
X27363011Y-47784488D01*
X27237488Y-47712017D01*
X27237489Y-47712017D01*
X27226006Y-47708940D01*
X27097475Y-47674500D01*
X26952525Y-47674500D01*
X26823993Y-47708940D01*
X26812511Y-47712017D01*
X26686988Y-47784488D01*
X26686982Y-47784493D01*
X26584493Y-47886982D01*
X26584488Y-47886988D01*
X26512017Y-48012511D01*
X26512016Y-48012515D01*
X26474500Y-48152525D01*
X8375500Y-48152525D01*
X8337984Y-48012515D01*
X8265509Y-47886985D01*
X8163015Y-47784491D01*
X8163013Y-47784490D01*
X8163011Y-47784488D01*
X8037488Y-47712017D01*
X8037489Y-47712017D01*
X8026006Y-47708940D01*
X7897475Y-47674500D01*
X7752525Y-47674500D01*
X7623993Y-47708940D01*
X7612511Y-47712017D01*
X7486988Y-47784488D01*
X7486982Y-47784493D01*
X7384493Y-47886982D01*
X7384488Y-47886988D01*
X7312017Y-48012511D01*
X7312016Y-48012515D01*
X7274500Y-48152525D01*
X525500Y-48152525D01*
X525500Y-46845943D01*
X23174500Y-46845943D01*
X23174500Y-47004056D01*
X23215423Y-47156783D01*
X23215426Y-47156790D01*
X23294475Y-47293709D01*
X23294479Y-47293714D01*
X23294480Y-47293716D01*
X23406284Y-47405520D01*
X23406286Y-47405521D01*
X23406290Y-47405524D01*
X23543209Y-47484573D01*
X23543216Y-47484577D01*
X23695943Y-47525500D01*
X23695945Y-47525500D01*
X23854055Y-47525500D01*
X23854057Y-47525500D01*
X24006784Y-47484577D01*
X24143716Y-47405520D01*
X24255520Y-47293716D01*
X24334577Y-47156784D01*
X24375500Y-47004057D01*
X24375500Y-46845943D01*
X24334577Y-46693216D01*
X24293798Y-46622584D01*
X24255524Y-46556290D01*
X24255518Y-46556282D01*
X24143717Y-46444481D01*
X24143709Y-46444475D01*
X24006790Y-46365426D01*
X24006786Y-46365424D01*
X24006784Y-46365423D01*
X23854057Y-46324500D01*
X23695943Y-46324500D01*
X23543216Y-46365423D01*
X23543209Y-46365426D01*
X23406290Y-46444475D01*
X23406282Y-46444481D01*
X23294481Y-46556282D01*
X23294475Y-46556290D01*
X23215426Y-46693209D01*
X23215423Y-46693216D01*
X23174500Y-46845943D01*
X525500Y-46845943D01*
X525500Y-45380131D01*
X62724500Y-45380131D01*
X62724500Y-46369856D01*
X62724502Y-46369882D01*
X62727413Y-46394987D01*
X62727415Y-46394991D01*
X62772793Y-46497764D01*
X62772794Y-46497765D01*
X62852235Y-46577206D01*
X62955009Y-46622585D01*
X62980135Y-46625500D01*
X65069864Y-46625499D01*
X65069879Y-46625497D01*
X65069882Y-46625497D01*
X65094987Y-46622586D01*
X65094988Y-46622585D01*
X65094991Y-46622585D01*
X65197765Y-46577206D01*
X65277206Y-46497765D01*
X65322585Y-46394991D01*
X65325500Y-46369865D01*
X65325499Y-45380136D01*
X65325497Y-45380117D01*
X65322586Y-45355012D01*
X65322585Y-45355010D01*
X65322585Y-45355009D01*
X65277206Y-45252235D01*
X65197765Y-45172794D01*
X65197763Y-45172793D01*
X65094992Y-45127415D01*
X65069865Y-45124500D01*
X62980143Y-45124500D01*
X62980117Y-45124502D01*
X62955012Y-45127413D01*
X62955008Y-45127415D01*
X62852235Y-45172793D01*
X62772794Y-45252234D01*
X62727415Y-45355006D01*
X62727415Y-45355008D01*
X62724500Y-45380131D01*
X525500Y-45380131D01*
X525500Y-42730131D01*
X24874500Y-42730131D01*
X24874500Y-44519856D01*
X24874502Y-44519882D01*
X24877413Y-44544987D01*
X24877415Y-44544991D01*
X24922793Y-44647764D01*
X24922794Y-44647765D01*
X25002235Y-44727206D01*
X25105009Y-44772585D01*
X25130135Y-44775500D01*
X26919864Y-44775499D01*
X26919879Y-44775497D01*
X26919882Y-44775497D01*
X26944987Y-44772586D01*
X26944988Y-44772585D01*
X26944991Y-44772585D01*
X27047765Y-44727206D01*
X27127206Y-44647765D01*
X27172585Y-44544991D01*
X27175500Y-44519865D01*
X27175499Y-43782125D01*
X27195183Y-43715089D01*
X27247987Y-43669334D01*
X27317146Y-43659390D01*
X27380702Y-43688415D01*
X27418476Y-43747193D01*
X27421972Y-43762729D01*
X27442829Y-43894410D01*
X27498787Y-44066636D01*
X27498788Y-44066639D01*
X27554664Y-44176300D01*
X27580869Y-44227730D01*
X27581006Y-44227997D01*
X27687441Y-44374494D01*
X27687445Y-44374499D01*
X27815500Y-44502554D01*
X27815505Y-44502558D01*
X27943287Y-44595396D01*
X27962006Y-44608996D01*
X28038094Y-44647765D01*
X28123360Y-44691211D01*
X28123363Y-44691212D01*
X28209476Y-44719191D01*
X28295591Y-44747171D01*
X28378429Y-44760291D01*
X28474449Y-44775500D01*
X28474454Y-44775500D01*
X28655551Y-44775500D01*
X28742259Y-44761765D01*
X28834409Y-44747171D01*
X29006639Y-44691211D01*
X29167994Y-44608996D01*
X29314501Y-44502553D01*
X29442553Y-44374501D01*
X29548996Y-44227994D01*
X29631211Y-44066639D01*
X29687171Y-43894409D01*
X29701422Y-43804425D01*
X29712527Y-43734321D01*
X29742456Y-43671186D01*
X29801768Y-43634255D01*
X29871630Y-43635253D01*
X29929863Y-43673863D01*
X29957473Y-43734321D01*
X29982829Y-43894410D01*
X30038787Y-44066636D01*
X30038788Y-44066639D01*
X30094664Y-44176300D01*
X30120869Y-44227730D01*
X30121006Y-44227997D01*
X30227441Y-44374494D01*
X30227445Y-44374499D01*
X30355500Y-44502554D01*
X30355505Y-44502558D01*
X30483287Y-44595396D01*
X30502006Y-44608996D01*
X30578094Y-44647765D01*
X30663360Y-44691211D01*
X30663363Y-44691212D01*
X30749476Y-44719191D01*
X30835591Y-44747171D01*
X30918429Y-44760291D01*
X31014449Y-44775500D01*
X31014454Y-44775500D01*
X31195551Y-44775500D01*
X31282259Y-44761765D01*
X31374409Y-44747171D01*
X31546639Y-44691211D01*
X31707994Y-44608996D01*
X31854501Y-44502553D01*
X31982553Y-44374501D01*
X32088996Y-44227994D01*
X32171211Y-44066639D01*
X32227171Y-43894409D01*
X32252780Y-43732720D01*
X32282709Y-43669585D01*
X32342021Y-43632654D01*
X32411883Y-43633652D01*
X32470116Y-43672262D01*
X32497726Y-43732720D01*
X32523317Y-43894293D01*
X32579251Y-44066444D01*
X32579252Y-44066447D01*
X32661431Y-44227730D01*
X32672913Y-44243532D01*
X32672913Y-44243533D01*
X33162037Y-43754409D01*
X33179075Y-43817993D01*
X33244901Y-43932007D01*
X33337993Y-44025099D01*
X33452007Y-44090925D01*
X33515590Y-44107962D01*
X33026466Y-44597085D01*
X33026466Y-44597086D01*
X33042267Y-44608566D01*
X33042275Y-44608571D01*
X33203552Y-44690747D01*
X33203555Y-44690748D01*
X33375706Y-44746682D01*
X33554494Y-44775000D01*
X33735506Y-44775000D01*
X33914293Y-44746682D01*
X34086444Y-44690748D01*
X34086452Y-44690745D01*
X34247730Y-44608568D01*
X34263532Y-44597085D01*
X34263533Y-44597085D01*
X33774410Y-44107962D01*
X33837993Y-44090925D01*
X33952007Y-44025099D01*
X34045099Y-43932007D01*
X34110925Y-43817993D01*
X34127962Y-43754409D01*
X34617085Y-44243532D01*
X34628568Y-44227730D01*
X34710745Y-44066452D01*
X34710748Y-44066444D01*
X34766682Y-43894293D01*
X34795000Y-43715506D01*
X34795000Y-43534493D01*
X34766682Y-43355706D01*
X34710748Y-43183555D01*
X34710747Y-43183552D01*
X34628571Y-43022275D01*
X34628566Y-43022267D01*
X34617085Y-43006466D01*
X34127962Y-43495589D01*
X34110925Y-43432007D01*
X34045099Y-43317993D01*
X33952007Y-43224901D01*
X33837993Y-43159075D01*
X33774409Y-43142037D01*
X34186315Y-42730131D01*
X36174500Y-42730131D01*
X36174500Y-44519856D01*
X36174502Y-44519882D01*
X36177413Y-44544987D01*
X36177415Y-44544991D01*
X36222793Y-44647764D01*
X36222794Y-44647765D01*
X36302235Y-44727206D01*
X36405009Y-44772585D01*
X36430135Y-44775500D01*
X38219864Y-44775499D01*
X38219879Y-44775497D01*
X38219882Y-44775497D01*
X38244987Y-44772586D01*
X38244988Y-44772585D01*
X38244991Y-44772585D01*
X38347765Y-44727206D01*
X38427206Y-44647765D01*
X38472585Y-44544991D01*
X38475500Y-44519865D01*
X38475499Y-43782125D01*
X38495183Y-43715089D01*
X38547987Y-43669334D01*
X38617146Y-43659390D01*
X38680702Y-43688415D01*
X38718476Y-43747193D01*
X38721972Y-43762729D01*
X38742829Y-43894410D01*
X38798787Y-44066636D01*
X38798788Y-44066639D01*
X38854664Y-44176300D01*
X38880869Y-44227730D01*
X38881006Y-44227997D01*
X38987441Y-44374494D01*
X38987445Y-44374499D01*
X39115500Y-44502554D01*
X39115505Y-44502558D01*
X39243287Y-44595396D01*
X39262006Y-44608996D01*
X39338094Y-44647765D01*
X39423360Y-44691211D01*
X39423363Y-44691212D01*
X39509476Y-44719191D01*
X39595591Y-44747171D01*
X39678429Y-44760291D01*
X39774449Y-44775500D01*
X39774454Y-44775500D01*
X39955551Y-44775500D01*
X40042259Y-44761765D01*
X40134409Y-44747171D01*
X40306639Y-44691211D01*
X40467994Y-44608996D01*
X40614501Y-44502553D01*
X40742553Y-44374501D01*
X40848996Y-44227994D01*
X40931211Y-44066639D01*
X40987171Y-43894409D01*
X41001422Y-43804425D01*
X41012527Y-43734321D01*
X41042456Y-43671186D01*
X41101768Y-43634255D01*
X41171630Y-43635253D01*
X41229863Y-43673863D01*
X41257473Y-43734321D01*
X41282829Y-43894410D01*
X41338787Y-44066636D01*
X41338788Y-44066639D01*
X41394664Y-44176300D01*
X41420869Y-44227730D01*
X41421006Y-44227997D01*
X41527441Y-44374494D01*
X41527445Y-44374499D01*
X41655500Y-44502554D01*
X41655505Y-44502558D01*
X41783287Y-44595396D01*
X41802006Y-44608996D01*
X41878094Y-44647765D01*
X41963360Y-44691211D01*
X41963363Y-44691212D01*
X42049476Y-44719191D01*
X42135591Y-44747171D01*
X42218429Y-44760291D01*
X42314449Y-44775500D01*
X42314454Y-44775500D01*
X42495551Y-44775500D01*
X42582259Y-44761765D01*
X42674409Y-44747171D01*
X42846639Y-44691211D01*
X43007994Y-44608996D01*
X43154501Y-44502553D01*
X43282553Y-44374501D01*
X43388996Y-44227994D01*
X43471211Y-44066639D01*
X43527171Y-43894409D01*
X43552780Y-43732720D01*
X43582709Y-43669585D01*
X43642021Y-43632654D01*
X43711883Y-43633652D01*
X43770116Y-43672262D01*
X43797726Y-43732720D01*
X43823317Y-43894293D01*
X43879251Y-44066444D01*
X43879252Y-44066447D01*
X43961431Y-44227730D01*
X43972913Y-44243532D01*
X43972913Y-44243533D01*
X44462037Y-43754409D01*
X44479075Y-43817993D01*
X44544901Y-43932007D01*
X44637993Y-44025099D01*
X44752007Y-44090925D01*
X44815590Y-44107962D01*
X44326466Y-44597085D01*
X44326466Y-44597086D01*
X44342267Y-44608566D01*
X44342275Y-44608571D01*
X44503552Y-44690747D01*
X44503555Y-44690748D01*
X44675706Y-44746682D01*
X44854494Y-44775000D01*
X45035506Y-44775000D01*
X45214293Y-44746682D01*
X45386444Y-44690748D01*
X45386452Y-44690745D01*
X45547730Y-44608568D01*
X45563532Y-44597085D01*
X45563533Y-44597085D01*
X45074410Y-44107962D01*
X45137993Y-44090925D01*
X45252007Y-44025099D01*
X45345099Y-43932007D01*
X45410925Y-43817993D01*
X45427962Y-43754410D01*
X45917085Y-44243533D01*
X45917085Y-44243532D01*
X45928568Y-44227730D01*
X46010745Y-44066452D01*
X46010748Y-44066444D01*
X46066682Y-43894293D01*
X46095000Y-43715506D01*
X46095000Y-43534493D01*
X46066682Y-43355706D01*
X46010748Y-43183555D01*
X46010747Y-43183552D01*
X45928571Y-43022275D01*
X45928566Y-43022267D01*
X45917085Y-43006466D01*
X45427962Y-43495589D01*
X45410925Y-43432007D01*
X45345099Y-43317993D01*
X45252007Y-43224901D01*
X45137993Y-43159075D01*
X45074409Y-43142037D01*
X45370504Y-42845943D01*
X52324500Y-42845943D01*
X52324500Y-43004057D01*
X52329382Y-43022275D01*
X52365423Y-43156783D01*
X52365426Y-43156790D01*
X52444475Y-43293709D01*
X52444479Y-43293714D01*
X52444480Y-43293716D01*
X52556284Y-43405520D01*
X52556286Y-43405521D01*
X52556290Y-43405524D01*
X52691808Y-43483764D01*
X52693216Y-43484577D01*
X52845943Y-43525500D01*
X52845945Y-43525500D01*
X53004055Y-43525500D01*
X53004057Y-43525500D01*
X53156784Y-43484577D01*
X53293716Y-43405520D01*
X53405520Y-43293716D01*
X53484577Y-43156784D01*
X53525500Y-43004057D01*
X53525500Y-42845943D01*
X53484577Y-42693216D01*
X53413985Y-42570946D01*
X55674500Y-42570946D01*
X55674500Y-42879053D01*
X55674501Y-42879069D01*
X55714717Y-43184542D01*
X55794464Y-43482162D01*
X55912376Y-43766826D01*
X55912381Y-43766837D01*
X55986036Y-43894410D01*
X56066438Y-44033670D01*
X56066440Y-44033673D01*
X56066441Y-44033674D01*
X56254007Y-44278115D01*
X56254013Y-44278122D01*
X56471877Y-44495986D01*
X56471884Y-44495992D01*
X56603631Y-44597085D01*
X56716330Y-44683562D01*
X56887830Y-44782578D01*
X56983162Y-44837618D01*
X56983167Y-44837620D01*
X56983170Y-44837622D01*
X57267836Y-44955535D01*
X57565456Y-45035282D01*
X57870940Y-45075500D01*
X57870947Y-45075500D01*
X58179053Y-45075500D01*
X58179060Y-45075500D01*
X58484544Y-45035282D01*
X58782164Y-44955535D01*
X59066830Y-44837622D01*
X59333670Y-44683562D01*
X59578117Y-44495991D01*
X59795991Y-44278117D01*
X59983562Y-44033670D01*
X60137622Y-43766830D01*
X60255535Y-43482164D01*
X60335282Y-43184544D01*
X60375500Y-42879060D01*
X60375500Y-42570940D01*
X60335282Y-42265456D01*
X60255535Y-41967836D01*
X60137622Y-41683170D01*
X60137620Y-41683167D01*
X60137618Y-41683162D01*
X60082578Y-41587830D01*
X59983562Y-41416330D01*
X59795991Y-41171883D01*
X59795986Y-41171877D01*
X59578122Y-40954013D01*
X59578115Y-40954007D01*
X59333674Y-40766441D01*
X59333673Y-40766440D01*
X59333670Y-40766438D01*
X59227280Y-40705014D01*
X59066837Y-40612381D01*
X59066826Y-40612376D01*
X58782162Y-40494464D01*
X58484542Y-40414717D01*
X58179069Y-40374501D01*
X58179066Y-40374500D01*
X58179060Y-40374500D01*
X57870940Y-40374500D01*
X57870934Y-40374500D01*
X57870930Y-40374501D01*
X57565457Y-40414717D01*
X57267837Y-40494464D01*
X56983173Y-40612376D01*
X56983162Y-40612381D01*
X56716325Y-40766441D01*
X56471884Y-40954007D01*
X56471877Y-40954013D01*
X56254013Y-41171877D01*
X56254007Y-41171884D01*
X56066441Y-41416325D01*
X55912381Y-41683162D01*
X55912376Y-41683173D01*
X55794464Y-41967837D01*
X55714717Y-42265457D01*
X55674501Y-42570930D01*
X55674500Y-42570946D01*
X53413985Y-42570946D01*
X53407233Y-42559251D01*
X53405522Y-42556287D01*
X53405518Y-42556282D01*
X53293717Y-42444481D01*
X53293709Y-42444475D01*
X53156790Y-42365426D01*
X53156786Y-42365424D01*
X53156784Y-42365423D01*
X53004057Y-42324500D01*
X52845943Y-42324500D01*
X52693216Y-42365423D01*
X52693209Y-42365426D01*
X52556290Y-42444475D01*
X52556282Y-42444481D01*
X52444481Y-42556282D01*
X52444475Y-42556290D01*
X52365426Y-42693209D01*
X52365423Y-42693216D01*
X52324500Y-42845943D01*
X45370504Y-42845943D01*
X45466312Y-42750135D01*
X45563533Y-42652913D01*
X45547730Y-42641431D01*
X45386447Y-42559252D01*
X45386444Y-42559251D01*
X45214293Y-42503317D01*
X45035506Y-42475000D01*
X44854494Y-42475000D01*
X44675706Y-42503317D01*
X44503555Y-42559251D01*
X44503547Y-42559254D01*
X44342269Y-42641432D01*
X44326466Y-42652912D01*
X44326466Y-42652913D01*
X44815591Y-43142037D01*
X44752007Y-43159075D01*
X44637993Y-43224901D01*
X44544901Y-43317993D01*
X44479075Y-43432007D01*
X44462037Y-43495590D01*
X43972912Y-43006466D01*
X43961432Y-43022269D01*
X43879254Y-43183547D01*
X43879251Y-43183555D01*
X43823317Y-43355706D01*
X43797726Y-43517279D01*
X43767797Y-43580414D01*
X43708485Y-43617345D01*
X43638622Y-43616347D01*
X43580390Y-43577737D01*
X43552780Y-43517279D01*
X43539274Y-43432007D01*
X43527171Y-43355591D01*
X43484708Y-43224901D01*
X43471212Y-43183363D01*
X43471211Y-43183360D01*
X43441474Y-43125000D01*
X43388996Y-43022006D01*
X43285147Y-42879069D01*
X43282558Y-42875505D01*
X43282554Y-42875500D01*
X43154499Y-42747445D01*
X43154494Y-42747441D01*
X43007997Y-42641006D01*
X43007996Y-42641005D01*
X43007994Y-42641004D01*
X42931906Y-42602235D01*
X42846639Y-42558788D01*
X42846636Y-42558787D01*
X42674410Y-42502829D01*
X42495551Y-42474500D01*
X42495546Y-42474500D01*
X42314454Y-42474500D01*
X42314449Y-42474500D01*
X42135589Y-42502829D01*
X41963363Y-42558787D01*
X41963360Y-42558788D01*
X41802002Y-42641006D01*
X41655505Y-42747441D01*
X41655500Y-42747445D01*
X41527445Y-42875500D01*
X41527441Y-42875505D01*
X41421006Y-43022002D01*
X41338788Y-43183360D01*
X41338787Y-43183363D01*
X41282829Y-43355589D01*
X41257473Y-43515678D01*
X41227544Y-43578813D01*
X41168232Y-43615744D01*
X41098369Y-43614746D01*
X41040137Y-43576136D01*
X41012527Y-43515678D01*
X40998740Y-43428639D01*
X40987171Y-43355591D01*
X40944708Y-43224901D01*
X40931212Y-43183363D01*
X40931211Y-43183360D01*
X40901474Y-43125000D01*
X40848996Y-43022006D01*
X40745147Y-42879069D01*
X40742558Y-42875505D01*
X40742554Y-42875500D01*
X40614499Y-42747445D01*
X40614494Y-42747441D01*
X40467997Y-42641006D01*
X40467996Y-42641005D01*
X40467994Y-42641004D01*
X40391906Y-42602235D01*
X40306639Y-42558788D01*
X40306636Y-42558787D01*
X40134410Y-42502829D01*
X39955551Y-42474500D01*
X39955546Y-42474500D01*
X39774454Y-42474500D01*
X39774449Y-42474500D01*
X39595589Y-42502829D01*
X39423363Y-42558787D01*
X39423360Y-42558788D01*
X39262002Y-42641006D01*
X39115505Y-42747441D01*
X39115500Y-42747445D01*
X38987445Y-42875500D01*
X38987441Y-42875505D01*
X38881006Y-43022002D01*
X38798788Y-43183360D01*
X38798787Y-43183363D01*
X38742829Y-43355589D01*
X38721972Y-43487271D01*
X38692042Y-43550405D01*
X38632731Y-43587336D01*
X38562868Y-43586338D01*
X38504636Y-43547728D01*
X38476522Y-43483764D01*
X38475499Y-43467872D01*
X38475499Y-42730143D01*
X38475499Y-42730136D01*
X38475497Y-42730117D01*
X38472586Y-42705012D01*
X38472585Y-42705010D01*
X38472585Y-42705009D01*
X38427206Y-42602235D01*
X38347765Y-42522794D01*
X38303654Y-42503317D01*
X38244992Y-42477415D01*
X38219865Y-42474500D01*
X36430143Y-42474500D01*
X36430117Y-42474502D01*
X36405012Y-42477413D01*
X36405008Y-42477415D01*
X36302235Y-42522793D01*
X36222794Y-42602234D01*
X36177415Y-42705006D01*
X36177415Y-42705008D01*
X36174500Y-42730131D01*
X34186315Y-42730131D01*
X34263533Y-42652913D01*
X34247730Y-42641431D01*
X34086447Y-42559252D01*
X34086444Y-42559251D01*
X33914293Y-42503317D01*
X33735506Y-42475000D01*
X33554494Y-42475000D01*
X33375706Y-42503317D01*
X33203555Y-42559251D01*
X33203547Y-42559254D01*
X33042269Y-42641432D01*
X33026466Y-42652912D01*
X33026466Y-42652913D01*
X33515591Y-43142037D01*
X33452007Y-43159075D01*
X33337993Y-43224901D01*
X33244901Y-43317993D01*
X33179075Y-43432007D01*
X33162037Y-43495590D01*
X32672912Y-43006466D01*
X32661432Y-43022269D01*
X32579254Y-43183547D01*
X32579251Y-43183555D01*
X32523317Y-43355706D01*
X32497726Y-43517279D01*
X32467797Y-43580414D01*
X32408485Y-43617345D01*
X32338622Y-43616347D01*
X32280390Y-43577737D01*
X32252780Y-43517279D01*
X32239274Y-43432007D01*
X32227171Y-43355591D01*
X32184708Y-43224901D01*
X32171212Y-43183363D01*
X32171211Y-43183360D01*
X32141474Y-43125000D01*
X32088996Y-43022006D01*
X31985147Y-42879069D01*
X31982558Y-42875505D01*
X31982554Y-42875500D01*
X31854499Y-42747445D01*
X31854494Y-42747441D01*
X31707997Y-42641006D01*
X31707996Y-42641005D01*
X31707994Y-42641004D01*
X31631906Y-42602235D01*
X31546639Y-42558788D01*
X31546636Y-42558787D01*
X31374410Y-42502829D01*
X31195551Y-42474500D01*
X31195546Y-42474500D01*
X31014454Y-42474500D01*
X31014449Y-42474500D01*
X30835589Y-42502829D01*
X30663363Y-42558787D01*
X30663360Y-42558788D01*
X30502002Y-42641006D01*
X30355505Y-42747441D01*
X30355500Y-42747445D01*
X30227445Y-42875500D01*
X30227441Y-42875505D01*
X30121006Y-43022002D01*
X30038788Y-43183360D01*
X30038787Y-43183363D01*
X29982829Y-43355589D01*
X29957473Y-43515678D01*
X29927544Y-43578813D01*
X29868232Y-43615744D01*
X29798369Y-43614746D01*
X29740137Y-43576136D01*
X29712527Y-43515678D01*
X29698740Y-43428639D01*
X29687171Y-43355591D01*
X29644708Y-43224901D01*
X29631212Y-43183363D01*
X29631211Y-43183360D01*
X29601474Y-43125000D01*
X29548996Y-43022006D01*
X29445147Y-42879069D01*
X29442558Y-42875505D01*
X29442554Y-42875500D01*
X29314499Y-42747445D01*
X29314494Y-42747441D01*
X29167997Y-42641006D01*
X29167996Y-42641005D01*
X29167994Y-42641004D01*
X29091906Y-42602235D01*
X29006639Y-42558788D01*
X29006636Y-42558787D01*
X28834410Y-42502829D01*
X28655551Y-42474500D01*
X28655546Y-42474500D01*
X28474454Y-42474500D01*
X28474449Y-42474500D01*
X28295589Y-42502829D01*
X28123363Y-42558787D01*
X28123360Y-42558788D01*
X27962002Y-42641006D01*
X27815505Y-42747441D01*
X27815500Y-42747445D01*
X27687445Y-42875500D01*
X27687441Y-42875505D01*
X27581006Y-43022002D01*
X27498788Y-43183360D01*
X27498787Y-43183363D01*
X27442829Y-43355589D01*
X27421972Y-43487271D01*
X27392042Y-43550405D01*
X27332731Y-43587336D01*
X27262868Y-43586338D01*
X27204636Y-43547728D01*
X27176522Y-43483764D01*
X27175499Y-43467872D01*
X27175499Y-42730143D01*
X27175499Y-42730136D01*
X27175497Y-42730117D01*
X27172586Y-42705012D01*
X27172585Y-42705010D01*
X27172585Y-42705009D01*
X27127206Y-42602235D01*
X27047765Y-42522794D01*
X27003654Y-42503317D01*
X26944992Y-42477415D01*
X26919865Y-42474500D01*
X25130143Y-42474500D01*
X25130117Y-42474502D01*
X25105012Y-42477413D01*
X25105008Y-42477415D01*
X25002235Y-42522793D01*
X24922794Y-42602234D01*
X24877415Y-42705006D01*
X24877415Y-42705008D01*
X24874500Y-42730131D01*
X525500Y-42730131D01*
X525500Y-40445943D01*
X26694500Y-40445943D01*
X26694500Y-40604057D01*
X26696731Y-40612381D01*
X26735423Y-40756783D01*
X26735426Y-40756790D01*
X26814475Y-40893709D01*
X26814479Y-40893714D01*
X26814480Y-40893716D01*
X26926284Y-41005520D01*
X26926286Y-41005521D01*
X26926290Y-41005524D01*
X27063209Y-41084573D01*
X27063216Y-41084577D01*
X27215943Y-41125500D01*
X27215945Y-41125500D01*
X27374055Y-41125500D01*
X27374057Y-41125500D01*
X27526784Y-41084577D01*
X27663716Y-41005520D01*
X27775520Y-40893716D01*
X27854577Y-40756784D01*
X27895500Y-40604057D01*
X27895500Y-40445943D01*
X27854577Y-40293216D01*
X27854573Y-40293209D01*
X27775524Y-40156290D01*
X27775518Y-40156282D01*
X27663717Y-40044481D01*
X27663709Y-40044475D01*
X27526790Y-39965426D01*
X27526786Y-39965424D01*
X27526784Y-39965423D01*
X27374057Y-39924500D01*
X27215943Y-39924500D01*
X27063216Y-39965423D01*
X27063209Y-39965426D01*
X26926290Y-40044475D01*
X26926282Y-40044481D01*
X26814481Y-40156282D01*
X26814475Y-40156290D01*
X26735426Y-40293209D01*
X26735423Y-40293216D01*
X26694500Y-40445943D01*
X525500Y-40445943D01*
X525500Y-38545943D01*
X45924500Y-38545943D01*
X45924500Y-38704056D01*
X45965423Y-38856783D01*
X45965426Y-38856790D01*
X46044475Y-38993709D01*
X46044479Y-38993714D01*
X46044480Y-38993716D01*
X46156284Y-39105520D01*
X46156286Y-39105521D01*
X46156290Y-39105524D01*
X46293209Y-39184573D01*
X46293216Y-39184577D01*
X46445943Y-39225500D01*
X46445945Y-39225500D01*
X46604055Y-39225500D01*
X46604057Y-39225500D01*
X46756784Y-39184577D01*
X46893716Y-39105520D01*
X47005520Y-38993716D01*
X47084577Y-38856784D01*
X47125500Y-38704057D01*
X47125500Y-38545943D01*
X47084577Y-38393216D01*
X47084573Y-38393209D01*
X47005524Y-38256290D01*
X47005518Y-38256282D01*
X46893717Y-38144481D01*
X46893709Y-38144475D01*
X46756790Y-38065426D01*
X46756786Y-38065424D01*
X46756784Y-38065423D01*
X46604057Y-38024500D01*
X46445943Y-38024500D01*
X46293216Y-38065423D01*
X46293209Y-38065426D01*
X46156290Y-38144475D01*
X46156282Y-38144481D01*
X46044481Y-38256282D01*
X46044475Y-38256290D01*
X45965426Y-38393209D01*
X45965423Y-38393216D01*
X45924500Y-38545943D01*
X525500Y-38545943D01*
X525500Y-36043995D01*
X1524499Y-36043995D01*
X1551418Y-36179322D01*
X1551421Y-36179332D01*
X1604221Y-36306804D01*
X1604228Y-36306817D01*
X1680885Y-36421541D01*
X1680888Y-36421545D01*
X1696662Y-36437319D01*
X1730147Y-36498642D01*
X1725163Y-36568334D01*
X1696662Y-36612681D01*
X1680888Y-36628454D01*
X1680885Y-36628458D01*
X1604228Y-36743182D01*
X1604221Y-36743195D01*
X1551421Y-36870667D01*
X1551418Y-36870677D01*
X1524500Y-37006004D01*
X1524500Y-37006007D01*
X1524500Y-37143993D01*
X1524500Y-37143995D01*
X1524499Y-37143995D01*
X1551418Y-37279322D01*
X1551421Y-37279332D01*
X1604221Y-37406804D01*
X1604228Y-37406817D01*
X1680885Y-37521541D01*
X1680888Y-37521545D01*
X1778454Y-37619111D01*
X1778458Y-37619114D01*
X1893182Y-37695771D01*
X1893195Y-37695778D01*
X2020667Y-37748578D01*
X2020672Y-37748580D01*
X2020676Y-37748580D01*
X2020677Y-37748581D01*
X2156004Y-37775500D01*
X2156007Y-37775500D01*
X2293995Y-37775500D01*
X2385041Y-37757389D01*
X2429328Y-37748580D01*
X2556811Y-37695775D01*
X2671542Y-37619114D01*
X2769114Y-37521542D01*
X2845775Y-37406811D01*
X2846546Y-37404951D01*
X2898578Y-37279332D01*
X2898580Y-37279328D01*
X2925500Y-37143993D01*
X2925500Y-37006007D01*
X2925500Y-37006004D01*
X2898581Y-36870677D01*
X2898580Y-36870676D01*
X2898580Y-36870672D01*
X2898578Y-36870667D01*
X2845778Y-36743195D01*
X2845771Y-36743182D01*
X2769114Y-36628458D01*
X2769111Y-36628454D01*
X2753338Y-36612681D01*
X2719853Y-36551358D01*
X2724837Y-36481666D01*
X2753338Y-36437319D01*
X2769111Y-36421545D01*
X2769114Y-36421542D01*
X2845775Y-36306811D01*
X2898580Y-36179328D01*
X2925500Y-36043993D01*
X2925500Y-35906007D01*
X2925500Y-35906004D01*
X2898581Y-35770677D01*
X2898580Y-35770676D01*
X2898580Y-35770672D01*
X2875730Y-35715506D01*
X2845778Y-35643195D01*
X2845771Y-35643182D01*
X2769114Y-35528458D01*
X2769111Y-35528454D01*
X2671545Y-35430888D01*
X2671541Y-35430885D01*
X2556817Y-35354228D01*
X2556808Y-35354223D01*
X2447532Y-35308960D01*
X2447531Y-35308960D01*
X2429328Y-35301420D01*
X2429323Y-35301419D01*
X2429322Y-35301418D01*
X2293995Y-35274500D01*
X2293993Y-35274500D01*
X2156007Y-35274500D01*
X2156005Y-35274500D01*
X2020677Y-35301418D01*
X2020667Y-35301421D01*
X1893195Y-35354221D01*
X1893182Y-35354228D01*
X1778458Y-35430885D01*
X1778454Y-35430888D01*
X1680888Y-35528454D01*
X1680885Y-35528458D01*
X1604228Y-35643182D01*
X1604221Y-35643195D01*
X1551421Y-35770667D01*
X1551418Y-35770677D01*
X1524500Y-35906004D01*
X1524500Y-35906007D01*
X1524500Y-36043993D01*
X1524500Y-36043995D01*
X1524499Y-36043995D01*
X525500Y-36043995D01*
X525500Y-35202525D01*
X35374500Y-35202525D01*
X35374500Y-35347475D01*
X35396851Y-35430888D01*
X35412017Y-35487488D01*
X35484488Y-35613011D01*
X35484490Y-35613013D01*
X35484491Y-35613015D01*
X35586985Y-35715509D01*
X35586986Y-35715510D01*
X35586988Y-35715511D01*
X35712511Y-35787982D01*
X35712512Y-35787982D01*
X35712515Y-35787984D01*
X35852525Y-35825500D01*
X35852528Y-35825500D01*
X35997472Y-35825500D01*
X35997475Y-35825500D01*
X36137485Y-35787984D01*
X36263015Y-35715509D01*
X36365509Y-35613015D01*
X36437984Y-35487485D01*
X36475500Y-35347475D01*
X36475500Y-35202525D01*
X36437984Y-35062515D01*
X36405805Y-35006780D01*
X36365511Y-34936988D01*
X36365506Y-34936982D01*
X36263017Y-34834493D01*
X36263011Y-34834488D01*
X36137488Y-34762017D01*
X36137489Y-34762017D01*
X36124542Y-34758548D01*
X35997475Y-34724500D01*
X35852525Y-34724500D01*
X35725458Y-34758548D01*
X35712511Y-34762017D01*
X35586988Y-34834488D01*
X35586982Y-34834493D01*
X35484493Y-34936982D01*
X35484488Y-34936988D01*
X35412017Y-35062511D01*
X35412016Y-35062515D01*
X35374500Y-35202525D01*
X525500Y-35202525D01*
X525500Y-34293995D01*
X18424499Y-34293995D01*
X18451418Y-34429322D01*
X18451421Y-34429332D01*
X18504221Y-34556804D01*
X18504228Y-34556817D01*
X18580885Y-34671541D01*
X18580888Y-34671545D01*
X18678454Y-34769111D01*
X18678458Y-34769114D01*
X18793182Y-34845771D01*
X18793195Y-34845778D01*
X18920667Y-34898578D01*
X18920672Y-34898580D01*
X18920676Y-34898580D01*
X18920677Y-34898581D01*
X19056004Y-34925500D01*
X19056007Y-34925500D01*
X19193995Y-34925500D01*
X19285041Y-34907389D01*
X19329328Y-34898580D01*
X19456811Y-34845775D01*
X19556109Y-34779425D01*
X19622786Y-34758548D01*
X19690166Y-34777032D01*
X19693889Y-34779425D01*
X19793189Y-34845775D01*
X19793191Y-34845776D01*
X19793195Y-34845778D01*
X19920667Y-34898578D01*
X19920672Y-34898580D01*
X19920676Y-34898580D01*
X19920677Y-34898581D01*
X20056004Y-34925500D01*
X20056007Y-34925500D01*
X20193995Y-34925500D01*
X20285041Y-34907389D01*
X20329328Y-34898580D01*
X20456811Y-34845775D01*
X20571542Y-34769114D01*
X20669114Y-34671542D01*
X20745775Y-34556811D01*
X20798580Y-34429328D01*
X20825500Y-34293993D01*
X20825500Y-34156007D01*
X20825500Y-34156004D01*
X20798581Y-34020677D01*
X20798580Y-34020676D01*
X20798580Y-34020672D01*
X20763915Y-33936982D01*
X20745778Y-33893195D01*
X20745771Y-33893182D01*
X20669114Y-33778458D01*
X20669111Y-33778454D01*
X20593182Y-33702525D01*
X40474500Y-33702525D01*
X40474500Y-33847475D01*
X40512016Y-33987485D01*
X40512017Y-33987488D01*
X40584488Y-34113011D01*
X40584490Y-34113013D01*
X40584491Y-34113015D01*
X40686985Y-34215509D01*
X40686986Y-34215510D01*
X40686988Y-34215511D01*
X40812511Y-34287982D01*
X40812512Y-34287982D01*
X40812515Y-34287984D01*
X40952525Y-34325500D01*
X40952528Y-34325500D01*
X41097472Y-34325500D01*
X41097475Y-34325500D01*
X41237485Y-34287984D01*
X41363015Y-34215509D01*
X41375999Y-34202525D01*
X43474500Y-34202525D01*
X43474500Y-34347475D01*
X43512016Y-34487485D01*
X43512017Y-34487488D01*
X43584488Y-34613011D01*
X43584490Y-34613013D01*
X43584491Y-34613015D01*
X43686985Y-34715509D01*
X43686986Y-34715510D01*
X43686988Y-34715511D01*
X43812511Y-34787982D01*
X43812512Y-34787982D01*
X43812515Y-34787984D01*
X43952525Y-34825500D01*
X43952528Y-34825500D01*
X44097472Y-34825500D01*
X44097475Y-34825500D01*
X44237485Y-34787984D01*
X44363015Y-34715509D01*
X44465509Y-34613015D01*
X44537984Y-34487485D01*
X44550131Y-34442152D01*
X55675000Y-34442152D01*
X55675000Y-35275000D01*
X56697769Y-35275000D01*
X56675000Y-35418753D01*
X56675000Y-35631247D01*
X56697769Y-35775000D01*
X55675000Y-35775000D01*
X55675000Y-36607847D01*
X55690145Y-36780958D01*
X55690147Y-36780968D01*
X55750148Y-37004900D01*
X55750152Y-37004909D01*
X55848132Y-37215030D01*
X55981118Y-37404951D01*
X56145048Y-37568881D01*
X56334969Y-37701867D01*
X56545090Y-37799847D01*
X56545099Y-37799851D01*
X56769031Y-37859852D01*
X56769041Y-37859854D01*
X56942152Y-37874999D01*
X56942153Y-37875000D01*
X57775000Y-37875000D01*
X57775000Y-36852231D01*
X57918753Y-36875000D01*
X58131247Y-36875000D01*
X58275000Y-36852231D01*
X58275000Y-37875000D01*
X59107847Y-37875000D01*
X59107847Y-37874999D01*
X59280958Y-37859854D01*
X59280968Y-37859852D01*
X59504900Y-37799851D01*
X59504909Y-37799847D01*
X59715030Y-37701867D01*
X59904951Y-37568881D01*
X60068881Y-37404951D01*
X60201867Y-37215030D01*
X60299847Y-37004909D01*
X60299851Y-37004900D01*
X60359852Y-36780968D01*
X60359854Y-36780958D01*
X60374999Y-36607847D01*
X60375000Y-36607847D01*
X60375000Y-35775000D01*
X59352231Y-35775000D01*
X59375000Y-35631247D01*
X59375000Y-35418753D01*
X59352231Y-35275000D01*
X60375000Y-35275000D01*
X60375000Y-34442153D01*
X60374999Y-34442152D01*
X60359854Y-34269041D01*
X60359852Y-34269031D01*
X60299851Y-34045099D01*
X60299847Y-34045090D01*
X60201867Y-33834969D01*
X60068881Y-33645048D01*
X59904951Y-33481118D01*
X59715030Y-33348132D01*
X59504909Y-33250152D01*
X59504900Y-33250148D01*
X59280968Y-33190147D01*
X59280958Y-33190145D01*
X59107847Y-33175000D01*
X58275000Y-33175000D01*
X58275000Y-34197768D01*
X58131247Y-34175000D01*
X57918753Y-34175000D01*
X57775000Y-34197768D01*
X57775000Y-33175000D01*
X56942153Y-33175000D01*
X56769041Y-33190145D01*
X56769031Y-33190147D01*
X56545099Y-33250148D01*
X56545090Y-33250152D01*
X56334969Y-33348132D01*
X56145048Y-33481118D01*
X55981118Y-33645048D01*
X55848132Y-33834969D01*
X55750152Y-34045090D01*
X55750148Y-34045099D01*
X55690147Y-34269031D01*
X55690145Y-34269041D01*
X55675000Y-34442152D01*
X44550131Y-34442152D01*
X44575500Y-34347475D01*
X44575500Y-34202525D01*
X44537984Y-34062515D01*
X44494665Y-33987485D01*
X44465511Y-33936988D01*
X44465506Y-33936982D01*
X44363017Y-33834493D01*
X44363011Y-33834488D01*
X44237488Y-33762017D01*
X44237489Y-33762017D01*
X44226006Y-33758940D01*
X44097475Y-33724500D01*
X43952525Y-33724500D01*
X43823993Y-33758940D01*
X43812511Y-33762017D01*
X43686988Y-33834488D01*
X43686982Y-33834493D01*
X43584493Y-33936982D01*
X43584488Y-33936988D01*
X43512017Y-34062511D01*
X43512016Y-34062515D01*
X43474500Y-34202525D01*
X41375999Y-34202525D01*
X41465509Y-34113015D01*
X41537984Y-33987485D01*
X41575500Y-33847475D01*
X41575500Y-33702525D01*
X41537984Y-33562515D01*
X41531578Y-33551420D01*
X41465511Y-33436988D01*
X41465506Y-33436982D01*
X41363017Y-33334493D01*
X41363011Y-33334488D01*
X41237488Y-33262017D01*
X41237489Y-33262017D01*
X41226006Y-33258940D01*
X41097475Y-33224500D01*
X40952525Y-33224500D01*
X40823993Y-33258940D01*
X40812511Y-33262017D01*
X40686988Y-33334488D01*
X40686982Y-33334493D01*
X40584493Y-33436982D01*
X40584488Y-33436988D01*
X40512017Y-33562511D01*
X40512016Y-33562515D01*
X40474500Y-33702525D01*
X20593182Y-33702525D01*
X20571545Y-33680888D01*
X20571541Y-33680885D01*
X20456817Y-33604228D01*
X20456804Y-33604221D01*
X20329332Y-33551421D01*
X20329322Y-33551418D01*
X20193995Y-33524500D01*
X20193993Y-33524500D01*
X20056007Y-33524500D01*
X20056005Y-33524500D01*
X19920677Y-33551418D01*
X19920667Y-33551421D01*
X19793195Y-33604221D01*
X19793182Y-33604228D01*
X19693891Y-33670573D01*
X19627213Y-33691451D01*
X19559833Y-33672966D01*
X19556109Y-33670573D01*
X19456817Y-33604228D01*
X19456804Y-33604221D01*
X19329332Y-33551421D01*
X19329322Y-33551418D01*
X19193995Y-33524500D01*
X19193993Y-33524500D01*
X19056007Y-33524500D01*
X19056005Y-33524500D01*
X18920677Y-33551418D01*
X18920667Y-33551421D01*
X18793195Y-33604221D01*
X18793182Y-33604228D01*
X18678458Y-33680885D01*
X18678454Y-33680888D01*
X18580888Y-33778454D01*
X18580885Y-33778458D01*
X18504228Y-33893182D01*
X18504221Y-33893195D01*
X18451421Y-34020667D01*
X18451418Y-34020677D01*
X18424500Y-34156004D01*
X18424500Y-34156007D01*
X18424500Y-34293993D01*
X18424500Y-34293995D01*
X18424499Y-34293995D01*
X525500Y-34293995D01*
X525500Y-32502524D01*
X35724500Y-32502524D01*
X35724500Y-32647474D01*
X35756128Y-32765510D01*
X35762017Y-32787487D01*
X35834488Y-32913010D01*
X35834490Y-32913012D01*
X35834491Y-32913014D01*
X35936985Y-33015508D01*
X35936986Y-33015509D01*
X35936988Y-33015510D01*
X36062511Y-33087981D01*
X36062512Y-33087981D01*
X36062515Y-33087983D01*
X36202525Y-33125499D01*
X36202528Y-33125499D01*
X36347472Y-33125499D01*
X36347475Y-33125499D01*
X36487485Y-33087983D01*
X36613015Y-33015508D01*
X36715509Y-32913014D01*
X36787984Y-32787484D01*
X36825500Y-32647474D01*
X36825500Y-32502524D01*
X36787984Y-32362514D01*
X36759403Y-32313011D01*
X36715511Y-32236987D01*
X36715506Y-32236981D01*
X36613017Y-32134492D01*
X36613011Y-32134487D01*
X36487488Y-32062016D01*
X36487489Y-32062016D01*
X36476006Y-32058939D01*
X36347475Y-32024499D01*
X36202525Y-32024499D01*
X36073993Y-32058939D01*
X36062511Y-32062016D01*
X35936988Y-32134487D01*
X35936982Y-32134492D01*
X35834493Y-32236981D01*
X35834488Y-32236987D01*
X35762017Y-32362510D01*
X35762016Y-32362514D01*
X35724500Y-32502524D01*
X525500Y-32502524D01*
X525500Y-31902525D01*
X37224500Y-31902525D01*
X37224500Y-32047475D01*
X37253262Y-32154815D01*
X37262017Y-32187488D01*
X37334488Y-32313011D01*
X37334490Y-32313013D01*
X37334491Y-32313015D01*
X37436985Y-32415509D01*
X37436986Y-32415510D01*
X37436988Y-32415511D01*
X37562511Y-32487982D01*
X37562512Y-32487982D01*
X37562515Y-32487984D01*
X37702525Y-32525500D01*
X37702528Y-32525500D01*
X37847472Y-32525500D01*
X37847475Y-32525500D01*
X37987485Y-32487984D01*
X38113015Y-32415509D01*
X38215509Y-32313015D01*
X38250434Y-32252524D01*
X38674500Y-32252524D01*
X38674500Y-32397474D01*
X38708805Y-32525500D01*
X38712017Y-32537487D01*
X38784488Y-32663010D01*
X38784490Y-32663012D01*
X38784491Y-32663014D01*
X38886985Y-32765508D01*
X38886986Y-32765509D01*
X38886988Y-32765510D01*
X39012511Y-32837981D01*
X39012512Y-32837981D01*
X39012515Y-32837983D01*
X39152525Y-32875499D01*
X39204637Y-32875499D01*
X39271676Y-32895184D01*
X39312024Y-32937499D01*
X39384491Y-33063015D01*
X39486985Y-33165509D01*
X39486986Y-33165510D01*
X39486988Y-33165511D01*
X39612511Y-33237982D01*
X39612512Y-33237982D01*
X39612515Y-33237984D01*
X39752525Y-33275500D01*
X39752528Y-33275500D01*
X39897472Y-33275500D01*
X39897475Y-33275500D01*
X40037485Y-33237984D01*
X40163015Y-33165509D01*
X40265509Y-33063015D01*
X40333101Y-32945943D01*
X48264500Y-32945943D01*
X48264500Y-33104057D01*
X48270246Y-33125499D01*
X48305423Y-33256783D01*
X48305426Y-33256790D01*
X48384475Y-33393709D01*
X48384479Y-33393714D01*
X48384480Y-33393716D01*
X48496284Y-33505520D01*
X48496286Y-33505521D01*
X48496290Y-33505524D01*
X48594996Y-33562511D01*
X48633216Y-33584577D01*
X48785943Y-33625500D01*
X48785945Y-33625500D01*
X48944055Y-33625500D01*
X48944057Y-33625500D01*
X49096784Y-33584577D01*
X49233716Y-33505520D01*
X49345520Y-33393716D01*
X49424577Y-33256784D01*
X49465500Y-33104057D01*
X49465500Y-32945943D01*
X49424577Y-32793216D01*
X49349406Y-32663014D01*
X49345524Y-32656290D01*
X49345518Y-32656282D01*
X49233717Y-32544481D01*
X49233709Y-32544475D01*
X49096790Y-32465426D01*
X49096786Y-32465424D01*
X49096784Y-32465423D01*
X48944057Y-32424500D01*
X48785943Y-32424500D01*
X48633216Y-32465423D01*
X48633209Y-32465426D01*
X48496290Y-32544475D01*
X48496282Y-32544481D01*
X48384481Y-32656282D01*
X48384475Y-32656290D01*
X48305426Y-32793209D01*
X48305423Y-32793216D01*
X48264500Y-32945943D01*
X40333101Y-32945943D01*
X40337984Y-32937485D01*
X40375500Y-32797475D01*
X40375500Y-32652525D01*
X40337984Y-32512515D01*
X40310795Y-32465423D01*
X40265511Y-32386988D01*
X40265506Y-32386982D01*
X40163017Y-32284493D01*
X40163011Y-32284488D01*
X40037488Y-32212017D01*
X40037489Y-32212017D01*
X40026006Y-32208940D01*
X39897475Y-32174500D01*
X39897472Y-32174500D01*
X39845363Y-32174500D01*
X39778324Y-32154815D01*
X39737976Y-32112500D01*
X39708828Y-32062015D01*
X39665509Y-31986984D01*
X39563015Y-31884490D01*
X39563013Y-31884489D01*
X39563011Y-31884487D01*
X39437488Y-31812016D01*
X39437485Y-31812015D01*
X39297475Y-31774499D01*
X39152525Y-31774499D01*
X39023993Y-31808939D01*
X39012511Y-31812016D01*
X38886988Y-31884487D01*
X38886982Y-31884492D01*
X38784493Y-31986981D01*
X38784488Y-31986987D01*
X38712017Y-32112510D01*
X38712016Y-32112514D01*
X38674500Y-32252524D01*
X38250434Y-32252524D01*
X38287984Y-32187485D01*
X38325500Y-32047475D01*
X38325500Y-31902525D01*
X38287984Y-31762515D01*
X38282048Y-31752234D01*
X38253349Y-31702525D01*
X43474500Y-31702525D01*
X43474500Y-31847475D01*
X43511881Y-31986981D01*
X43512017Y-31987488D01*
X43584488Y-32113011D01*
X43584490Y-32113013D01*
X43584491Y-32113015D01*
X43686985Y-32215509D01*
X43686986Y-32215510D01*
X43686988Y-32215511D01*
X43812511Y-32287982D01*
X43812512Y-32287982D01*
X43812515Y-32287984D01*
X43952525Y-32325500D01*
X43952528Y-32325500D01*
X44097472Y-32325500D01*
X44097475Y-32325500D01*
X44237485Y-32287984D01*
X44363015Y-32215509D01*
X44465509Y-32113015D01*
X44537984Y-31987485D01*
X44566750Y-31880131D01*
X62724500Y-31880131D01*
X62724500Y-32869856D01*
X62724502Y-32869882D01*
X62727413Y-32894987D01*
X62727415Y-32894991D01*
X62772793Y-32997764D01*
X62772794Y-32997765D01*
X62852235Y-33077206D01*
X62955009Y-33122585D01*
X62980135Y-33125500D01*
X65069864Y-33125499D01*
X65069879Y-33125497D01*
X65069882Y-33125497D01*
X65094987Y-33122586D01*
X65094988Y-33122585D01*
X65094991Y-33122585D01*
X65197765Y-33077206D01*
X65277206Y-32997765D01*
X65322585Y-32894991D01*
X65325500Y-32869865D01*
X65325499Y-31880136D01*
X65325497Y-31880117D01*
X65322586Y-31855012D01*
X65322585Y-31855010D01*
X65322585Y-31855009D01*
X65277206Y-31752235D01*
X65197765Y-31672794D01*
X65197763Y-31672793D01*
X65094992Y-31627415D01*
X65069865Y-31624500D01*
X62980143Y-31624500D01*
X62980117Y-31624502D01*
X62955012Y-31627413D01*
X62955008Y-31627415D01*
X62852235Y-31672793D01*
X62772794Y-31752234D01*
X62727415Y-31855006D01*
X62727415Y-31855008D01*
X62724500Y-31880131D01*
X44566750Y-31880131D01*
X44575500Y-31847475D01*
X44575500Y-31702525D01*
X44537984Y-31562515D01*
X44521805Y-31534493D01*
X44465511Y-31436988D01*
X44465506Y-31436982D01*
X44363017Y-31334493D01*
X44363011Y-31334488D01*
X44237488Y-31262017D01*
X44237489Y-31262017D01*
X44226006Y-31258940D01*
X44097475Y-31224500D01*
X43952525Y-31224500D01*
X43823993Y-31258940D01*
X43812511Y-31262017D01*
X43686988Y-31334488D01*
X43686982Y-31334493D01*
X43584493Y-31436982D01*
X43584488Y-31436988D01*
X43512017Y-31562511D01*
X43512016Y-31562515D01*
X43474500Y-31702525D01*
X38253349Y-31702525D01*
X38215511Y-31636988D01*
X38215506Y-31636982D01*
X38113017Y-31534493D01*
X38113011Y-31534488D01*
X37987488Y-31462017D01*
X37987489Y-31462017D01*
X37976006Y-31458940D01*
X37847475Y-31424500D01*
X37702525Y-31424500D01*
X37573993Y-31458940D01*
X37562511Y-31462017D01*
X37436988Y-31534488D01*
X37436982Y-31534493D01*
X37334493Y-31636982D01*
X37334488Y-31636988D01*
X37262017Y-31762511D01*
X37262016Y-31762515D01*
X37224500Y-31902525D01*
X525500Y-31902525D01*
X525500Y-28545943D01*
X31424500Y-28545943D01*
X31424500Y-28704057D01*
X31441497Y-28767488D01*
X31465423Y-28856783D01*
X31465426Y-28856790D01*
X31544475Y-28993709D01*
X31544479Y-28993714D01*
X31544480Y-28993716D01*
X31656284Y-29105520D01*
X31656286Y-29105521D01*
X31656290Y-29105524D01*
X31793209Y-29184573D01*
X31793216Y-29184577D01*
X31945943Y-29225500D01*
X31945945Y-29225500D01*
X32104055Y-29225500D01*
X32104057Y-29225500D01*
X32256784Y-29184577D01*
X32393716Y-29105520D01*
X32505520Y-28993716D01*
X32584577Y-28856784D01*
X32625500Y-28704057D01*
X32625500Y-28545943D01*
X32620433Y-28527034D01*
X32614931Y-28506497D01*
X32614929Y-28506492D01*
X32608507Y-28482525D01*
X61824500Y-28482525D01*
X61824500Y-28627475D01*
X61862016Y-28767485D01*
X61862017Y-28767488D01*
X61934488Y-28893011D01*
X61934490Y-28893013D01*
X61934491Y-28893015D01*
X62036985Y-28995509D01*
X62036986Y-28995510D01*
X62036988Y-28995511D01*
X62162511Y-29067982D01*
X62162512Y-29067982D01*
X62162515Y-29067984D01*
X62302525Y-29105500D01*
X62302528Y-29105500D01*
X62447472Y-29105500D01*
X62447475Y-29105500D01*
X62587485Y-29067984D01*
X62713015Y-28995509D01*
X62815509Y-28893015D01*
X62887984Y-28767485D01*
X62925500Y-28627475D01*
X62925500Y-28482525D01*
X62887984Y-28342515D01*
X62838198Y-28256284D01*
X62815511Y-28216988D01*
X62815506Y-28216982D01*
X62713017Y-28114493D01*
X62713011Y-28114488D01*
X62587488Y-28042017D01*
X62587489Y-28042017D01*
X62576006Y-28038940D01*
X62447475Y-28004500D01*
X62302525Y-28004500D01*
X62173993Y-28038940D01*
X62162511Y-28042017D01*
X62036988Y-28114488D01*
X62036982Y-28114493D01*
X61934493Y-28216982D01*
X61934488Y-28216988D01*
X61862017Y-28342511D01*
X61862016Y-28342515D01*
X61824500Y-28482525D01*
X32608507Y-28482525D01*
X32584576Y-28393214D01*
X32584573Y-28393209D01*
X32505524Y-28256290D01*
X32505518Y-28256282D01*
X32393717Y-28144481D01*
X32393709Y-28144475D01*
X32256790Y-28065426D01*
X32256786Y-28065424D01*
X32256784Y-28065423D01*
X32104057Y-28024500D01*
X31945943Y-28024500D01*
X31793216Y-28065423D01*
X31793209Y-28065426D01*
X31656290Y-28144475D01*
X31656282Y-28144481D01*
X31544481Y-28256282D01*
X31544475Y-28256290D01*
X31465426Y-28393209D01*
X31465424Y-28393214D01*
X31465423Y-28393216D01*
X31424500Y-28545943D01*
X525500Y-28545943D01*
X525500Y-26952525D01*
X46674500Y-26952525D01*
X46674500Y-27097475D01*
X46684442Y-27134577D01*
X46712017Y-27237488D01*
X46784488Y-27363011D01*
X46784490Y-27363013D01*
X46784491Y-27363015D01*
X46886985Y-27465509D01*
X46886986Y-27465510D01*
X46886988Y-27465511D01*
X47012511Y-27537982D01*
X47012512Y-27537982D01*
X47012515Y-27537984D01*
X47152525Y-27575500D01*
X47152528Y-27575500D01*
X47297472Y-27575500D01*
X47297475Y-27575500D01*
X47437485Y-27537984D01*
X47563015Y-27465509D01*
X47665509Y-27363015D01*
X47737984Y-27237485D01*
X47775500Y-27097475D01*
X47775500Y-26952525D01*
X47737984Y-26812515D01*
X47734675Y-26806784D01*
X47665511Y-26686988D01*
X47665506Y-26686982D01*
X47563014Y-26584490D01*
X47437488Y-26512017D01*
X47437489Y-26512017D01*
X47426006Y-26508940D01*
X47377501Y-26495943D01*
X58144500Y-26495943D01*
X58144500Y-26654056D01*
X58185423Y-26806783D01*
X58185426Y-26806790D01*
X58264475Y-26943709D01*
X58264479Y-26943714D01*
X58264480Y-26943716D01*
X58376284Y-27055520D01*
X58376286Y-27055521D01*
X58376290Y-27055524D01*
X58513209Y-27134573D01*
X58513216Y-27134577D01*
X58665943Y-27175500D01*
X58665945Y-27175500D01*
X58824055Y-27175500D01*
X58824057Y-27175500D01*
X58976784Y-27134577D01*
X59113716Y-27055520D01*
X59225520Y-26943716D01*
X59304577Y-26806784D01*
X59345500Y-26654057D01*
X59345500Y-26495943D01*
X59304577Y-26343216D01*
X59304573Y-26343209D01*
X59225524Y-26206290D01*
X59225518Y-26206282D01*
X59113717Y-26094481D01*
X59113709Y-26094475D01*
X58976790Y-26015426D01*
X58976786Y-26015424D01*
X58976784Y-26015423D01*
X58824057Y-25974500D01*
X58665943Y-25974500D01*
X58513216Y-26015423D01*
X58513209Y-26015426D01*
X58376290Y-26094475D01*
X58376282Y-26094481D01*
X58264481Y-26206282D01*
X58264475Y-26206290D01*
X58185426Y-26343209D01*
X58185423Y-26343216D01*
X58144500Y-26495943D01*
X47377501Y-26495943D01*
X47297475Y-26474500D01*
X47152525Y-26474500D01*
X47023993Y-26508940D01*
X47012511Y-26512017D01*
X46886988Y-26584488D01*
X46886982Y-26584493D01*
X46784493Y-26686982D01*
X46784488Y-26686988D01*
X46712017Y-26812511D01*
X46712016Y-26812515D01*
X46674500Y-26952525D01*
X525500Y-26952525D01*
X525500Y-25245943D01*
X36254500Y-25245943D01*
X36254500Y-25404056D01*
X36295423Y-25556783D01*
X36295426Y-25556790D01*
X36374475Y-25693709D01*
X36374479Y-25693714D01*
X36374480Y-25693716D01*
X36486284Y-25805520D01*
X36486286Y-25805521D01*
X36486290Y-25805524D01*
X36623209Y-25884573D01*
X36623216Y-25884577D01*
X36775943Y-25925500D01*
X36775945Y-25925500D01*
X36934055Y-25925500D01*
X36934057Y-25925500D01*
X37086784Y-25884577D01*
X37223716Y-25805520D01*
X37335520Y-25693716D01*
X37414577Y-25556784D01*
X37455500Y-25404057D01*
X37455500Y-25245943D01*
X37414577Y-25093216D01*
X37414573Y-25093209D01*
X37335524Y-24956290D01*
X37335518Y-24956282D01*
X37223717Y-24844481D01*
X37223709Y-24844475D01*
X37086790Y-24765426D01*
X37086786Y-24765424D01*
X37086784Y-24765423D01*
X36934057Y-24724500D01*
X36775943Y-24724500D01*
X36623216Y-24765423D01*
X36623209Y-24765426D01*
X36486290Y-24844475D01*
X36486282Y-24844481D01*
X36374481Y-24956282D01*
X36374475Y-24956290D01*
X36295426Y-25093209D01*
X36295423Y-25093216D01*
X36254500Y-25245943D01*
X525500Y-25245943D01*
X525500Y-24352525D01*
X49174500Y-24352525D01*
X49174500Y-24497475D01*
X49212016Y-24637485D01*
X49212017Y-24637488D01*
X49284488Y-24763011D01*
X49284490Y-24763013D01*
X49284491Y-24763015D01*
X49386985Y-24865509D01*
X49386986Y-24865510D01*
X49386988Y-24865511D01*
X49512511Y-24937982D01*
X49512512Y-24937982D01*
X49512515Y-24937984D01*
X49652525Y-24975500D01*
X49652528Y-24975500D01*
X49797472Y-24975500D01*
X49797475Y-24975500D01*
X49937485Y-24937984D01*
X50063015Y-24865509D01*
X50165509Y-24763015D01*
X50237984Y-24637485D01*
X50275500Y-24497475D01*
X50275500Y-24352525D01*
X50237984Y-24212515D01*
X50165509Y-24086985D01*
X50063015Y-23984491D01*
X50063013Y-23984490D01*
X50063011Y-23984488D01*
X49937488Y-23912017D01*
X49937489Y-23912017D01*
X49926006Y-23908940D01*
X49797475Y-23874500D01*
X49652525Y-23874500D01*
X49523993Y-23908940D01*
X49512511Y-23912017D01*
X49386988Y-23984488D01*
X49386982Y-23984493D01*
X49284493Y-24086982D01*
X49284488Y-24086988D01*
X49212017Y-24212511D01*
X49212016Y-24212515D01*
X49174500Y-24352525D01*
X525500Y-24352525D01*
X525500Y-21643995D01*
X24124499Y-21643995D01*
X24151418Y-21779322D01*
X24151421Y-21779332D01*
X24204221Y-21906804D01*
X24204228Y-21906817D01*
X24280885Y-22021541D01*
X24280888Y-22021545D01*
X24378454Y-22119111D01*
X24378458Y-22119114D01*
X24493182Y-22195771D01*
X24493195Y-22195778D01*
X24620667Y-22248578D01*
X24620672Y-22248580D01*
X24620676Y-22248580D01*
X24620677Y-22248581D01*
X24756004Y-22275500D01*
X24756007Y-22275500D01*
X24893995Y-22275500D01*
X24985041Y-22257389D01*
X25029328Y-22248580D01*
X25156811Y-22195775D01*
X25271542Y-22119114D01*
X25287319Y-22103337D01*
X25337319Y-22053338D01*
X25398642Y-22019853D01*
X25468334Y-22024837D01*
X25512681Y-22053338D01*
X25578454Y-22119111D01*
X25578458Y-22119114D01*
X25693182Y-22195771D01*
X25693195Y-22195778D01*
X25820667Y-22248578D01*
X25820672Y-22248580D01*
X25820676Y-22248580D01*
X25820677Y-22248581D01*
X25956004Y-22275500D01*
X25956007Y-22275500D01*
X26093995Y-22275500D01*
X26185041Y-22257389D01*
X26229328Y-22248580D01*
X26356811Y-22195775D01*
X26471542Y-22119114D01*
X26487319Y-22103337D01*
X26537319Y-22053338D01*
X26598642Y-22019853D01*
X26668334Y-22024837D01*
X26712681Y-22053338D01*
X26778454Y-22119111D01*
X26778458Y-22119114D01*
X26893182Y-22195771D01*
X26893195Y-22195778D01*
X27020667Y-22248578D01*
X27020672Y-22248580D01*
X27020676Y-22248580D01*
X27020677Y-22248581D01*
X27156004Y-22275500D01*
X27156007Y-22275500D01*
X27293995Y-22275500D01*
X27385041Y-22257389D01*
X27429328Y-22248580D01*
X27556811Y-22195775D01*
X27671542Y-22119114D01*
X27687319Y-22103337D01*
X27737319Y-22053338D01*
X27798642Y-22019853D01*
X27868334Y-22024837D01*
X27912681Y-22053338D01*
X27978454Y-22119111D01*
X27978458Y-22119114D01*
X28093182Y-22195771D01*
X28093195Y-22195778D01*
X28220667Y-22248578D01*
X28220672Y-22248580D01*
X28220676Y-22248580D01*
X28220677Y-22248581D01*
X28356004Y-22275500D01*
X28356007Y-22275500D01*
X28493995Y-22275500D01*
X28585041Y-22257389D01*
X28629328Y-22248580D01*
X28756811Y-22195775D01*
X28871542Y-22119114D01*
X28937319Y-22053336D01*
X28998640Y-22019853D01*
X29068332Y-22024837D01*
X29112680Y-22053338D01*
X29178453Y-22119111D01*
X29178457Y-22119114D01*
X29293181Y-22195771D01*
X29293194Y-22195778D01*
X29420666Y-22248578D01*
X29420671Y-22248580D01*
X29420675Y-22248580D01*
X29420676Y-22248581D01*
X29556003Y-22275500D01*
X29556006Y-22275500D01*
X29693994Y-22275500D01*
X29785040Y-22257389D01*
X29829327Y-22248580D01*
X29956810Y-22195775D01*
X30071541Y-22119114D01*
X30169113Y-22021542D01*
X30245774Y-21906811D01*
X30298579Y-21779328D01*
X30325499Y-21643995D01*
X32524498Y-21643995D01*
X32551417Y-21779322D01*
X32551420Y-21779332D01*
X32604220Y-21906804D01*
X32604227Y-21906817D01*
X32680884Y-22021541D01*
X32680887Y-22021545D01*
X32778453Y-22119111D01*
X32778457Y-22119114D01*
X32893181Y-22195771D01*
X32893194Y-22195778D01*
X33020666Y-22248578D01*
X33020671Y-22248580D01*
X33020675Y-22248580D01*
X33020676Y-22248581D01*
X33156003Y-22275500D01*
X33156006Y-22275500D01*
X33293994Y-22275500D01*
X33385040Y-22257389D01*
X33429327Y-22248580D01*
X33556810Y-22195775D01*
X33671541Y-22119114D01*
X33687316Y-22103339D01*
X33748638Y-22069852D01*
X33818330Y-22074835D01*
X33862680Y-22103337D01*
X33878454Y-22119111D01*
X33878458Y-22119114D01*
X33993182Y-22195771D01*
X33993195Y-22195778D01*
X34120667Y-22248578D01*
X34120672Y-22248580D01*
X34120676Y-22248580D01*
X34120677Y-22248581D01*
X34256004Y-22275500D01*
X34256007Y-22275500D01*
X34393995Y-22275500D01*
X34485041Y-22257389D01*
X34529328Y-22248580D01*
X34656811Y-22195775D01*
X34771542Y-22119114D01*
X34869114Y-22021542D01*
X34945775Y-21906811D01*
X34998580Y-21779328D01*
X35025500Y-21643993D01*
X35025500Y-21506007D01*
X35025500Y-21506004D01*
X34998581Y-21370677D01*
X34998580Y-21370676D01*
X34998580Y-21370672D01*
X34998578Y-21370667D01*
X34945778Y-21243195D01*
X34945771Y-21243182D01*
X34869114Y-21128458D01*
X34869111Y-21128454D01*
X34771545Y-21030888D01*
X34771541Y-21030885D01*
X34656817Y-20954228D01*
X34656804Y-20954221D01*
X34529332Y-20901421D01*
X34529322Y-20901418D01*
X34393995Y-20874500D01*
X34393993Y-20874500D01*
X34256007Y-20874500D01*
X34256005Y-20874500D01*
X34120677Y-20901418D01*
X34120667Y-20901421D01*
X33993195Y-20954221D01*
X33993182Y-20954228D01*
X33878458Y-21030885D01*
X33878453Y-21030889D01*
X33862678Y-21046664D01*
X33801354Y-21080148D01*
X33731663Y-21075162D01*
X33687318Y-21046662D01*
X33671544Y-21030888D01*
X33671540Y-21030885D01*
X33556816Y-20954228D01*
X33556803Y-20954221D01*
X33429331Y-20901421D01*
X33429321Y-20901418D01*
X33293994Y-20874500D01*
X33293992Y-20874500D01*
X33156006Y-20874500D01*
X33156004Y-20874500D01*
X33020676Y-20901418D01*
X33020666Y-20901421D01*
X32893194Y-20954221D01*
X32893181Y-20954228D01*
X32778457Y-21030885D01*
X32778453Y-21030888D01*
X32680887Y-21128454D01*
X32680884Y-21128458D01*
X32604227Y-21243182D01*
X32604220Y-21243195D01*
X32551420Y-21370667D01*
X32551417Y-21370677D01*
X32524499Y-21506004D01*
X32524499Y-21506007D01*
X32524499Y-21643993D01*
X32524499Y-21643995D01*
X32524498Y-21643995D01*
X30325499Y-21643995D01*
X30325499Y-21643993D01*
X30325499Y-21506007D01*
X30325499Y-21506004D01*
X30298580Y-21370677D01*
X30298579Y-21370676D01*
X30298579Y-21370672D01*
X30298577Y-21370667D01*
X30245777Y-21243195D01*
X30245770Y-21243182D01*
X30169113Y-21128458D01*
X30169110Y-21128454D01*
X30071544Y-21030888D01*
X30071540Y-21030885D01*
X29956816Y-20954228D01*
X29956803Y-20954221D01*
X29829331Y-20901421D01*
X29829321Y-20901418D01*
X29693994Y-20874500D01*
X29693992Y-20874500D01*
X29556006Y-20874500D01*
X29556004Y-20874500D01*
X29420676Y-20901418D01*
X29420666Y-20901421D01*
X29293194Y-20954221D01*
X29293181Y-20954228D01*
X29178457Y-21030885D01*
X29112680Y-21096662D01*
X29051356Y-21130146D01*
X28981665Y-21125161D01*
X28937318Y-21096661D01*
X28871545Y-21030888D01*
X28871541Y-21030885D01*
X28756817Y-20954228D01*
X28756804Y-20954221D01*
X28629332Y-20901421D01*
X28629322Y-20901418D01*
X28493995Y-20874500D01*
X28493993Y-20874500D01*
X28356007Y-20874500D01*
X28356005Y-20874500D01*
X28220677Y-20901418D01*
X28220667Y-20901421D01*
X28093195Y-20954221D01*
X28093182Y-20954228D01*
X27978458Y-21030885D01*
X27978454Y-21030888D01*
X27912681Y-21096662D01*
X27851358Y-21130147D01*
X27781666Y-21125163D01*
X27737319Y-21096662D01*
X27671545Y-21030888D01*
X27671541Y-21030885D01*
X27556817Y-20954228D01*
X27556804Y-20954221D01*
X27429332Y-20901421D01*
X27429322Y-20901418D01*
X27293995Y-20874500D01*
X27293993Y-20874500D01*
X27156007Y-20874500D01*
X27156005Y-20874500D01*
X27020677Y-20901418D01*
X27020667Y-20901421D01*
X26893195Y-20954221D01*
X26893182Y-20954228D01*
X26778458Y-21030885D01*
X26778454Y-21030888D01*
X26712681Y-21096662D01*
X26651358Y-21130147D01*
X26581666Y-21125163D01*
X26537319Y-21096662D01*
X26471545Y-21030888D01*
X26471541Y-21030885D01*
X26356817Y-20954228D01*
X26356804Y-20954221D01*
X26229332Y-20901421D01*
X26229322Y-20901418D01*
X26093995Y-20874500D01*
X26093993Y-20874500D01*
X25956007Y-20874500D01*
X25956005Y-20874500D01*
X25820677Y-20901418D01*
X25820667Y-20901421D01*
X25693195Y-20954221D01*
X25693182Y-20954228D01*
X25578458Y-21030885D01*
X25578454Y-21030888D01*
X25512681Y-21096662D01*
X25451358Y-21130147D01*
X25381666Y-21125163D01*
X25337319Y-21096662D01*
X25271545Y-21030888D01*
X25271541Y-21030885D01*
X25156817Y-20954228D01*
X25156804Y-20954221D01*
X25029332Y-20901421D01*
X25029322Y-20901418D01*
X24893995Y-20874500D01*
X24893993Y-20874500D01*
X24756007Y-20874500D01*
X24756005Y-20874500D01*
X24620677Y-20901418D01*
X24620667Y-20901421D01*
X24493195Y-20954221D01*
X24493182Y-20954228D01*
X24378458Y-21030885D01*
X24378454Y-21030888D01*
X24280888Y-21128454D01*
X24280885Y-21128458D01*
X24204228Y-21243182D01*
X24204221Y-21243195D01*
X24151421Y-21370667D01*
X24151418Y-21370677D01*
X24124500Y-21506004D01*
X24124500Y-21506007D01*
X24124500Y-21643993D01*
X24124500Y-21643995D01*
X24124499Y-21643995D01*
X525500Y-21643995D01*
X525500Y-17980441D01*
X3324500Y-17980441D01*
X3324500Y-18229558D01*
X3324501Y-18229575D01*
X3357017Y-18476561D01*
X3421498Y-18717207D01*
X3516830Y-18947361D01*
X3516837Y-18947376D01*
X3641400Y-19163126D01*
X3793060Y-19360774D01*
X3793066Y-19360781D01*
X3969218Y-19536933D01*
X3969225Y-19536939D01*
X4166873Y-19688599D01*
X4382623Y-19813162D01*
X4382638Y-19813169D01*
X4481825Y-19854253D01*
X4612793Y-19908502D01*
X4853435Y-19972982D01*
X5100435Y-20005500D01*
X5100442Y-20005500D01*
X5349558Y-20005500D01*
X5349565Y-20005500D01*
X5596565Y-19972982D01*
X5837207Y-19908502D01*
X5899921Y-19882525D01*
X63374500Y-19882525D01*
X63374500Y-20027475D01*
X63412016Y-20167485D01*
X63412017Y-20167488D01*
X63484488Y-20293011D01*
X63484490Y-20293013D01*
X63484491Y-20293015D01*
X63586985Y-20395509D01*
X63586986Y-20395510D01*
X63586988Y-20395511D01*
X63712511Y-20467982D01*
X63712512Y-20467982D01*
X63712515Y-20467984D01*
X63852525Y-20505500D01*
X63852528Y-20505500D01*
X63997472Y-20505500D01*
X63997475Y-20505500D01*
X64137485Y-20467984D01*
X64263015Y-20395509D01*
X64365509Y-20293015D01*
X64437984Y-20167485D01*
X64475500Y-20027475D01*
X64475500Y-19882525D01*
X64437984Y-19742515D01*
X64406855Y-19688599D01*
X64365511Y-19616988D01*
X64365506Y-19616982D01*
X64263017Y-19514493D01*
X64263011Y-19514488D01*
X64137488Y-19442017D01*
X64137489Y-19442017D01*
X64126006Y-19438940D01*
X63997475Y-19404500D01*
X63852525Y-19404500D01*
X63723993Y-19438940D01*
X63712511Y-19442017D01*
X63586988Y-19514488D01*
X63586982Y-19514493D01*
X63484493Y-19616982D01*
X63484488Y-19616988D01*
X63412017Y-19742511D01*
X63412016Y-19742515D01*
X63374500Y-19882525D01*
X5899921Y-19882525D01*
X6067373Y-19813164D01*
X6283127Y-19688599D01*
X6480776Y-19536938D01*
X6656938Y-19360776D01*
X6808599Y-19163127D01*
X6933164Y-18947373D01*
X7028502Y-18717207D01*
X7092982Y-18476565D01*
X7110435Y-18343995D01*
X38024499Y-18343995D01*
X38051418Y-18479322D01*
X38051421Y-18479332D01*
X38104221Y-18606804D01*
X38104228Y-18606817D01*
X38180885Y-18721541D01*
X38180888Y-18721545D01*
X38278454Y-18819111D01*
X38278458Y-18819114D01*
X38393182Y-18895771D01*
X38393195Y-18895778D01*
X38517729Y-18947361D01*
X38520672Y-18948580D01*
X38520676Y-18948580D01*
X38520677Y-18948581D01*
X38656004Y-18975500D01*
X38656007Y-18975500D01*
X38793995Y-18975500D01*
X38885041Y-18957389D01*
X38929328Y-18948580D01*
X39056811Y-18895775D01*
X39171542Y-18819114D01*
X39171545Y-18819111D01*
X39237319Y-18753338D01*
X39298642Y-18719853D01*
X39368334Y-18724837D01*
X39412681Y-18753338D01*
X39478454Y-18819111D01*
X39478458Y-18819114D01*
X39593182Y-18895771D01*
X39593195Y-18895778D01*
X39717729Y-18947361D01*
X39720672Y-18948580D01*
X39720676Y-18948580D01*
X39720677Y-18948581D01*
X39856004Y-18975500D01*
X39856007Y-18975500D01*
X39993995Y-18975500D01*
X40085041Y-18957389D01*
X40129328Y-18948580D01*
X40256811Y-18895775D01*
X40371542Y-18819114D01*
X40371545Y-18819111D01*
X40437319Y-18753338D01*
X40498642Y-18719853D01*
X40568334Y-18724837D01*
X40612681Y-18753338D01*
X40678454Y-18819111D01*
X40678458Y-18819114D01*
X40793182Y-18895771D01*
X40793195Y-18895778D01*
X40917729Y-18947361D01*
X40920672Y-18948580D01*
X40920676Y-18948580D01*
X40920677Y-18948581D01*
X41056004Y-18975500D01*
X41056007Y-18975500D01*
X41193995Y-18975500D01*
X41285041Y-18957389D01*
X41329328Y-18948580D01*
X41456811Y-18895775D01*
X41571542Y-18819114D01*
X41669114Y-18721542D01*
X41745775Y-18606811D01*
X41798580Y-18479328D01*
X41825500Y-18343993D01*
X41825500Y-18206007D01*
X41825500Y-18206004D01*
X41798581Y-18070677D01*
X41798580Y-18070676D01*
X41798580Y-18070672D01*
X41798578Y-18070667D01*
X41745778Y-17943195D01*
X41745771Y-17943182D01*
X41669114Y-17828458D01*
X41669111Y-17828454D01*
X41571545Y-17730888D01*
X41571541Y-17730885D01*
X41456817Y-17654228D01*
X41456804Y-17654221D01*
X41329332Y-17601421D01*
X41329322Y-17601418D01*
X41193995Y-17574500D01*
X41193993Y-17574500D01*
X41056007Y-17574500D01*
X41056005Y-17574500D01*
X40920677Y-17601418D01*
X40920667Y-17601421D01*
X40793195Y-17654221D01*
X40793182Y-17654228D01*
X40678458Y-17730885D01*
X40678454Y-17730888D01*
X40612681Y-17796662D01*
X40551358Y-17830147D01*
X40481666Y-17825163D01*
X40437319Y-17796662D01*
X40371545Y-17730888D01*
X40371541Y-17730885D01*
X40256817Y-17654228D01*
X40256804Y-17654221D01*
X40129332Y-17601421D01*
X40129322Y-17601418D01*
X39993995Y-17574500D01*
X39993993Y-17574500D01*
X39856007Y-17574500D01*
X39856005Y-17574500D01*
X39720677Y-17601418D01*
X39720667Y-17601421D01*
X39593195Y-17654221D01*
X39593182Y-17654228D01*
X39478458Y-17730885D01*
X39478454Y-17730888D01*
X39412681Y-17796662D01*
X39351358Y-17830147D01*
X39281666Y-17825163D01*
X39237319Y-17796662D01*
X39171545Y-17730888D01*
X39171541Y-17730885D01*
X39056817Y-17654228D01*
X39056804Y-17654221D01*
X38929332Y-17601421D01*
X38929322Y-17601418D01*
X38793995Y-17574500D01*
X38793993Y-17574500D01*
X38656007Y-17574500D01*
X38656005Y-17574500D01*
X38520677Y-17601418D01*
X38520667Y-17601421D01*
X38393195Y-17654221D01*
X38393182Y-17654228D01*
X38278458Y-17730885D01*
X38278454Y-17730888D01*
X38180888Y-17828454D01*
X38180885Y-17828458D01*
X38104228Y-17943182D01*
X38104221Y-17943195D01*
X38051421Y-18070667D01*
X38051418Y-18070677D01*
X38024500Y-18206004D01*
X38024500Y-18206007D01*
X38024500Y-18343993D01*
X38024500Y-18343995D01*
X38024499Y-18343995D01*
X7110435Y-18343995D01*
X7125500Y-18229565D01*
X7125500Y-17980435D01*
X7092982Y-17733435D01*
X7028502Y-17492793D01*
X6933164Y-17262627D01*
X6896185Y-17198578D01*
X6808599Y-17046873D01*
X6656939Y-16849225D01*
X6656933Y-16849218D01*
X6480781Y-16673066D01*
X6480774Y-16673060D01*
X6283126Y-16521400D01*
X6067376Y-16396837D01*
X6067361Y-16396830D01*
X5837207Y-16301498D01*
X5596561Y-16237017D01*
X5349575Y-16204501D01*
X5349570Y-16204500D01*
X5349565Y-16204500D01*
X5100435Y-16204500D01*
X5100429Y-16204500D01*
X5100424Y-16204501D01*
X4853438Y-16237017D01*
X4612792Y-16301498D01*
X4382638Y-16396830D01*
X4382623Y-16396837D01*
X4166873Y-16521400D01*
X3969225Y-16673060D01*
X3969218Y-16673066D01*
X3793066Y-16849218D01*
X3793060Y-16849225D01*
X3641400Y-17046873D01*
X3516837Y-17262623D01*
X3516830Y-17262638D01*
X3421498Y-17492792D01*
X3357017Y-17733438D01*
X3324501Y-17980424D01*
X3324500Y-17980441D01*
X525500Y-17980441D01*
X525500Y-11901048D01*
X3324500Y-11901048D01*
X3324500Y-14148951D01*
X3327317Y-14190499D01*
X3371963Y-14370021D01*
X3371964Y-14370023D01*
X3454156Y-14535750D01*
X3570059Y-14679940D01*
X3626115Y-14724999D01*
X3714247Y-14795842D01*
X3879979Y-14878037D01*
X4059501Y-14922682D01*
X4059502Y-14922682D01*
X4059505Y-14922683D01*
X4101046Y-14925500D01*
X4101048Y-14925500D01*
X6348952Y-14925500D01*
X6348954Y-14925500D01*
X6390495Y-14922683D01*
X6570021Y-14878037D01*
X6735753Y-14795842D01*
X6879940Y-14679940D01*
X6995842Y-14535753D01*
X7078037Y-14370021D01*
X7121813Y-14193995D01*
X36024499Y-14193995D01*
X36051418Y-14329322D01*
X36051421Y-14329332D01*
X36104221Y-14456804D01*
X36104228Y-14456817D01*
X36180885Y-14571541D01*
X36180888Y-14571545D01*
X36246661Y-14637318D01*
X36280146Y-14698641D01*
X36275162Y-14768333D01*
X36246662Y-14812680D01*
X36180885Y-14878457D01*
X36104228Y-14993181D01*
X36104221Y-14993194D01*
X36051421Y-15120666D01*
X36051418Y-15120676D01*
X36024500Y-15256003D01*
X36024500Y-15256006D01*
X36024500Y-15393992D01*
X36024500Y-15393994D01*
X36024499Y-15393994D01*
X36051418Y-15529321D01*
X36051421Y-15529331D01*
X36104221Y-15656803D01*
X36104228Y-15656816D01*
X36180885Y-15771540D01*
X36180888Y-15771544D01*
X36246662Y-15837318D01*
X36280147Y-15898641D01*
X36275163Y-15968333D01*
X36246663Y-16012680D01*
X36180885Y-16078458D01*
X36104228Y-16193182D01*
X36104221Y-16193195D01*
X36051421Y-16320667D01*
X36051418Y-16320677D01*
X36024500Y-16456004D01*
X36024500Y-16456007D01*
X36024500Y-16593993D01*
X36024500Y-16593995D01*
X36024499Y-16593995D01*
X36051418Y-16729322D01*
X36051421Y-16729332D01*
X36104221Y-16856804D01*
X36104228Y-16856817D01*
X36180885Y-16971541D01*
X36180888Y-16971545D01*
X36278454Y-17069111D01*
X36278458Y-17069114D01*
X36393182Y-17145771D01*
X36393195Y-17145778D01*
X36520667Y-17198578D01*
X36520672Y-17198580D01*
X36520676Y-17198580D01*
X36520677Y-17198581D01*
X36656004Y-17225500D01*
X36656007Y-17225500D01*
X36793995Y-17225500D01*
X36885041Y-17207389D01*
X36929328Y-17198580D01*
X37056811Y-17145775D01*
X37171542Y-17069114D01*
X37269114Y-16971542D01*
X37345775Y-16856811D01*
X37398580Y-16729328D01*
X37409772Y-16673062D01*
X37425500Y-16593995D01*
X37425500Y-16456004D01*
X37398581Y-16320677D01*
X37398580Y-16320676D01*
X37398580Y-16320672D01*
X37350461Y-16204501D01*
X37345778Y-16193195D01*
X37345771Y-16193182D01*
X37269114Y-16078458D01*
X37269111Y-16078454D01*
X37203337Y-16012680D01*
X37169852Y-15951357D01*
X37174836Y-15881665D01*
X37203335Y-15837319D01*
X37269114Y-15771541D01*
X37345775Y-15656810D01*
X37398580Y-15529327D01*
X37425500Y-15393992D01*
X37425500Y-15256006D01*
X37425500Y-15256003D01*
X37398581Y-15120676D01*
X37398580Y-15120675D01*
X37398580Y-15120671D01*
X37398578Y-15120666D01*
X37345778Y-14993194D01*
X37345771Y-14993181D01*
X37269114Y-14878457D01*
X37269111Y-14878453D01*
X37203338Y-14812680D01*
X37169853Y-14751357D01*
X37174837Y-14681665D01*
X37203336Y-14637319D01*
X37269114Y-14571542D01*
X37345775Y-14456811D01*
X37398580Y-14329328D01*
X37425500Y-14193993D01*
X37425500Y-14056007D01*
X37425500Y-14056004D01*
X37398581Y-13920677D01*
X37398580Y-13920676D01*
X37398580Y-13920672D01*
X37398578Y-13920667D01*
X37345778Y-13793195D01*
X37345771Y-13793182D01*
X37269114Y-13678458D01*
X37269111Y-13678454D01*
X37171545Y-13580888D01*
X37171541Y-13580885D01*
X37056817Y-13504228D01*
X37056804Y-13504221D01*
X36929332Y-13451421D01*
X36929322Y-13451418D01*
X36793995Y-13424500D01*
X36793993Y-13424500D01*
X36656007Y-13424500D01*
X36656005Y-13424500D01*
X36520677Y-13451418D01*
X36520667Y-13451421D01*
X36393195Y-13504221D01*
X36393182Y-13504228D01*
X36278458Y-13580885D01*
X36278454Y-13580888D01*
X36180888Y-13678454D01*
X36180885Y-13678458D01*
X36104228Y-13793182D01*
X36104221Y-13793195D01*
X36051421Y-13920667D01*
X36051418Y-13920677D01*
X36024500Y-14056004D01*
X36024500Y-14056007D01*
X36024500Y-14193993D01*
X36024500Y-14193995D01*
X36024499Y-14193995D01*
X7121813Y-14193995D01*
X7122683Y-14190495D01*
X7125500Y-14148954D01*
X7125500Y-11901046D01*
X7122683Y-11859505D01*
X7078037Y-11679979D01*
X6995842Y-11514247D01*
X6945945Y-11452173D01*
X6879940Y-11370059D01*
X6777785Y-11287945D01*
X6735753Y-11254158D01*
X6735751Y-11254157D01*
X6735750Y-11254156D01*
X6570023Y-11171964D01*
X6570021Y-11171963D01*
X6390497Y-11127317D01*
X6390501Y-11127317D01*
X6359339Y-11125204D01*
X6348954Y-11124500D01*
X4101046Y-11124500D01*
X4089177Y-11125304D01*
X4059500Y-11127317D01*
X3879978Y-11171963D01*
X3879976Y-11171964D01*
X3714249Y-11254156D01*
X3570059Y-11370059D01*
X3454156Y-11514249D01*
X3371964Y-11679976D01*
X3371963Y-11679978D01*
X3327317Y-11859500D01*
X3324500Y-11901048D01*
X525500Y-11901048D01*
X525500Y-10245943D01*
X27174500Y-10245943D01*
X27174500Y-10404056D01*
X27215423Y-10556783D01*
X27215426Y-10556790D01*
X27294475Y-10693709D01*
X27294479Y-10693714D01*
X27294480Y-10693716D01*
X27406284Y-10805520D01*
X27406286Y-10805521D01*
X27406290Y-10805524D01*
X27543209Y-10884573D01*
X27543216Y-10884577D01*
X27695943Y-10925500D01*
X27695945Y-10925500D01*
X27854055Y-10925500D01*
X27854057Y-10925500D01*
X28006784Y-10884577D01*
X28143716Y-10805520D01*
X28255520Y-10693716D01*
X28334577Y-10556784D01*
X28375500Y-10404057D01*
X28375500Y-10245943D01*
X28334577Y-10093216D01*
X28334573Y-10093209D01*
X28255524Y-9956290D01*
X28255518Y-9956282D01*
X28143717Y-9844481D01*
X28143709Y-9844475D01*
X28006790Y-9765426D01*
X28006786Y-9765424D01*
X28006784Y-9765423D01*
X27854057Y-9724500D01*
X27695943Y-9724500D01*
X27543216Y-9765423D01*
X27543209Y-9765426D01*
X27406290Y-9844475D01*
X27406282Y-9844481D01*
X27294481Y-9956282D01*
X27294475Y-9956290D01*
X27215426Y-10093209D01*
X27215423Y-10093216D01*
X27174500Y-10245943D01*
X525500Y-10245943D01*
X525500Y-7443995D01*
X20624499Y-7443995D01*
X20651418Y-7579322D01*
X20651421Y-7579332D01*
X20704221Y-7706804D01*
X20704228Y-7706817D01*
X20780885Y-7821541D01*
X20780888Y-7821545D01*
X20878454Y-7919111D01*
X20878458Y-7919114D01*
X20993182Y-7995771D01*
X20993195Y-7995778D01*
X21120667Y-8048578D01*
X21120672Y-8048580D01*
X21120676Y-8048580D01*
X21120677Y-8048581D01*
X21256004Y-8075500D01*
X21256007Y-8075500D01*
X21393995Y-8075500D01*
X21485041Y-8057389D01*
X21529328Y-8048580D01*
X21656811Y-7995775D01*
X21771542Y-7919114D01*
X21771541Y-7919114D01*
X21776607Y-7915730D01*
X21777291Y-7916755D01*
X21835640Y-7891971D01*
X21904508Y-7903760D01*
X21923315Y-7915846D01*
X21923393Y-7915730D01*
X22043182Y-7995771D01*
X22043195Y-7995778D01*
X22170667Y-8048578D01*
X22170672Y-8048580D01*
X22170676Y-8048580D01*
X22170677Y-8048581D01*
X22306004Y-8075500D01*
X22306007Y-8075500D01*
X22443995Y-8075500D01*
X22535041Y-8057389D01*
X22579328Y-8048580D01*
X22706811Y-7995775D01*
X22821542Y-7919114D01*
X22821541Y-7919114D01*
X22826607Y-7915730D01*
X22827291Y-7916755D01*
X22885640Y-7891971D01*
X22954508Y-7903760D01*
X22973315Y-7915846D01*
X22973393Y-7915730D01*
X23093182Y-7995771D01*
X23093195Y-7995778D01*
X23220667Y-8048578D01*
X23220672Y-8048580D01*
X23220676Y-8048580D01*
X23220677Y-8048581D01*
X23356004Y-8075500D01*
X23356007Y-8075500D01*
X23493995Y-8075500D01*
X23585041Y-8057389D01*
X23629328Y-8048580D01*
X23756811Y-7995775D01*
X23871542Y-7919114D01*
X23871541Y-7919114D01*
X23876607Y-7915730D01*
X23877291Y-7916755D01*
X23935640Y-7891971D01*
X24004508Y-7903760D01*
X24023315Y-7915846D01*
X24023393Y-7915730D01*
X24143182Y-7995771D01*
X24143195Y-7995778D01*
X24270667Y-8048578D01*
X24270672Y-8048580D01*
X24270676Y-8048580D01*
X24270677Y-8048581D01*
X24406004Y-8075500D01*
X24406007Y-8075500D01*
X24543995Y-8075500D01*
X24635041Y-8057389D01*
X24679328Y-8048580D01*
X24806811Y-7995775D01*
X24921542Y-7919114D01*
X24921541Y-7919114D01*
X24926607Y-7915730D01*
X24927291Y-7916755D01*
X24985640Y-7891971D01*
X25054508Y-7903760D01*
X25073315Y-7915846D01*
X25073393Y-7915730D01*
X25193182Y-7995771D01*
X25193195Y-7995778D01*
X25320667Y-8048578D01*
X25320672Y-8048580D01*
X25320676Y-8048580D01*
X25320677Y-8048581D01*
X25456004Y-8075500D01*
X25456007Y-8075500D01*
X25593995Y-8075500D01*
X25685041Y-8057389D01*
X25729328Y-8048580D01*
X25856811Y-7995775D01*
X25971542Y-7919114D01*
X26069114Y-7821542D01*
X26145775Y-7706811D01*
X26198580Y-7579328D01*
X26225500Y-7443993D01*
X26225500Y-7306007D01*
X26225500Y-7306004D01*
X26198581Y-7170677D01*
X26198580Y-7170676D01*
X26198580Y-7170672D01*
X26198578Y-7170667D01*
X26145778Y-7043195D01*
X26145771Y-7043182D01*
X26069114Y-6928458D01*
X26069111Y-6928454D01*
X25971545Y-6830888D01*
X25971541Y-6830885D01*
X25856817Y-6754228D01*
X25856804Y-6754221D01*
X25729332Y-6701421D01*
X25729322Y-6701418D01*
X25593995Y-6674500D01*
X25593993Y-6674500D01*
X25456007Y-6674500D01*
X25456005Y-6674500D01*
X25320677Y-6701418D01*
X25320667Y-6701421D01*
X25193195Y-6754221D01*
X25193182Y-6754228D01*
X25073393Y-6834270D01*
X25072709Y-6833247D01*
X25014343Y-6858030D01*
X24945477Y-6846232D01*
X24926684Y-6834154D01*
X24926607Y-6834270D01*
X24806817Y-6754228D01*
X24806804Y-6754221D01*
X24679332Y-6701421D01*
X24679322Y-6701418D01*
X24543995Y-6674500D01*
X24543993Y-6674500D01*
X24406007Y-6674500D01*
X24406005Y-6674500D01*
X24270677Y-6701418D01*
X24270667Y-6701421D01*
X24143195Y-6754221D01*
X24143182Y-6754228D01*
X24023393Y-6834270D01*
X24022709Y-6833247D01*
X23964343Y-6858030D01*
X23895477Y-6846232D01*
X23876684Y-6834154D01*
X23876607Y-6834270D01*
X23756817Y-6754228D01*
X23756804Y-6754221D01*
X23629332Y-6701421D01*
X23629322Y-6701418D01*
X23493995Y-6674500D01*
X23493993Y-6674500D01*
X23356007Y-6674500D01*
X23356005Y-6674500D01*
X23220677Y-6701418D01*
X23220667Y-6701421D01*
X23093195Y-6754221D01*
X23093182Y-6754228D01*
X22973393Y-6834270D01*
X22972709Y-6833247D01*
X22914343Y-6858030D01*
X22845477Y-6846232D01*
X22826684Y-6834154D01*
X22826607Y-6834270D01*
X22706817Y-6754228D01*
X22706804Y-6754221D01*
X22579332Y-6701421D01*
X22579322Y-6701418D01*
X22443995Y-6674500D01*
X22443993Y-6674500D01*
X22306007Y-6674500D01*
X22306005Y-6674500D01*
X22170677Y-6701418D01*
X22170667Y-6701421D01*
X22043195Y-6754221D01*
X22043182Y-6754228D01*
X21923393Y-6834270D01*
X21922709Y-6833247D01*
X21864343Y-6858030D01*
X21795477Y-6846232D01*
X21776684Y-6834154D01*
X21776607Y-6834270D01*
X21656817Y-6754228D01*
X21656804Y-6754221D01*
X21529332Y-6701421D01*
X21529322Y-6701418D01*
X21393995Y-6674500D01*
X21393993Y-6674500D01*
X21256007Y-6674500D01*
X21256005Y-6674500D01*
X21120677Y-6701418D01*
X21120667Y-6701421D01*
X20993195Y-6754221D01*
X20993182Y-6754228D01*
X20878458Y-6830885D01*
X20878454Y-6830888D01*
X20780888Y-6928454D01*
X20780885Y-6928458D01*
X20704228Y-7043182D01*
X20704221Y-7043195D01*
X20651421Y-7170667D01*
X20651418Y-7170677D01*
X20624500Y-7306004D01*
X20624500Y-7306007D01*
X20624500Y-7443993D01*
X20624500Y-7443995D01*
X20624499Y-7443995D01*
X525500Y-7443995D01*
X525500Y-3403711D01*
X1674500Y-3403711D01*
X1674500Y-3646288D01*
X1706161Y-3886785D01*
X1768947Y-4121104D01*
X1861771Y-4345200D01*
X1861776Y-4345212D01*
X1983064Y-4555289D01*
X1983066Y-4555292D01*
X1983067Y-4555293D01*
X2130733Y-4747736D01*
X2130739Y-4747743D01*
X2302256Y-4919260D01*
X2302263Y-4919266D01*
X2326657Y-4937984D01*
X2494711Y-5066936D01*
X2704788Y-5188224D01*
X2928900Y-5281054D01*
X3163211Y-5343838D01*
X3343586Y-5367584D01*
X3403711Y-5375500D01*
X3403712Y-5375500D01*
X3646289Y-5375500D01*
X3694388Y-5369167D01*
X3886789Y-5343838D01*
X4121100Y-5281054D01*
X4345212Y-5188224D01*
X4555289Y-5066936D01*
X4747738Y-4919265D01*
X4919265Y-4747738D01*
X5066936Y-4555289D01*
X5184002Y-4352525D01*
X32629500Y-4352525D01*
X32629500Y-4497475D01*
X32667016Y-4637485D01*
X32667017Y-4637488D01*
X32739488Y-4763011D01*
X32739490Y-4763013D01*
X32739491Y-4763015D01*
X32841985Y-4865509D01*
X32841986Y-4865510D01*
X32841988Y-4865511D01*
X32967511Y-4937982D01*
X32967512Y-4937982D01*
X32967515Y-4937984D01*
X33107525Y-4975500D01*
X33107528Y-4975500D01*
X33252472Y-4975500D01*
X33252475Y-4975500D01*
X33392485Y-4937984D01*
X33513001Y-4868403D01*
X33580899Y-4851931D01*
X33636997Y-4868402D01*
X33757515Y-4937984D01*
X33897525Y-4975500D01*
X33897528Y-4975500D01*
X34042472Y-4975500D01*
X34042475Y-4975500D01*
X34182485Y-4937984D01*
X34308015Y-4865509D01*
X34410509Y-4763015D01*
X34482984Y-4637485D01*
X34520500Y-4497475D01*
X34520500Y-4352525D01*
X34482984Y-4212515D01*
X34430205Y-4121100D01*
X34410511Y-4086988D01*
X34410506Y-4086982D01*
X34308017Y-3984493D01*
X34308011Y-3984488D01*
X34182488Y-3912017D01*
X34182489Y-3912017D01*
X34171006Y-3908940D01*
X34042475Y-3874500D01*
X33897525Y-3874500D01*
X33768993Y-3908940D01*
X33757511Y-3912017D01*
X33637000Y-3981595D01*
X33569100Y-3998068D01*
X33513000Y-3981595D01*
X33392488Y-3912017D01*
X33392489Y-3912017D01*
X33381006Y-3908940D01*
X33252475Y-3874500D01*
X33107525Y-3874500D01*
X32978993Y-3908940D01*
X32967511Y-3912017D01*
X32841988Y-3984488D01*
X32841982Y-3984493D01*
X32739493Y-4086982D01*
X32739488Y-4086988D01*
X32667017Y-4212511D01*
X32667016Y-4212515D01*
X32629500Y-4352525D01*
X5184002Y-4352525D01*
X5188224Y-4345212D01*
X5188229Y-4345200D01*
X5208217Y-4296946D01*
X5208217Y-4296945D01*
X5281052Y-4121104D01*
X5281054Y-4121100D01*
X5343838Y-3886789D01*
X5375500Y-3646288D01*
X5375500Y-3403712D01*
X5375500Y-3403711D01*
X69674500Y-3403711D01*
X69674500Y-3646288D01*
X69706161Y-3886785D01*
X69768947Y-4121104D01*
X69861771Y-4345200D01*
X69861776Y-4345212D01*
X69983064Y-4555289D01*
X69983066Y-4555292D01*
X69983067Y-4555293D01*
X70130733Y-4747736D01*
X70130739Y-4747743D01*
X70302256Y-4919260D01*
X70302263Y-4919266D01*
X70326657Y-4937984D01*
X70494711Y-5066936D01*
X70704788Y-5188224D01*
X70928900Y-5281054D01*
X71163211Y-5343838D01*
X71343586Y-5367584D01*
X71403711Y-5375500D01*
X71403712Y-5375500D01*
X71646289Y-5375500D01*
X71694388Y-5369167D01*
X71886789Y-5343838D01*
X72121100Y-5281054D01*
X72345212Y-5188224D01*
X72555289Y-5066936D01*
X72747738Y-4919265D01*
X72919265Y-4747738D01*
X73066936Y-4555289D01*
X73188224Y-4345212D01*
X73281054Y-4121100D01*
X73343838Y-3886789D01*
X73375500Y-3646288D01*
X73375500Y-3403712D01*
X73343838Y-3163211D01*
X73281054Y-2928900D01*
X73188224Y-2704788D01*
X73066936Y-2494711D01*
X72919265Y-2302262D01*
X72919260Y-2302256D01*
X72747743Y-2130739D01*
X72747736Y-2130733D01*
X72555293Y-1983067D01*
X72555292Y-1983066D01*
X72555289Y-1983064D01*
X72345212Y-1861776D01*
X72345205Y-1861773D01*
X72121104Y-1768947D01*
X71886785Y-1706161D01*
X71646289Y-1674500D01*
X71646288Y-1674500D01*
X71403712Y-1674500D01*
X71403711Y-1674500D01*
X71163214Y-1706161D01*
X70928895Y-1768947D01*
X70704794Y-1861773D01*
X70704785Y-1861777D01*
X70494706Y-1983067D01*
X70302263Y-2130733D01*
X70302256Y-2130739D01*
X70130739Y-2302256D01*
X70130733Y-2302263D01*
X69983067Y-2494706D01*
X69861777Y-2704785D01*
X69861773Y-2704794D01*
X69768947Y-2928895D01*
X69706161Y-3163214D01*
X69674500Y-3403711D01*
X5375500Y-3403711D01*
X5343838Y-3163211D01*
X5281054Y-2928900D01*
X5188224Y-2704788D01*
X5066936Y-2494711D01*
X4919265Y-2302262D01*
X4919260Y-2302256D01*
X4747743Y-2130739D01*
X4747736Y-2130733D01*
X4555293Y-1983067D01*
X4555292Y-1983066D01*
X4555289Y-1983064D01*
X4345212Y-1861776D01*
X4345205Y-1861773D01*
X4121104Y-1768947D01*
X3886785Y-1706161D01*
X3646289Y-1674500D01*
X3646288Y-1674500D01*
X3403712Y-1674500D01*
X3403711Y-1674500D01*
X3163214Y-1706161D01*
X2928895Y-1768947D01*
X2704794Y-1861773D01*
X2704785Y-1861777D01*
X2494706Y-1983067D01*
X2302263Y-2130733D01*
X2302256Y-2130739D01*
X2130739Y-2302256D01*
X2130733Y-2302263D01*
X1983067Y-2494706D01*
X1861777Y-2704785D01*
X1861773Y-2704794D01*
X1768947Y-2928895D01*
X1706161Y-3163214D01*
X1674500Y-3403711D01*
X525500Y-3403711D01*
X525500Y-2029427D01*
X525816Y-2020581D01*
X540130Y-1820443D01*
X540131Y-1820442D01*
X540130Y-1820436D01*
X542646Y-1802938D01*
X584356Y-1611200D01*
X589335Y-1594242D01*
X657911Y-1410382D01*
X665251Y-1394310D01*
X759294Y-1222083D01*
X768850Y-1207214D01*
X886443Y-1050128D01*
X898017Y-1036771D01*
X1036771Y-898017D01*
X1050128Y-886443D01*
X1207214Y-768850D01*
X1222083Y-759294D01*
X1394310Y-665251D01*
X1410382Y-657911D01*
X1594242Y-589335D01*
X1611200Y-584356D01*
X1802938Y-542646D01*
X1820436Y-540130D01*
X2020582Y-525816D01*
X2029428Y-525500D01*
X2090892Y-525500D01*
X72959108Y-525500D01*
X73020572Y-525500D01*
X73029418Y-525816D01*
G37*
%TD.AperFunction*%
%TD*%
M02*
