%TF.GenerationSoftware,KiCad,Pcbnew,10.0.6*%
%TF.CreationDate,2026-09-23T19:19:14-04:00*%
%TF.ProjectId,p1_rx,70315f72-782e-46b6-9963-61645f706362,rev?*%
%TF.SameCoordinates,Original*%
%TF.FileFunction,Legend,Bot*%
%TF.FilePolarity,Positive*%
%FSLAX46Y46*%
G04 Gerber Fmt 4.6, Leading zero omitted, Abs format (unit mm)*
G04 Created by KiCad (PCBNEW 10.0.6) date 2026-09-23 19:19:14*
%MOMM*%
%LPD*%
G01*
G04 APERTURE LIST*
G04 Aperture macros list*
%AMRoundRect*
0 Rectangle with rounded corners*
0 $1 Rounding radius*
0 $2 $3 $4 $5 $6 $7 $8 $9 X,Y pos of 4 corners*
0 Add a 4 corners polygon primitive as box body*
4,1,4,$2,$3,$4,$5,$6,$7,$8,$9,$2,$3,0*
0 Add four circle primitives for the rounded corners*
1,1,$1+$1,$2,$3*
1,1,$1+$1,$4,$5*
1,1,$1+$1,$6,$7*
1,1,$1+$1,$8,$9*
0 Add four rect primitives between the rounded corners*
20,1,$1+$1,$2,$3,$4,$5,0*
20,1,$1+$1,$4,$5,$6,$7,0*
20,1,$1+$1,$6,$7,$8,$9,0*
20,1,$1+$1,$8,$9,$2,$3,0*%
G04 Aperture macros list end*
%ADD10C,0.150000*%
%ADD11R,1.700000X1.700000*%
%ADD12C,1.700000*%
%ADD13RoundRect,0.250000X-1.050000X1.050000X-1.050000X-1.050000X1.050000X-1.050000X1.050000X1.050000X0*%
%ADD14C,2.600000*%
%ADD15R,2.000000X0.900000*%
%ADD16RoundRect,1.025000X-1.025000X1.025000X-1.025000X-1.025000X1.025000X-1.025000X1.025000X1.025000X0*%
%ADD17C,4.100000*%
%ADD18C,3.200000*%
G04 APERTURE END LIST*
D10*
X23929761Y-45584580D02*
X23977380Y-45632200D01*
X23977380Y-45632200D02*
X24120237Y-45679819D01*
X24120237Y-45679819D02*
X24215475Y-45679819D01*
X24215475Y-45679819D02*
X24358332Y-45632200D01*
X24358332Y-45632200D02*
X24453570Y-45536961D01*
X24453570Y-45536961D02*
X24501189Y-45441723D01*
X24501189Y-45441723D02*
X24548808Y-45251247D01*
X24548808Y-45251247D02*
X24548808Y-45108390D01*
X24548808Y-45108390D02*
X24501189Y-44917914D01*
X24501189Y-44917914D02*
X24453570Y-44822676D01*
X24453570Y-44822676D02*
X24358332Y-44727438D01*
X24358332Y-44727438D02*
X24215475Y-44679819D01*
X24215475Y-44679819D02*
X24120237Y-44679819D01*
X24120237Y-44679819D02*
X23977380Y-44727438D01*
X23977380Y-44727438D02*
X23929761Y-44775057D01*
X23310713Y-44679819D02*
X23120237Y-44679819D01*
X23120237Y-44679819D02*
X23024999Y-44727438D01*
X23024999Y-44727438D02*
X22929761Y-44822676D01*
X22929761Y-44822676D02*
X22882142Y-45013152D01*
X22882142Y-45013152D02*
X22882142Y-45346485D01*
X22882142Y-45346485D02*
X22929761Y-45536961D01*
X22929761Y-45536961D02*
X23024999Y-45632200D01*
X23024999Y-45632200D02*
X23120237Y-45679819D01*
X23120237Y-45679819D02*
X23310713Y-45679819D01*
X23310713Y-45679819D02*
X23405951Y-45632200D01*
X23405951Y-45632200D02*
X23501189Y-45536961D01*
X23501189Y-45536961D02*
X23548808Y-45346485D01*
X23548808Y-45346485D02*
X23548808Y-45013152D01*
X23548808Y-45013152D02*
X23501189Y-44822676D01*
X23501189Y-44822676D02*
X23405951Y-44727438D01*
X23405951Y-44727438D02*
X23310713Y-44679819D01*
X22453570Y-45679819D02*
X22453570Y-44679819D01*
X21501190Y-45679819D02*
X21977380Y-45679819D01*
X21977380Y-45679819D02*
X21977380Y-44679819D01*
X19882142Y-44727438D02*
X19977380Y-44679819D01*
X19977380Y-44679819D02*
X20120237Y-44679819D01*
X20120237Y-44679819D02*
X20263094Y-44727438D01*
X20263094Y-44727438D02*
X20358332Y-44822676D01*
X20358332Y-44822676D02*
X20405951Y-44917914D01*
X20405951Y-44917914D02*
X20453570Y-45108390D01*
X20453570Y-45108390D02*
X20453570Y-45251247D01*
X20453570Y-45251247D02*
X20405951Y-45441723D01*
X20405951Y-45441723D02*
X20358332Y-45536961D01*
X20358332Y-45536961D02*
X20263094Y-45632200D01*
X20263094Y-45632200D02*
X20120237Y-45679819D01*
X20120237Y-45679819D02*
X20024999Y-45679819D01*
X20024999Y-45679819D02*
X19882142Y-45632200D01*
X19882142Y-45632200D02*
X19834523Y-45584580D01*
X19834523Y-45584580D02*
X19834523Y-45251247D01*
X19834523Y-45251247D02*
X20024999Y-45251247D01*
X19453570Y-45394104D02*
X18977380Y-45394104D01*
X19548808Y-45679819D02*
X19215475Y-44679819D01*
X19215475Y-44679819D02*
X18882142Y-45679819D01*
X18548808Y-45679819D02*
X18548808Y-44679819D01*
X18548808Y-44679819D02*
X18167856Y-44679819D01*
X18167856Y-44679819D02*
X18072618Y-44727438D01*
X18072618Y-44727438D02*
X18024999Y-44775057D01*
X18024999Y-44775057D02*
X17977380Y-44870295D01*
X17977380Y-44870295D02*
X17977380Y-45013152D01*
X17977380Y-45013152D02*
X18024999Y-45108390D01*
X18024999Y-45108390D02*
X18072618Y-45156009D01*
X18072618Y-45156009D02*
X18167856Y-45203628D01*
X18167856Y-45203628D02*
X18548808Y-45203628D01*
X16786903Y-45013152D02*
X16024999Y-45298866D01*
X16024999Y-45298866D02*
X16786903Y-45584580D01*
X15548808Y-45156009D02*
X14786904Y-45156009D01*
X14786904Y-45441723D02*
X15548808Y-45441723D01*
X13786904Y-45679819D02*
X14358332Y-45679819D01*
X14072618Y-45679819D02*
X14072618Y-44679819D01*
X14072618Y-44679819D02*
X14167856Y-44822676D01*
X14167856Y-44822676D02*
X14263094Y-44917914D01*
X14263094Y-44917914D02*
X14358332Y-44965533D01*
X13167856Y-44679819D02*
X13072618Y-44679819D01*
X13072618Y-44679819D02*
X12977380Y-44727438D01*
X12977380Y-44727438D02*
X12929761Y-44775057D01*
X12929761Y-44775057D02*
X12882142Y-44870295D01*
X12882142Y-44870295D02*
X12834523Y-45060771D01*
X12834523Y-45060771D02*
X12834523Y-45298866D01*
X12834523Y-45298866D02*
X12882142Y-45489342D01*
X12882142Y-45489342D02*
X12929761Y-45584580D01*
X12929761Y-45584580D02*
X12977380Y-45632200D01*
X12977380Y-45632200D02*
X13072618Y-45679819D01*
X13072618Y-45679819D02*
X13167856Y-45679819D01*
X13167856Y-45679819D02*
X13263094Y-45632200D01*
X13263094Y-45632200D02*
X13310713Y-45584580D01*
X13310713Y-45584580D02*
X13358332Y-45489342D01*
X13358332Y-45489342D02*
X13405951Y-45298866D01*
X13405951Y-45298866D02*
X13405951Y-45060771D01*
X13405951Y-45060771D02*
X13358332Y-44870295D01*
X13358332Y-44870295D02*
X13310713Y-44775057D01*
X13310713Y-44775057D02*
X13263094Y-44727438D01*
X13263094Y-44727438D02*
X13167856Y-44679819D01*
X12405951Y-45679819D02*
X12405951Y-45013152D01*
X12405951Y-45108390D02*
X12358332Y-45060771D01*
X12358332Y-45060771D02*
X12263094Y-45013152D01*
X12263094Y-45013152D02*
X12120237Y-45013152D01*
X12120237Y-45013152D02*
X12024999Y-45060771D01*
X12024999Y-45060771D02*
X11977380Y-45156009D01*
X11977380Y-45156009D02*
X11977380Y-45679819D01*
X11977380Y-45156009D02*
X11929761Y-45060771D01*
X11929761Y-45060771D02*
X11834523Y-45013152D01*
X11834523Y-45013152D02*
X11691666Y-45013152D01*
X11691666Y-45013152D02*
X11596427Y-45060771D01*
X11596427Y-45060771D02*
X11548808Y-45156009D01*
X11548808Y-45156009D02*
X11548808Y-45679819D01*
X11072618Y-45679819D02*
X11072618Y-45013152D01*
X11072618Y-45108390D02*
X11024999Y-45060771D01*
X11024999Y-45060771D02*
X10929761Y-45013152D01*
X10929761Y-45013152D02*
X10786904Y-45013152D01*
X10786904Y-45013152D02*
X10691666Y-45060771D01*
X10691666Y-45060771D02*
X10644047Y-45156009D01*
X10644047Y-45156009D02*
X10644047Y-45679819D01*
X10644047Y-45156009D02*
X10596428Y-45060771D01*
X10596428Y-45060771D02*
X10501190Y-45013152D01*
X10501190Y-45013152D02*
X10358333Y-45013152D01*
X10358333Y-45013152D02*
X10263094Y-45060771D01*
X10263094Y-45060771D02*
X10215475Y-45156009D01*
X10215475Y-45156009D02*
X10215475Y-45679819D01*
X8977380Y-45298866D02*
X8215476Y-45298866D01*
X8596428Y-45679819D02*
X8596428Y-44917914D01*
X6644047Y-45156009D02*
X6977380Y-45156009D01*
X6977380Y-45679819D02*
X6977380Y-44679819D01*
X6977380Y-44679819D02*
X6501190Y-44679819D01*
X6120237Y-45156009D02*
X5786904Y-45156009D01*
X5644047Y-45679819D02*
X6120237Y-45679819D01*
X6120237Y-45679819D02*
X6120237Y-44679819D01*
X6120237Y-44679819D02*
X5644047Y-44679819D01*
X4644047Y-45679819D02*
X4977380Y-45203628D01*
X5215475Y-45679819D02*
X5215475Y-44679819D01*
X5215475Y-44679819D02*
X4834523Y-44679819D01*
X4834523Y-44679819D02*
X4739285Y-44727438D01*
X4739285Y-44727438D02*
X4691666Y-44775057D01*
X4691666Y-44775057D02*
X4644047Y-44870295D01*
X4644047Y-44870295D02*
X4644047Y-45013152D01*
X4644047Y-45013152D02*
X4691666Y-45108390D01*
X4691666Y-45108390D02*
X4739285Y-45156009D01*
X4739285Y-45156009D02*
X4834523Y-45203628D01*
X4834523Y-45203628D02*
X5215475Y-45203628D01*
X3644047Y-45679819D02*
X3977380Y-45203628D01*
X4215475Y-45679819D02*
X4215475Y-44679819D01*
X4215475Y-44679819D02*
X3834523Y-44679819D01*
X3834523Y-44679819D02*
X3739285Y-44727438D01*
X3739285Y-44727438D02*
X3691666Y-44775057D01*
X3691666Y-44775057D02*
X3644047Y-44870295D01*
X3644047Y-44870295D02*
X3644047Y-45013152D01*
X3644047Y-45013152D02*
X3691666Y-45108390D01*
X3691666Y-45108390D02*
X3739285Y-45156009D01*
X3739285Y-45156009D02*
X3834523Y-45203628D01*
X3834523Y-45203628D02*
X4215475Y-45203628D01*
X3215475Y-45679819D02*
X3215475Y-44679819D01*
X2882142Y-44679819D02*
X2310714Y-44679819D01*
X2596428Y-45679819D02*
X2596428Y-44679819D01*
X1977380Y-45156009D02*
X1644047Y-45156009D01*
X1501190Y-45679819D02*
X1977380Y-45679819D01*
X1977380Y-45679819D02*
X1977380Y-44679819D01*
X1977380Y-44679819D02*
X1501190Y-44679819D01*
X22001190Y-47579819D02*
X22001190Y-46579819D01*
X22001190Y-46579819D02*
X21429762Y-47579819D01*
X21429762Y-47579819D02*
X21429762Y-46579819D01*
X20763095Y-47103628D02*
X20763095Y-47579819D01*
X21096428Y-46579819D02*
X20763095Y-47103628D01*
X20763095Y-47103628D02*
X20429762Y-46579819D01*
X19620238Y-47579819D02*
X20096428Y-47579819D01*
X20096428Y-47579819D02*
X20096428Y-46579819D01*
X19096428Y-46579819D02*
X18905952Y-46579819D01*
X18905952Y-46579819D02*
X18810714Y-46627438D01*
X18810714Y-46627438D02*
X18715476Y-46722676D01*
X18715476Y-46722676D02*
X18667857Y-46913152D01*
X18667857Y-46913152D02*
X18667857Y-47246485D01*
X18667857Y-47246485D02*
X18715476Y-47436961D01*
X18715476Y-47436961D02*
X18810714Y-47532200D01*
X18810714Y-47532200D02*
X18905952Y-47579819D01*
X18905952Y-47579819D02*
X19096428Y-47579819D01*
X19096428Y-47579819D02*
X19191666Y-47532200D01*
X19191666Y-47532200D02*
X19286904Y-47436961D01*
X19286904Y-47436961D02*
X19334523Y-47246485D01*
X19334523Y-47246485D02*
X19334523Y-46913152D01*
X19334523Y-46913152D02*
X19286904Y-46722676D01*
X19286904Y-46722676D02*
X19191666Y-46627438D01*
X19191666Y-46627438D02*
X19096428Y-46579819D01*
X18239285Y-47579819D02*
X18239285Y-46579819D01*
X18239285Y-46579819D02*
X17667857Y-47579819D01*
X17667857Y-47579819D02*
X17667857Y-46579819D01*
X16477380Y-47532200D02*
X16334523Y-47579819D01*
X16334523Y-47579819D02*
X16096428Y-47579819D01*
X16096428Y-47579819D02*
X16001190Y-47532200D01*
X16001190Y-47532200D02*
X15953571Y-47484580D01*
X15953571Y-47484580D02*
X15905952Y-47389342D01*
X15905952Y-47389342D02*
X15905952Y-47294104D01*
X15905952Y-47294104D02*
X15953571Y-47198866D01*
X15953571Y-47198866D02*
X16001190Y-47151247D01*
X16001190Y-47151247D02*
X16096428Y-47103628D01*
X16096428Y-47103628D02*
X16286904Y-47056009D01*
X16286904Y-47056009D02*
X16382142Y-47008390D01*
X16382142Y-47008390D02*
X16429761Y-46960771D01*
X16429761Y-46960771D02*
X16477380Y-46865533D01*
X16477380Y-46865533D02*
X16477380Y-46770295D01*
X16477380Y-46770295D02*
X16429761Y-46675057D01*
X16429761Y-46675057D02*
X16382142Y-46627438D01*
X16382142Y-46627438D02*
X16286904Y-46579819D01*
X16286904Y-46579819D02*
X16048809Y-46579819D01*
X16048809Y-46579819D02*
X15905952Y-46627438D01*
X15620237Y-46579819D02*
X15048809Y-46579819D01*
X15334523Y-47579819D02*
X15334523Y-46579819D01*
X14763094Y-47294104D02*
X14286904Y-47294104D01*
X14858332Y-47579819D02*
X14524999Y-46579819D01*
X14524999Y-46579819D02*
X14191666Y-47579819D01*
X13858332Y-47579819D02*
X13858332Y-46579819D01*
X13858332Y-46579819D02*
X13286904Y-47579819D01*
X13286904Y-47579819D02*
X13286904Y-46579819D01*
X12810713Y-47579819D02*
X12810713Y-46579819D01*
X12810713Y-46579819D02*
X12572618Y-46579819D01*
X12572618Y-46579819D02*
X12429761Y-46627438D01*
X12429761Y-46627438D02*
X12334523Y-46722676D01*
X12334523Y-46722676D02*
X12286904Y-46817914D01*
X12286904Y-46817914D02*
X12239285Y-47008390D01*
X12239285Y-47008390D02*
X12239285Y-47151247D01*
X12239285Y-47151247D02*
X12286904Y-47341723D01*
X12286904Y-47341723D02*
X12334523Y-47436961D01*
X12334523Y-47436961D02*
X12429761Y-47532200D01*
X12429761Y-47532200D02*
X12572618Y-47579819D01*
X12572618Y-47579819D02*
X12810713Y-47579819D01*
X11620237Y-46579819D02*
X11429761Y-46579819D01*
X11429761Y-46579819D02*
X11334523Y-46627438D01*
X11334523Y-46627438D02*
X11239285Y-46722676D01*
X11239285Y-46722676D02*
X11191666Y-46913152D01*
X11191666Y-46913152D02*
X11191666Y-47246485D01*
X11191666Y-47246485D02*
X11239285Y-47436961D01*
X11239285Y-47436961D02*
X11334523Y-47532200D01*
X11334523Y-47532200D02*
X11429761Y-47579819D01*
X11429761Y-47579819D02*
X11620237Y-47579819D01*
X11620237Y-47579819D02*
X11715475Y-47532200D01*
X11715475Y-47532200D02*
X11810713Y-47436961D01*
X11810713Y-47436961D02*
X11858332Y-47246485D01*
X11858332Y-47246485D02*
X11858332Y-46913152D01*
X11858332Y-46913152D02*
X11810713Y-46722676D01*
X11810713Y-46722676D02*
X11715475Y-46627438D01*
X11715475Y-46627438D02*
X11620237Y-46579819D01*
X10429761Y-47056009D02*
X10763094Y-47056009D01*
X10763094Y-47579819D02*
X10763094Y-46579819D01*
X10763094Y-46579819D02*
X10286904Y-46579819D01*
X9572618Y-47056009D02*
X9905951Y-47056009D01*
X9905951Y-47579819D02*
X9905951Y-46579819D01*
X9905951Y-46579819D02*
X9429761Y-46579819D01*
X9096427Y-47532200D02*
X8953570Y-47579819D01*
X8953570Y-47579819D02*
X8715475Y-47579819D01*
X8715475Y-47579819D02*
X8620237Y-47532200D01*
X8620237Y-47532200D02*
X8572618Y-47484580D01*
X8572618Y-47484580D02*
X8524999Y-47389342D01*
X8524999Y-47389342D02*
X8524999Y-47294104D01*
X8524999Y-47294104D02*
X8572618Y-47198866D01*
X8572618Y-47198866D02*
X8620237Y-47151247D01*
X8620237Y-47151247D02*
X8715475Y-47103628D01*
X8715475Y-47103628D02*
X8905951Y-47056009D01*
X8905951Y-47056009D02*
X9001189Y-47008390D01*
X9001189Y-47008390D02*
X9048808Y-46960771D01*
X9048808Y-46960771D02*
X9096427Y-46865533D01*
X9096427Y-46865533D02*
X9096427Y-46770295D01*
X9096427Y-46770295D02*
X9048808Y-46675057D01*
X9048808Y-46675057D02*
X9001189Y-46627438D01*
X9001189Y-46627438D02*
X8905951Y-46579819D01*
X8905951Y-46579819D02*
X8667856Y-46579819D01*
X8667856Y-46579819D02*
X8524999Y-46627438D01*
X7144046Y-46579819D02*
X6953570Y-46579819D01*
X6953570Y-46579819D02*
X6858332Y-46627438D01*
X6858332Y-46627438D02*
X6763094Y-46722676D01*
X6763094Y-46722676D02*
X6715475Y-46913152D01*
X6715475Y-46913152D02*
X6715475Y-47246485D01*
X6715475Y-47246485D02*
X6763094Y-47436961D01*
X6763094Y-47436961D02*
X6858332Y-47532200D01*
X6858332Y-47532200D02*
X6953570Y-47579819D01*
X6953570Y-47579819D02*
X7144046Y-47579819D01*
X7144046Y-47579819D02*
X7239284Y-47532200D01*
X7239284Y-47532200D02*
X7334522Y-47436961D01*
X7334522Y-47436961D02*
X7382141Y-47246485D01*
X7382141Y-47246485D02*
X7382141Y-46913152D01*
X7382141Y-46913152D02*
X7334522Y-46722676D01*
X7334522Y-46722676D02*
X7239284Y-46627438D01*
X7239284Y-46627438D02*
X7144046Y-46579819D01*
X6286903Y-47579819D02*
X6286903Y-46579819D01*
X6286903Y-46579819D02*
X5715475Y-47579819D01*
X5715475Y-47579819D02*
X5715475Y-46579819D01*
X4763094Y-47579819D02*
X5239284Y-47579819D01*
X5239284Y-47579819D02*
X5239284Y-46579819D01*
X4239284Y-47103628D02*
X4239284Y-47579819D01*
X4572617Y-46579819D02*
X4239284Y-47103628D01*
X4239284Y-47103628D02*
X3905951Y-46579819D01*
%LPC*%
D11*
%TO.C,J1002*%
X26025000Y-43625000D03*
D12*
X28565000Y-43625000D03*
X31105000Y-43625000D03*
X33645000Y-43625000D03*
%TD*%
D11*
%TO.C,J1001*%
X37325000Y-43625000D03*
D12*
X39865000Y-43625000D03*
X42405000Y-43625000D03*
X44945000Y-43625000D03*
%TD*%
D13*
%TO.C,J601*%
X5225000Y-13025000D03*
D14*
X5225000Y-18105000D03*
%TD*%
D15*
%TO.C,J801*%
X64025000Y-32375000D03*
X64025000Y-45875000D03*
D16*
X58025000Y-35525000D03*
D17*
X58025000Y-42725000D03*
%TD*%
D18*
%TO.C,H1*%
X3525000Y-3525000D03*
%TD*%
%TO.C,H2*%
X71525000Y-3525000D03*
%TD*%
%TO.C,H4*%
X71525000Y-56525000D03*
%TD*%
%TO.C,H3*%
X3525000Y-56525000D03*
%TD*%
%LPD*%
M02*
